G04 #@! TF.GenerationSoftware,KiCad,Pcbnew,(5.1.7)-1*
G04 #@! TF.CreationDate,2021-01-09T20:06:41-03:00*
G04 #@! TF.ProjectId,PCB_CONTROLADORA_SOLDAGEM,5043425f-434f-44e5-9452-4f4c41444f52,rev?*
G04 #@! TF.SameCoordinates,Original*
G04 #@! TF.FileFunction,Soldermask,Bot*
G04 #@! TF.FilePolarity,Negative*
%FSLAX46Y46*%
G04 Gerber Fmt 4.6, Leading zero omitted, Abs format (unit mm)*
G04 Created by KiCad (PCBNEW (5.1.7)-1) date 2021-01-09 20:06:41*
%MOMM*%
%LPD*%
G01*
G04 APERTURE LIST*
%ADD10R,2.700000X2.700000*%
%ADD11C,2.700000*%
%ADD12C,3.200000*%
%ADD13R,3.000000X3.000000*%
%ADD14C,3.000000*%
%ADD15O,1.700000X1.700000*%
%ADD16R,1.700000X1.700000*%
%ADD17O,3.048000X1.850000*%
%ADD18R,1.600000X1.600000*%
%ADD19C,1.600000*%
%ADD20C,2.300000*%
%ADD21R,2.000000X2.300000*%
%ADD22C,1.800000*%
%ADD23C,2.000000*%
%ADD24R,2.000000X2.000000*%
%ADD25R,1.070000X1.800000*%
%ADD26O,1.070000X1.800000*%
%ADD27R,1.800000X1.800000*%
%ADD28C,3.240000*%
%ADD29C,5.700000*%
G04 APERTURE END LIST*
D10*
X107140000Y-75840000D03*
D11*
X107140000Y-80920000D03*
D12*
X165930000Y-98450000D03*
X186430000Y-98440000D03*
X165930000Y-121454000D03*
X186430000Y-121440000D03*
D13*
X185240000Y-70570000D03*
D14*
X190320000Y-70570000D03*
X167140000Y-70570000D03*
D13*
X162060000Y-70570000D03*
D15*
X140960000Y-129425001D03*
X140960000Y-126885001D03*
X140960000Y-124345001D03*
X140960000Y-121805001D03*
X140960000Y-119265001D03*
X140960000Y-116725001D03*
X140960000Y-114185001D03*
X140960000Y-111645001D03*
X140960000Y-109105001D03*
X140960000Y-106565001D03*
X140960000Y-104025001D03*
X140960000Y-101485001D03*
X140960000Y-98945001D03*
X140960000Y-96405001D03*
X140960000Y-93865001D03*
X140960000Y-91325001D03*
X140960000Y-88785001D03*
X140960000Y-86245001D03*
X140960000Y-83705001D03*
D16*
X140960000Y-81165001D03*
X156605001Y-81165001D03*
D15*
X156605001Y-83705001D03*
X156605001Y-86245001D03*
X156605001Y-88785001D03*
X156605001Y-91325001D03*
X156605001Y-93865001D03*
X156605001Y-96405001D03*
X156605001Y-98945001D03*
X156605001Y-101485001D03*
X156605001Y-104025001D03*
X156605001Y-106565001D03*
X156605001Y-109105001D03*
X156605001Y-111645001D03*
X156605001Y-114185001D03*
X156605001Y-116725001D03*
X156605001Y-119265001D03*
X156605001Y-121805001D03*
X156605001Y-124345001D03*
X156605001Y-126885001D03*
X156605001Y-129425001D03*
D17*
X186710000Y-132250000D03*
X186710000Y-137250000D03*
X174210000Y-132250000D03*
X174210000Y-137250000D03*
D16*
X172370000Y-97950000D03*
D15*
X174910000Y-97950000D03*
X177450000Y-97950000D03*
X179990000Y-97950000D03*
D16*
X133130000Y-139740000D03*
D15*
X135670000Y-139740000D03*
X138210000Y-139740000D03*
X140750000Y-139740000D03*
D13*
X173660000Y-70570000D03*
D14*
X178740000Y-70570000D03*
D18*
X129840000Y-121340000D03*
D19*
X129840000Y-116340000D03*
D18*
X117320000Y-135790000D03*
D19*
X117320000Y-140790000D03*
D16*
X127400000Y-129490000D03*
D15*
X129940000Y-129490000D03*
D20*
X131310000Y-109550000D03*
D21*
X126110000Y-80150000D03*
D20*
X121110000Y-80150000D03*
X115910000Y-109550000D03*
D22*
X127070000Y-74560000D03*
X119570000Y-73160000D03*
D23*
X129120000Y-67150000D03*
X117720000Y-67150000D03*
X119160000Y-116220000D03*
D24*
X119160000Y-121220000D03*
D25*
X153440000Y-71320000D03*
D26*
X154710000Y-71320000D03*
X155980000Y-71320000D03*
X157250000Y-71320000D03*
D27*
X189730000Y-91300000D03*
D22*
X192230000Y-91300000D03*
X194730000Y-91300000D03*
D28*
X197030000Y-83800000D03*
X187430000Y-83800000D03*
D16*
X156530000Y-139740000D03*
D15*
X159070000Y-139740000D03*
X161610000Y-139740000D03*
X164150000Y-139740000D03*
X166690000Y-139740000D03*
X169230000Y-139740000D03*
D16*
X110140000Y-118570000D03*
D29*
X197340000Y-66770000D03*
X105940000Y-140770000D03*
X197340000Y-140770000D03*
X105940000Y-66770000D03*
M02*
