G04 #@! TF.GenerationSoftware,KiCad,Pcbnew,(5.1.7)-1*
G04 #@! TF.CreationDate,2021-01-09T20:06:41-03:00*
G04 #@! TF.ProjectId,PCB_CONTROLADORA_SOLDAGEM,5043425f-434f-44e5-9452-4f4c41444f52,rev?*
G04 #@! TF.SameCoordinates,Original*
G04 #@! TF.FileFunction,Profile,NP*
%FSLAX46Y46*%
G04 Gerber Fmt 4.6, Leading zero omitted, Abs format (unit mm)*
G04 Created by KiCad (PCBNEW (5.1.7)-1) date 2021-01-09 20:06:41*
%MOMM*%
%LPD*%
G01*
G04 APERTURE LIST*
G04 #@! TA.AperFunction,Profile*
%ADD10C,0.050000*%
G04 #@! TD*
G04 APERTURE END LIST*
D10*
X137230000Y-68110000D02*
X137230000Y-71510000D01*
X137230000Y-71510000D02*
G75*
G02*
X135230000Y-71510000I-1000000J0D01*
G01*
X135230000Y-71510000D02*
X135230000Y-68110000D01*
X135230000Y-68110000D02*
G75*
G02*
X137230000Y-68110000I1000000J0D01*
G01*
X135230000Y-75530000D02*
G75*
G02*
X137230000Y-75530000I1000000J0D01*
G01*
X118942125Y-98397279D02*
X127330000Y-94569999D01*
X126323861Y-92856189D02*
G75*
G02*
X127330000Y-94570000I406139J-913811D01*
G01*
X117923861Y-96656189D02*
X126323861Y-92856189D01*
X118942125Y-98397279D02*
G75*
G02*
X117923861Y-96656189I-412125J927279D01*
G01*
X110830000Y-97870000D02*
X114230000Y-97870000D01*
X110830000Y-99870000D02*
G75*
G02*
X110830000Y-97870000I0J1000000D01*
G01*
X114230000Y-97870000D02*
G75*
G02*
X114230000Y-99870000I0J-1000000D01*
G01*
X114230000Y-99870000D02*
X110830000Y-99870000D01*
X131129999Y-92569999D02*
G75*
G02*
X130130001Y-90970001I-499999J799999D01*
G01*
X137230000Y-89770000D02*
X131130000Y-92570000D01*
X135230000Y-88170000D02*
X135230000Y-88370000D01*
X137230000Y-86170000D02*
X137230000Y-89770000D01*
X135230000Y-88370000D02*
X130130000Y-90970000D01*
X135230000Y-86170000D02*
X135230000Y-82170000D01*
X135230000Y-88170000D02*
X135230000Y-86170000D01*
X137230000Y-82170000D02*
X137230000Y-86170000D01*
X137230000Y-79170000D02*
X137230000Y-82170000D01*
X137230000Y-79170000D02*
X137230000Y-75530000D01*
X135230000Y-79170000D02*
X135230000Y-82170000D01*
X135230000Y-75530000D02*
X135230000Y-79170000D01*
X102140000Y-144570000D02*
X102140000Y-62970000D01*
X201140000Y-144570000D02*
X102140000Y-144570000D01*
X201140000Y-62970000D02*
X201140000Y-144570000D01*
X102140000Y-62970000D02*
X201140000Y-62970000D01*
M02*
