G04 #@! TF.GenerationSoftware,KiCad,Pcbnew,(5.1.7)-1*
G04 #@! TF.CreationDate,2021-01-09T20:06:41-03:00*
G04 #@! TF.ProjectId,PCB_CONTROLADORA_SOLDAGEM,5043425f-434f-44e5-9452-4f4c41444f52,rev?*
G04 #@! TF.SameCoordinates,Original*
G04 #@! TF.FileFunction,Legend,Top*
G04 #@! TF.FilePolarity,Positive*
%FSLAX46Y46*%
G04 Gerber Fmt 4.6, Leading zero omitted, Abs format (unit mm)*
G04 Created by KiCad (PCBNEW (5.1.7)-1) date 2021-01-09 20:06:41*
%MOMM*%
%LPD*%
G01*
G04 APERTURE LIST*
%ADD10C,0.450000*%
%ADD11C,0.200000*%
%ADD12C,0.250000*%
%ADD13C,0.375000*%
%ADD14C,0.120000*%
%ADD15C,0.300000*%
%ADD16C,0.340000*%
%ADD17C,0.400000*%
%ADD18C,0.350000*%
%ADD19C,1.000000*%
%ADD20C,0.325000*%
%ADD21C,0.150000*%
G04 APERTURE END LIST*
D10*
X177140000Y-112170000D02*
G75*
G03*
X177140000Y-112170000I-200000J0D01*
G01*
X177840000Y-113670000D02*
G75*
G03*
X177840000Y-113670000I-200000J0D01*
G01*
D11*
X110147142Y-120832380D02*
X109670952Y-120832380D01*
X109623333Y-121308571D01*
X109670952Y-121260952D01*
X109766190Y-121213333D01*
X110004285Y-121213333D01*
X110099523Y-121260952D01*
X110147142Y-121308571D01*
X110194761Y-121403809D01*
X110194761Y-121641904D01*
X110147142Y-121737142D01*
X110099523Y-121784761D01*
X110004285Y-121832380D01*
X109766190Y-121832380D01*
X109670952Y-121784761D01*
X109623333Y-121737142D01*
X110528095Y-121165714D02*
X110766190Y-121832380D01*
X111004285Y-121165714D01*
X127549523Y-126022380D02*
X128168571Y-126022380D01*
X127835238Y-126403333D01*
X127978095Y-126403333D01*
X128073333Y-126450952D01*
X128120952Y-126498571D01*
X128168571Y-126593809D01*
X128168571Y-126831904D01*
X128120952Y-126927142D01*
X128073333Y-126974761D01*
X127978095Y-127022380D01*
X127692380Y-127022380D01*
X127597142Y-126974761D01*
X127549523Y-126927142D01*
X128501904Y-126355714D02*
X128740000Y-127022380D01*
X128978095Y-126355714D01*
X129263809Y-126022380D02*
X129882857Y-126022380D01*
X129549523Y-126403333D01*
X129692380Y-126403333D01*
X129787619Y-126450952D01*
X129835238Y-126498571D01*
X129882857Y-126593809D01*
X129882857Y-126831904D01*
X129835238Y-126927142D01*
X129787619Y-126974761D01*
X129692380Y-127022380D01*
X129406666Y-127022380D01*
X129311428Y-126974761D01*
X129263809Y-126927142D01*
X169711428Y-118272380D02*
X169711428Y-117272380D01*
X169949523Y-117272380D01*
X170092380Y-117320000D01*
X170187619Y-117415238D01*
X170235238Y-117510476D01*
X170282857Y-117700952D01*
X170282857Y-117843809D01*
X170235238Y-118034285D01*
X170187619Y-118129523D01*
X170092380Y-118224761D01*
X169949523Y-118272380D01*
X169711428Y-118272380D01*
X170711428Y-118272380D02*
X170711428Y-117605714D01*
X170711428Y-117272380D02*
X170663809Y-117320000D01*
X170711428Y-117367619D01*
X170759047Y-117320000D01*
X170711428Y-117272380D01*
X170711428Y-117367619D01*
X171140000Y-118224761D02*
X171235238Y-118272380D01*
X171425714Y-118272380D01*
X171520952Y-118224761D01*
X171568571Y-118129523D01*
X171568571Y-118081904D01*
X171520952Y-117986666D01*
X171425714Y-117939047D01*
X171282857Y-117939047D01*
X171187619Y-117891428D01*
X171140000Y-117796190D01*
X171140000Y-117748571D01*
X171187619Y-117653333D01*
X171282857Y-117605714D01*
X171425714Y-117605714D01*
X171520952Y-117653333D01*
X171997142Y-117605714D02*
X171997142Y-118605714D01*
X171997142Y-117653333D02*
X172092380Y-117605714D01*
X172282857Y-117605714D01*
X172378095Y-117653333D01*
X172425714Y-117700952D01*
X172473333Y-117796190D01*
X172473333Y-118081904D01*
X172425714Y-118177142D01*
X172378095Y-118224761D01*
X172282857Y-118272380D01*
X172092380Y-118272380D01*
X171997142Y-118224761D01*
X173044761Y-118272380D02*
X172949523Y-118224761D01*
X172901904Y-118129523D01*
X172901904Y-117272380D01*
X173854285Y-118272380D02*
X173854285Y-117748571D01*
X173806666Y-117653333D01*
X173711428Y-117605714D01*
X173520952Y-117605714D01*
X173425714Y-117653333D01*
X173854285Y-118224761D02*
X173759047Y-118272380D01*
X173520952Y-118272380D01*
X173425714Y-118224761D01*
X173378095Y-118129523D01*
X173378095Y-118034285D01*
X173425714Y-117939047D01*
X173520952Y-117891428D01*
X173759047Y-117891428D01*
X173854285Y-117843809D01*
X174235238Y-117605714D02*
X174473333Y-118272380D01*
X174711428Y-117605714D02*
X174473333Y-118272380D01*
X174378095Y-118510476D01*
X174330476Y-118558095D01*
X174235238Y-118605714D01*
X176044761Y-117272380D02*
X176235238Y-117272380D01*
X176330476Y-117320000D01*
X176425714Y-117415238D01*
X176473333Y-117605714D01*
X176473333Y-117939047D01*
X176425714Y-118129523D01*
X176330476Y-118224761D01*
X176235238Y-118272380D01*
X176044761Y-118272380D01*
X175949523Y-118224761D01*
X175854285Y-118129523D01*
X175806666Y-117939047D01*
X175806666Y-117605714D01*
X175854285Y-117415238D01*
X175949523Y-117320000D01*
X176044761Y-117272380D01*
X177044761Y-118272380D02*
X176949523Y-118224761D01*
X176901904Y-118129523D01*
X176901904Y-117272380D01*
X177806666Y-118224761D02*
X177711428Y-118272380D01*
X177520952Y-118272380D01*
X177425714Y-118224761D01*
X177378095Y-118129523D01*
X177378095Y-117748571D01*
X177425714Y-117653333D01*
X177520952Y-117605714D01*
X177711428Y-117605714D01*
X177806666Y-117653333D01*
X177854285Y-117748571D01*
X177854285Y-117843809D01*
X177378095Y-117939047D01*
X178711428Y-118272380D02*
X178711428Y-117272380D01*
X178711428Y-118224761D02*
X178616190Y-118272380D01*
X178425714Y-118272380D01*
X178330476Y-118224761D01*
X178282857Y-118177142D01*
X178235238Y-118081904D01*
X178235238Y-117796190D01*
X178282857Y-117700952D01*
X178330476Y-117653333D01*
X178425714Y-117605714D01*
X178616190Y-117605714D01*
X178711428Y-117653333D01*
X180140000Y-117272380D02*
X180235238Y-117272380D01*
X180330476Y-117320000D01*
X180378095Y-117367619D01*
X180425714Y-117462857D01*
X180473333Y-117653333D01*
X180473333Y-117891428D01*
X180425714Y-118081904D01*
X180378095Y-118177142D01*
X180330476Y-118224761D01*
X180235238Y-118272380D01*
X180140000Y-118272380D01*
X180044761Y-118224761D01*
X179997142Y-118177142D01*
X179949523Y-118081904D01*
X179901904Y-117891428D01*
X179901904Y-117653333D01*
X179949523Y-117462857D01*
X179997142Y-117367619D01*
X180044761Y-117320000D01*
X180140000Y-117272380D01*
X180901904Y-118177142D02*
X180949523Y-118224761D01*
X180901904Y-118272380D01*
X180854285Y-118224761D01*
X180901904Y-118177142D01*
X180901904Y-118272380D01*
X181425714Y-118272380D02*
X181616190Y-118272380D01*
X181711428Y-118224761D01*
X181759047Y-118177142D01*
X181854285Y-118034285D01*
X181901904Y-117843809D01*
X181901904Y-117462857D01*
X181854285Y-117367619D01*
X181806666Y-117320000D01*
X181711428Y-117272380D01*
X181520952Y-117272380D01*
X181425714Y-117320000D01*
X181378095Y-117367619D01*
X181330476Y-117462857D01*
X181330476Y-117700952D01*
X181378095Y-117796190D01*
X181425714Y-117843809D01*
X181520952Y-117891428D01*
X181711428Y-117891428D01*
X181806666Y-117843809D01*
X181854285Y-117796190D01*
X181901904Y-117700952D01*
X182759047Y-117272380D02*
X182568571Y-117272380D01*
X182473333Y-117320000D01*
X182425714Y-117367619D01*
X182330476Y-117510476D01*
X182282857Y-117700952D01*
X182282857Y-118081904D01*
X182330476Y-118177142D01*
X182378095Y-118224761D01*
X182473333Y-118272380D01*
X182663809Y-118272380D01*
X182759047Y-118224761D01*
X182806666Y-118177142D01*
X182854285Y-118081904D01*
X182854285Y-117843809D01*
X182806666Y-117748571D01*
X182759047Y-117700952D01*
X182663809Y-117653333D01*
X182473333Y-117653333D01*
X182378095Y-117700952D01*
X182330476Y-117748571D01*
X182282857Y-117843809D01*
X183235238Y-117272380D02*
X183235238Y-117462857D01*
X183616190Y-117272380D02*
X183616190Y-117462857D01*
X171235238Y-119972380D02*
X170663809Y-119972380D01*
X170949523Y-119972380D02*
X170949523Y-118972380D01*
X170854285Y-119115238D01*
X170759047Y-119210476D01*
X170663809Y-119258095D01*
X171616190Y-119067619D02*
X171663809Y-119020000D01*
X171759047Y-118972380D01*
X171997142Y-118972380D01*
X172092380Y-119020000D01*
X172140000Y-119067619D01*
X172187619Y-119162857D01*
X172187619Y-119258095D01*
X172140000Y-119400952D01*
X171568571Y-119972380D01*
X172187619Y-119972380D01*
X172759047Y-119400952D02*
X172663809Y-119353333D01*
X172616190Y-119305714D01*
X172568571Y-119210476D01*
X172568571Y-119162857D01*
X172616190Y-119067619D01*
X172663809Y-119020000D01*
X172759047Y-118972380D01*
X172949523Y-118972380D01*
X173044761Y-119020000D01*
X173092380Y-119067619D01*
X173140000Y-119162857D01*
X173140000Y-119210476D01*
X173092380Y-119305714D01*
X173044761Y-119353333D01*
X172949523Y-119400952D01*
X172759047Y-119400952D01*
X172663809Y-119448571D01*
X172616190Y-119496190D01*
X172568571Y-119591428D01*
X172568571Y-119781904D01*
X172616190Y-119877142D01*
X172663809Y-119924761D01*
X172759047Y-119972380D01*
X172949523Y-119972380D01*
X173044761Y-119924761D01*
X173092380Y-119877142D01*
X173140000Y-119781904D01*
X173140000Y-119591428D01*
X173092380Y-119496190D01*
X173044761Y-119448571D01*
X172949523Y-119400952D01*
X174235238Y-119972380D02*
X174759047Y-119305714D01*
X174235238Y-119305714D02*
X174759047Y-119972380D01*
X176330476Y-118972380D02*
X176140000Y-118972380D01*
X176044761Y-119020000D01*
X175997142Y-119067619D01*
X175901904Y-119210476D01*
X175854285Y-119400952D01*
X175854285Y-119781904D01*
X175901904Y-119877142D01*
X175949523Y-119924761D01*
X176044761Y-119972380D01*
X176235238Y-119972380D01*
X176330476Y-119924761D01*
X176378095Y-119877142D01*
X176425714Y-119781904D01*
X176425714Y-119543809D01*
X176378095Y-119448571D01*
X176330476Y-119400952D01*
X176235238Y-119353333D01*
X176044761Y-119353333D01*
X175949523Y-119400952D01*
X175901904Y-119448571D01*
X175854285Y-119543809D01*
X177282857Y-119305714D02*
X177282857Y-119972380D01*
X177044761Y-118924761D02*
X176806666Y-119639047D01*
X177425714Y-119639047D01*
X178568571Y-119972380D02*
X178568571Y-118972380D01*
X178949523Y-118972380D01*
X179044761Y-119020000D01*
X179092380Y-119067619D01*
X179140000Y-119162857D01*
X179140000Y-119305714D01*
X179092380Y-119400952D01*
X179044761Y-119448571D01*
X178949523Y-119496190D01*
X178568571Y-119496190D01*
X179568571Y-119972380D02*
X179568571Y-119305714D01*
X179568571Y-118972380D02*
X179520952Y-119020000D01*
X179568571Y-119067619D01*
X179616190Y-119020000D01*
X179568571Y-118972380D01*
X179568571Y-119067619D01*
X179949523Y-119972380D02*
X180473333Y-119305714D01*
X179949523Y-119305714D02*
X180473333Y-119972380D01*
X181235238Y-119924761D02*
X181140000Y-119972380D01*
X180949523Y-119972380D01*
X180854285Y-119924761D01*
X180806666Y-119829523D01*
X180806666Y-119448571D01*
X180854285Y-119353333D01*
X180949523Y-119305714D01*
X181140000Y-119305714D01*
X181235238Y-119353333D01*
X181282857Y-119448571D01*
X181282857Y-119543809D01*
X180806666Y-119639047D01*
X181854285Y-119972380D02*
X181759047Y-119924761D01*
X181711428Y-119829523D01*
X181711428Y-118972380D01*
X182187619Y-119924761D02*
X182282857Y-119972380D01*
X182473333Y-119972380D01*
X182568571Y-119924761D01*
X182616190Y-119829523D01*
X182616190Y-119781904D01*
X182568571Y-119686666D01*
X182473333Y-119639047D01*
X182330476Y-119639047D01*
X182235238Y-119591428D01*
X182187619Y-119496190D01*
X182187619Y-119448571D01*
X182235238Y-119353333D01*
X182330476Y-119305714D01*
X182473333Y-119305714D01*
X182568571Y-119353333D01*
X179268571Y-100993809D02*
X179382857Y-101031904D01*
X179573333Y-101031904D01*
X179649523Y-100993809D01*
X179687619Y-100955714D01*
X179725714Y-100879523D01*
X179725714Y-100803333D01*
X179687619Y-100727142D01*
X179649523Y-100689047D01*
X179573333Y-100650952D01*
X179420952Y-100612857D01*
X179344761Y-100574761D01*
X179306666Y-100536666D01*
X179268571Y-100460476D01*
X179268571Y-100384285D01*
X179306666Y-100308095D01*
X179344761Y-100270000D01*
X179420952Y-100231904D01*
X179611428Y-100231904D01*
X179725714Y-100270000D01*
X180068571Y-101031904D02*
X180068571Y-100231904D01*
X180259047Y-100231904D01*
X180373333Y-100270000D01*
X180449523Y-100346190D01*
X180487619Y-100422380D01*
X180525714Y-100574761D01*
X180525714Y-100689047D01*
X180487619Y-100841428D01*
X180449523Y-100917619D01*
X180373333Y-100993809D01*
X180259047Y-101031904D01*
X180068571Y-101031904D01*
X180830476Y-100803333D02*
X181211428Y-100803333D01*
X180754285Y-101031904D02*
X181020952Y-100231904D01*
X181287619Y-101031904D01*
X176587619Y-100993809D02*
X176701904Y-101031904D01*
X176892380Y-101031904D01*
X176968571Y-100993809D01*
X177006666Y-100955714D01*
X177044761Y-100879523D01*
X177044761Y-100803333D01*
X177006666Y-100727142D01*
X176968571Y-100689047D01*
X176892380Y-100650952D01*
X176740000Y-100612857D01*
X176663809Y-100574761D01*
X176625714Y-100536666D01*
X176587619Y-100460476D01*
X176587619Y-100384285D01*
X176625714Y-100308095D01*
X176663809Y-100270000D01*
X176740000Y-100231904D01*
X176930476Y-100231904D01*
X177044761Y-100270000D01*
X177844761Y-100955714D02*
X177806666Y-100993809D01*
X177692380Y-101031904D01*
X177616190Y-101031904D01*
X177501904Y-100993809D01*
X177425714Y-100917619D01*
X177387619Y-100841428D01*
X177349523Y-100689047D01*
X177349523Y-100574761D01*
X177387619Y-100422380D01*
X177425714Y-100346190D01*
X177501904Y-100270000D01*
X177616190Y-100231904D01*
X177692380Y-100231904D01*
X177806666Y-100270000D01*
X177844761Y-100308095D01*
X178568571Y-101031904D02*
X178187619Y-101031904D01*
X178187619Y-100231904D01*
X173987619Y-100231904D02*
X174482857Y-100231904D01*
X174216190Y-100536666D01*
X174330476Y-100536666D01*
X174406666Y-100574761D01*
X174444761Y-100612857D01*
X174482857Y-100689047D01*
X174482857Y-100879523D01*
X174444761Y-100955714D01*
X174406666Y-100993809D01*
X174330476Y-101031904D01*
X174101904Y-101031904D01*
X174025714Y-100993809D01*
X173987619Y-100955714D01*
X174749523Y-100498571D02*
X174940000Y-101031904D01*
X175130476Y-100498571D01*
X175359047Y-100231904D02*
X175854285Y-100231904D01*
X175587619Y-100536666D01*
X175701904Y-100536666D01*
X175778095Y-100574761D01*
X175816190Y-100612857D01*
X175854285Y-100689047D01*
X175854285Y-100879523D01*
X175816190Y-100955714D01*
X175778095Y-100993809D01*
X175701904Y-101031904D01*
X175473333Y-101031904D01*
X175397142Y-100993809D01*
X175359047Y-100955714D01*
X171630476Y-100270000D02*
X171554285Y-100231904D01*
X171440000Y-100231904D01*
X171325714Y-100270000D01*
X171249523Y-100346190D01*
X171211428Y-100422380D01*
X171173333Y-100574761D01*
X171173333Y-100689047D01*
X171211428Y-100841428D01*
X171249523Y-100917619D01*
X171325714Y-100993809D01*
X171440000Y-101031904D01*
X171516190Y-101031904D01*
X171630476Y-100993809D01*
X171668571Y-100955714D01*
X171668571Y-100689047D01*
X171516190Y-100689047D01*
X172011428Y-101031904D02*
X172011428Y-100231904D01*
X172468571Y-101031904D01*
X172468571Y-100231904D01*
X172849523Y-101031904D02*
X172849523Y-100231904D01*
X173040000Y-100231904D01*
X173154285Y-100270000D01*
X173230476Y-100346190D01*
X173268571Y-100422380D01*
X173306666Y-100574761D01*
X173306666Y-100689047D01*
X173268571Y-100841428D01*
X173230476Y-100917619D01*
X173154285Y-100993809D01*
X173040000Y-101031904D01*
X172849523Y-101031904D01*
D12*
X188530000Y-96440000D02*
X188540000Y-123440000D01*
D11*
X135606666Y-143031904D02*
X135340000Y-142650952D01*
X135149523Y-143031904D02*
X135149523Y-142231904D01*
X135454285Y-142231904D01*
X135530476Y-142270000D01*
X135568571Y-142308095D01*
X135606666Y-142384285D01*
X135606666Y-142498571D01*
X135568571Y-142574761D01*
X135530476Y-142612857D01*
X135454285Y-142650952D01*
X135149523Y-142650952D01*
X135873333Y-142231904D02*
X136406666Y-143031904D01*
X136406666Y-142231904D02*
X135873333Y-143031904D01*
X137530476Y-142231904D02*
X137987619Y-142231904D01*
X137759047Y-143031904D02*
X137759047Y-142231904D01*
X138178095Y-142231904D02*
X138711428Y-143031904D01*
X138711428Y-142231904D02*
X138178095Y-143031904D01*
X139887619Y-142231904D02*
X140382857Y-142231904D01*
X140116190Y-142536666D01*
X140230476Y-142536666D01*
X140306666Y-142574761D01*
X140344761Y-142612857D01*
X140382857Y-142689047D01*
X140382857Y-142879523D01*
X140344761Y-142955714D01*
X140306666Y-142993809D01*
X140230476Y-143031904D01*
X140001904Y-143031904D01*
X139925714Y-142993809D01*
X139887619Y-142955714D01*
X140649523Y-142498571D02*
X140840000Y-143031904D01*
X141030476Y-142498571D01*
X141259047Y-142231904D02*
X141754285Y-142231904D01*
X141487619Y-142536666D01*
X141601904Y-142536666D01*
X141678095Y-142574761D01*
X141716190Y-142612857D01*
X141754285Y-142689047D01*
X141754285Y-142879523D01*
X141716190Y-142955714D01*
X141678095Y-142993809D01*
X141601904Y-143031904D01*
X141373333Y-143031904D01*
X141297142Y-142993809D01*
X141259047Y-142955714D01*
X132430476Y-142270000D02*
X132354285Y-142231904D01*
X132240000Y-142231904D01*
X132125714Y-142270000D01*
X132049523Y-142346190D01*
X132011428Y-142422380D01*
X131973333Y-142574761D01*
X131973333Y-142689047D01*
X132011428Y-142841428D01*
X132049523Y-142917619D01*
X132125714Y-142993809D01*
X132240000Y-143031904D01*
X132316190Y-143031904D01*
X132430476Y-142993809D01*
X132468571Y-142955714D01*
X132468571Y-142689047D01*
X132316190Y-142689047D01*
X132811428Y-143031904D02*
X132811428Y-142231904D01*
X133268571Y-143031904D01*
X133268571Y-142231904D01*
X133649523Y-143031904D02*
X133649523Y-142231904D01*
X133840000Y-142231904D01*
X133954285Y-142270000D01*
X134030476Y-142346190D01*
X134068571Y-142422380D01*
X134106666Y-142574761D01*
X134106666Y-142689047D01*
X134068571Y-142841428D01*
X134030476Y-142917619D01*
X133954285Y-142993809D01*
X133840000Y-143031904D01*
X133649523Y-143031904D01*
X163816190Y-142612857D02*
X163930476Y-142650952D01*
X163968571Y-142689047D01*
X164006666Y-142765238D01*
X164006666Y-142879523D01*
X163968571Y-142955714D01*
X163930476Y-142993809D01*
X163854285Y-143031904D01*
X163549523Y-143031904D01*
X163549523Y-142231904D01*
X163816190Y-142231904D01*
X163892380Y-142270000D01*
X163930476Y-142308095D01*
X163968571Y-142384285D01*
X163968571Y-142460476D01*
X163930476Y-142536666D01*
X163892380Y-142574761D01*
X163816190Y-142612857D01*
X163549523Y-142612857D01*
X164692380Y-142498571D02*
X164692380Y-143031904D01*
X164501904Y-142193809D02*
X164311428Y-142765238D01*
X164806666Y-142765238D01*
X161316190Y-142612857D02*
X161430476Y-142650952D01*
X161468571Y-142689047D01*
X161506666Y-142765238D01*
X161506666Y-142879523D01*
X161468571Y-142955714D01*
X161430476Y-142993809D01*
X161354285Y-143031904D01*
X161049523Y-143031904D01*
X161049523Y-142231904D01*
X161316190Y-142231904D01*
X161392380Y-142270000D01*
X161430476Y-142308095D01*
X161468571Y-142384285D01*
X161468571Y-142460476D01*
X161430476Y-142536666D01*
X161392380Y-142574761D01*
X161316190Y-142612857D01*
X161049523Y-142612857D01*
X162230476Y-142231904D02*
X161849523Y-142231904D01*
X161811428Y-142612857D01*
X161849523Y-142574761D01*
X161925714Y-142536666D01*
X162116190Y-142536666D01*
X162192380Y-142574761D01*
X162230476Y-142612857D01*
X162268571Y-142689047D01*
X162268571Y-142879523D01*
X162230476Y-142955714D01*
X162192380Y-142993809D01*
X162116190Y-143031904D01*
X161925714Y-143031904D01*
X161849523Y-142993809D01*
X161811428Y-142955714D01*
X158287619Y-142231904D02*
X158782857Y-142231904D01*
X158516190Y-142536666D01*
X158630476Y-142536666D01*
X158706666Y-142574761D01*
X158744761Y-142612857D01*
X158782857Y-142689047D01*
X158782857Y-142879523D01*
X158744761Y-142955714D01*
X158706666Y-142993809D01*
X158630476Y-143031904D01*
X158401904Y-143031904D01*
X158325714Y-142993809D01*
X158287619Y-142955714D01*
X159049523Y-142498571D02*
X159240000Y-143031904D01*
X159430476Y-142498571D01*
X159659047Y-142231904D02*
X160154285Y-142231904D01*
X159887619Y-142536666D01*
X160001904Y-142536666D01*
X160078095Y-142574761D01*
X160116190Y-142612857D01*
X160154285Y-142689047D01*
X160154285Y-142879523D01*
X160116190Y-142955714D01*
X160078095Y-142993809D01*
X160001904Y-143031904D01*
X159773333Y-143031904D01*
X159697142Y-142993809D01*
X159659047Y-142955714D01*
X155830476Y-142270000D02*
X155754285Y-142231904D01*
X155640000Y-142231904D01*
X155525714Y-142270000D01*
X155449523Y-142346190D01*
X155411428Y-142422380D01*
X155373333Y-142574761D01*
X155373333Y-142689047D01*
X155411428Y-142841428D01*
X155449523Y-142917619D01*
X155525714Y-142993809D01*
X155640000Y-143031904D01*
X155716190Y-143031904D01*
X155830476Y-142993809D01*
X155868571Y-142955714D01*
X155868571Y-142689047D01*
X155716190Y-142689047D01*
X156211428Y-143031904D02*
X156211428Y-142231904D01*
X156668571Y-143031904D01*
X156668571Y-142231904D01*
X157049523Y-143031904D02*
X157049523Y-142231904D01*
X157240000Y-142231904D01*
X157354285Y-142270000D01*
X157430476Y-142346190D01*
X157468571Y-142422380D01*
X157506666Y-142574761D01*
X157506666Y-142689047D01*
X157468571Y-142841428D01*
X157430476Y-142917619D01*
X157354285Y-142993809D01*
X157240000Y-143031904D01*
X157049523Y-143031904D01*
X168668571Y-142803333D02*
X169049523Y-142803333D01*
X168592380Y-143031904D02*
X168859047Y-142231904D01*
X169125714Y-143031904D01*
X169811428Y-143031904D02*
X169354285Y-143031904D01*
X169582857Y-143031904D02*
X169582857Y-142231904D01*
X169506666Y-142346190D01*
X169430476Y-142422380D01*
X169354285Y-142460476D01*
X166068571Y-142803333D02*
X166449523Y-142803333D01*
X165992380Y-143031904D02*
X166259047Y-142231904D01*
X166525714Y-143031904D01*
X166944761Y-142231904D02*
X167020952Y-142231904D01*
X167097142Y-142270000D01*
X167135238Y-142308095D01*
X167173333Y-142384285D01*
X167211428Y-142536666D01*
X167211428Y-142727142D01*
X167173333Y-142879523D01*
X167135238Y-142955714D01*
X167097142Y-142993809D01*
X167020952Y-143031904D01*
X166944761Y-143031904D01*
X166868571Y-142993809D01*
X166830476Y-142955714D01*
X166792380Y-142879523D01*
X166754285Y-142727142D01*
X166754285Y-142536666D01*
X166792380Y-142384285D01*
X166830476Y-142308095D01*
X166868571Y-142270000D01*
X166944761Y-142231904D01*
X199502857Y-122352857D02*
X198302857Y-122352857D01*
X198302857Y-122067142D01*
X198360000Y-121895714D01*
X198474285Y-121781428D01*
X198588571Y-121724285D01*
X198817142Y-121667142D01*
X198988571Y-121667142D01*
X199217142Y-121724285D01*
X199331428Y-121781428D01*
X199445714Y-121895714D01*
X199502857Y-122067142D01*
X199502857Y-122352857D01*
X199445714Y-120695714D02*
X199502857Y-120810000D01*
X199502857Y-121038571D01*
X199445714Y-121152857D01*
X199331428Y-121210000D01*
X198874285Y-121210000D01*
X198760000Y-121152857D01*
X198702857Y-121038571D01*
X198702857Y-120810000D01*
X198760000Y-120695714D01*
X198874285Y-120638571D01*
X198988571Y-120638571D01*
X199102857Y-121210000D01*
X199445714Y-120181428D02*
X199502857Y-120067142D01*
X199502857Y-119838571D01*
X199445714Y-119724285D01*
X199331428Y-119667142D01*
X199274285Y-119667142D01*
X199160000Y-119724285D01*
X199102857Y-119838571D01*
X199102857Y-120010000D01*
X199045714Y-120124285D01*
X198931428Y-120181428D01*
X198874285Y-120181428D01*
X198760000Y-120124285D01*
X198702857Y-120010000D01*
X198702857Y-119838571D01*
X198760000Y-119724285D01*
X199502857Y-119152857D02*
X198702857Y-119152857D01*
X198302857Y-119152857D02*
X198360000Y-119210000D01*
X198417142Y-119152857D01*
X198360000Y-119095714D01*
X198302857Y-119152857D01*
X198417142Y-119152857D01*
X198702857Y-118067142D02*
X199674285Y-118067142D01*
X199788571Y-118124285D01*
X199845714Y-118181428D01*
X199902857Y-118295714D01*
X199902857Y-118467142D01*
X199845714Y-118581428D01*
X199445714Y-118067142D02*
X199502857Y-118181428D01*
X199502857Y-118410000D01*
X199445714Y-118524285D01*
X199388571Y-118581428D01*
X199274285Y-118638571D01*
X198931428Y-118638571D01*
X198817142Y-118581428D01*
X198760000Y-118524285D01*
X198702857Y-118410000D01*
X198702857Y-118181428D01*
X198760000Y-118067142D01*
X198702857Y-117495714D02*
X199502857Y-117495714D01*
X198817142Y-117495714D02*
X198760000Y-117438571D01*
X198702857Y-117324285D01*
X198702857Y-117152857D01*
X198760000Y-117038571D01*
X198874285Y-116981428D01*
X199502857Y-116981428D01*
X199502857Y-115495714D02*
X198302857Y-115495714D01*
X198760000Y-115495714D02*
X198702857Y-115381428D01*
X198702857Y-115152857D01*
X198760000Y-115038571D01*
X198817142Y-114981428D01*
X198931428Y-114924285D01*
X199274285Y-114924285D01*
X199388571Y-114981428D01*
X199445714Y-115038571D01*
X199502857Y-115152857D01*
X199502857Y-115381428D01*
X199445714Y-115495714D01*
X198702857Y-114524285D02*
X199502857Y-114238571D01*
X198702857Y-113952857D02*
X199502857Y-114238571D01*
X199788571Y-114352857D01*
X199845714Y-114410000D01*
X199902857Y-114524285D01*
X199502857Y-112010000D02*
X199502857Y-112581428D01*
X198302857Y-112581428D01*
X198702857Y-111095714D02*
X199502857Y-111095714D01*
X198702857Y-111610000D02*
X199331428Y-111610000D01*
X199445714Y-111552857D01*
X199502857Y-111438571D01*
X199502857Y-111267142D01*
X199445714Y-111152857D01*
X199388571Y-111095714D01*
X199502857Y-110524285D02*
X198302857Y-110524285D01*
X199045714Y-110410000D02*
X199502857Y-110067142D01*
X198702857Y-110067142D02*
X199160000Y-110524285D01*
X199502857Y-109038571D02*
X198874285Y-109038571D01*
X198760000Y-109095714D01*
X198702857Y-109210000D01*
X198702857Y-109438571D01*
X198760000Y-109552857D01*
X199445714Y-109038571D02*
X199502857Y-109152857D01*
X199502857Y-109438571D01*
X199445714Y-109552857D01*
X199331428Y-109610000D01*
X199217142Y-109610000D01*
X199102857Y-109552857D01*
X199045714Y-109438571D01*
X199045714Y-109152857D01*
X198988571Y-109038571D01*
X199445714Y-108524285D02*
X199502857Y-108410000D01*
X199502857Y-108181428D01*
X199445714Y-108067142D01*
X199331428Y-108010000D01*
X199274285Y-108010000D01*
X199160000Y-108067142D01*
X199102857Y-108181428D01*
X199102857Y-108352857D01*
X199045714Y-108467142D01*
X198931428Y-108524285D01*
X198874285Y-108524285D01*
X198760000Y-108467142D01*
X198702857Y-108352857D01*
X198702857Y-108181428D01*
X198760000Y-108067142D01*
D13*
X196557142Y-131851428D02*
X196628571Y-131637142D01*
X196628571Y-131280000D01*
X196557142Y-131137142D01*
X196485714Y-131065714D01*
X196342857Y-130994285D01*
X196200000Y-130994285D01*
X196057142Y-131065714D01*
X195985714Y-131137142D01*
X195914285Y-131280000D01*
X195842857Y-131565714D01*
X195771428Y-131708571D01*
X195700000Y-131780000D01*
X195557142Y-131851428D01*
X195414285Y-131851428D01*
X195271428Y-131780000D01*
X195200000Y-131708571D01*
X195128571Y-131565714D01*
X195128571Y-131208571D01*
X195200000Y-130994285D01*
X196628571Y-130351428D02*
X195128571Y-130351428D01*
X196200000Y-129851428D01*
X195128571Y-129351428D01*
X196628571Y-129351428D01*
X196628571Y-128637142D02*
X195128571Y-128637142D01*
X195128571Y-128280000D01*
X195200000Y-128065714D01*
X195342857Y-127922857D01*
X195485714Y-127851428D01*
X195771428Y-127780000D01*
X195985714Y-127780000D01*
X196271428Y-127851428D01*
X196414285Y-127922857D01*
X196557142Y-128065714D01*
X196628571Y-128280000D01*
X196628571Y-128637142D01*
X196557142Y-126065714D02*
X196628571Y-125851428D01*
X196628571Y-125494285D01*
X196557142Y-125351428D01*
X196485714Y-125280000D01*
X196342857Y-125208571D01*
X196200000Y-125208571D01*
X196057142Y-125280000D01*
X195985714Y-125351428D01*
X195914285Y-125494285D01*
X195842857Y-125780000D01*
X195771428Y-125922857D01*
X195700000Y-125994285D01*
X195557142Y-126065714D01*
X195414285Y-126065714D01*
X195271428Y-125994285D01*
X195200000Y-125922857D01*
X195128571Y-125780000D01*
X195128571Y-125422857D01*
X195200000Y-125208571D01*
X195128571Y-124280000D02*
X195128571Y-123994285D01*
X195200000Y-123851428D01*
X195342857Y-123708571D01*
X195628571Y-123637142D01*
X196128571Y-123637142D01*
X196414285Y-123708571D01*
X196557142Y-123851428D01*
X196628571Y-123994285D01*
X196628571Y-124280000D01*
X196557142Y-124422857D01*
X196414285Y-124565714D01*
X196128571Y-124637142D01*
X195628571Y-124637142D01*
X195342857Y-124565714D01*
X195200000Y-124422857D01*
X195128571Y-124280000D01*
X196628571Y-122280000D02*
X196628571Y-122994285D01*
X195128571Y-122994285D01*
X196628571Y-121780000D02*
X195128571Y-121780000D01*
X195128571Y-121422857D01*
X195200000Y-121208571D01*
X195342857Y-121065714D01*
X195485714Y-120994285D01*
X195771428Y-120922857D01*
X195985714Y-120922857D01*
X196271428Y-120994285D01*
X196414285Y-121065714D01*
X196557142Y-121208571D01*
X196628571Y-121422857D01*
X196628571Y-121780000D01*
X195842857Y-120280000D02*
X195842857Y-119780000D01*
X196628571Y-119565714D02*
X196628571Y-120280000D01*
X195128571Y-120280000D01*
X195128571Y-119565714D01*
X196628571Y-118065714D02*
X195914285Y-118565714D01*
X196628571Y-118922857D02*
X195128571Y-118922857D01*
X195128571Y-118351428D01*
X195200000Y-118208571D01*
X195271428Y-118137142D01*
X195414285Y-118065714D01*
X195628571Y-118065714D01*
X195771428Y-118137142D01*
X195842857Y-118208571D01*
X195914285Y-118351428D01*
X195914285Y-118922857D01*
X196057142Y-117422857D02*
X196057142Y-116280000D01*
X196485714Y-114708571D02*
X196557142Y-114780000D01*
X196628571Y-114994285D01*
X196628571Y-115137142D01*
X196557142Y-115351428D01*
X196414285Y-115494285D01*
X196271428Y-115565714D01*
X195985714Y-115637142D01*
X195771428Y-115637142D01*
X195485714Y-115565714D01*
X195342857Y-115494285D01*
X195200000Y-115351428D01*
X195128571Y-115137142D01*
X195128571Y-114994285D01*
X195200000Y-114780000D01*
X195271428Y-114708571D01*
X195128571Y-113780000D02*
X195128571Y-113494285D01*
X195200000Y-113351428D01*
X195342857Y-113208571D01*
X195628571Y-113137142D01*
X196128571Y-113137142D01*
X196414285Y-113208571D01*
X196557142Y-113351428D01*
X196628571Y-113494285D01*
X196628571Y-113780000D01*
X196557142Y-113922857D01*
X196414285Y-114065714D01*
X196128571Y-114137142D01*
X195628571Y-114137142D01*
X195342857Y-114065714D01*
X195200000Y-113922857D01*
X195128571Y-113780000D01*
X196628571Y-112494285D02*
X195128571Y-112494285D01*
X196628571Y-111637142D01*
X195128571Y-111637142D01*
X195128571Y-111137142D02*
X195128571Y-110280000D01*
X196628571Y-110708571D02*
X195128571Y-110708571D01*
X196628571Y-108922857D02*
X195914285Y-109422857D01*
X196628571Y-109780000D02*
X195128571Y-109780000D01*
X195128571Y-109208571D01*
X195200000Y-109065714D01*
X195271428Y-108994285D01*
X195414285Y-108922857D01*
X195628571Y-108922857D01*
X195771428Y-108994285D01*
X195842857Y-109065714D01*
X195914285Y-109208571D01*
X195914285Y-109780000D01*
X195128571Y-107994285D02*
X195128571Y-107708571D01*
X195200000Y-107565714D01*
X195342857Y-107422857D01*
X195628571Y-107351428D01*
X196128571Y-107351428D01*
X196414285Y-107422857D01*
X196557142Y-107565714D01*
X196628571Y-107708571D01*
X196628571Y-107994285D01*
X196557142Y-108137142D01*
X196414285Y-108280000D01*
X196128571Y-108351428D01*
X195628571Y-108351428D01*
X195342857Y-108280000D01*
X195200000Y-108137142D01*
X195128571Y-107994285D01*
X196628571Y-105994285D02*
X196628571Y-106708571D01*
X195128571Y-106708571D01*
X196628571Y-104780000D02*
X196628571Y-105494285D01*
X195128571Y-105494285D01*
X195842857Y-104280000D02*
X195842857Y-103780000D01*
X196628571Y-103565714D02*
X196628571Y-104280000D01*
X195128571Y-104280000D01*
X195128571Y-103565714D01*
X196628571Y-102065714D02*
X195914285Y-102565714D01*
X196628571Y-102922857D02*
X195128571Y-102922857D01*
X195128571Y-102351428D01*
X195200000Y-102208571D01*
X195271428Y-102137142D01*
X195414285Y-102065714D01*
X195628571Y-102065714D01*
X195771428Y-102137142D01*
X195842857Y-102208571D01*
X195914285Y-102351428D01*
X195914285Y-102922857D01*
X195628571Y-100422857D02*
X196628571Y-100065714D01*
X195628571Y-99708571D01*
X196628571Y-98351428D02*
X196628571Y-99208571D01*
X196628571Y-98780000D02*
X195128571Y-98780000D01*
X195342857Y-98922857D01*
X195485714Y-99065714D01*
X195557142Y-99208571D01*
X196485714Y-97708571D02*
X196557142Y-97637142D01*
X196628571Y-97708571D01*
X196557142Y-97780000D01*
X196485714Y-97708571D01*
X196628571Y-97708571D01*
X195128571Y-96708571D02*
X195128571Y-96565714D01*
X195200000Y-96422857D01*
X195271428Y-96351428D01*
X195414285Y-96280000D01*
X195700000Y-96208571D01*
X196057142Y-96208571D01*
X196342857Y-96280000D01*
X196485714Y-96351428D01*
X196557142Y-96422857D01*
X196628571Y-96565714D01*
X196628571Y-96708571D01*
X196557142Y-96851428D01*
X196485714Y-96922857D01*
X196342857Y-96994285D01*
X196057142Y-97065714D01*
X195700000Y-97065714D01*
X195414285Y-96994285D01*
X195271428Y-96922857D01*
X195200000Y-96851428D01*
X195128571Y-96708571D01*
D14*
X107410000Y-94600000D02*
X107380000Y-94590000D01*
X107460000Y-94600000D02*
X107410000Y-94600000D01*
X107460000Y-94580000D02*
X107460000Y-94600000D01*
X107360000Y-94570000D02*
X107390000Y-94590000D01*
X107400000Y-94520000D02*
X107360000Y-94570000D01*
X107470000Y-94540000D02*
X107400000Y-94520000D01*
X107340000Y-94550000D02*
X107240000Y-93560000D01*
X107490000Y-94580000D02*
X108160000Y-93800000D01*
D15*
X107470000Y-94330000D02*
X108100000Y-93730000D01*
D14*
X107490000Y-93910000D02*
X108000000Y-92000000D01*
X107470000Y-94390000D02*
X108030000Y-91910000D01*
X107490000Y-94340000D02*
X108180000Y-91830000D01*
D16*
X107470000Y-94330000D02*
X107350000Y-93590000D01*
D17*
X108630000Y-91360000D02*
X107470000Y-94330000D01*
X107130000Y-92400000D02*
X108630000Y-91360000D01*
D18*
X107090000Y-92410000D02*
X107840000Y-89510000D01*
X108330000Y-89660000D02*
X107090000Y-92410000D01*
D17*
X107930000Y-88070000D02*
X112650000Y-95050000D01*
X103260000Y-95040000D02*
X107930000Y-88070000D01*
X112650000Y-95050000D02*
X103260000Y-95040000D01*
D15*
X119747142Y-87520000D02*
X120461428Y-87520000D01*
X119604285Y-87948571D02*
X120104285Y-86448571D01*
X120604285Y-87948571D01*
X121961428Y-87805714D02*
X121890000Y-87877142D01*
X121675714Y-87948571D01*
X121532857Y-87948571D01*
X121318571Y-87877142D01*
X121175714Y-87734285D01*
X121104285Y-87591428D01*
X121032857Y-87305714D01*
X121032857Y-87091428D01*
X121104285Y-86805714D01*
X121175714Y-86662857D01*
X121318571Y-86520000D01*
X121532857Y-86448571D01*
X121675714Y-86448571D01*
X121890000Y-86520000D01*
X121961428Y-86591428D01*
X123675714Y-86377142D02*
X122390000Y-88305714D01*
X124175714Y-87948571D02*
X124175714Y-86448571D01*
X124532857Y-86448571D01*
X124747142Y-86520000D01*
X124890000Y-86662857D01*
X124961428Y-86805714D01*
X125032857Y-87091428D01*
X125032857Y-87305714D01*
X124961428Y-87591428D01*
X124890000Y-87734285D01*
X124747142Y-87877142D01*
X124532857Y-87948571D01*
X124175714Y-87948571D01*
X126532857Y-87805714D02*
X126461428Y-87877142D01*
X126247142Y-87948571D01*
X126104285Y-87948571D01*
X125890000Y-87877142D01*
X125747142Y-87734285D01*
X125675714Y-87591428D01*
X125604285Y-87305714D01*
X125604285Y-87091428D01*
X125675714Y-86805714D01*
X125747142Y-86662857D01*
X125890000Y-86520000D01*
X126104285Y-86448571D01*
X126247142Y-86448571D01*
X126461428Y-86520000D01*
X126532857Y-86591428D01*
D12*
X102892380Y-96912857D02*
X102892380Y-95712857D01*
X102892380Y-96284285D02*
X103463809Y-96284285D01*
X103463809Y-96912857D02*
X103463809Y-95712857D01*
X103940000Y-96912857D02*
X103940000Y-95712857D01*
X104940000Y-95770000D02*
X104844761Y-95712857D01*
X104701904Y-95712857D01*
X104559047Y-95770000D01*
X104463809Y-95884285D01*
X104416190Y-95998571D01*
X104368571Y-96227142D01*
X104368571Y-96398571D01*
X104416190Y-96627142D01*
X104463809Y-96741428D01*
X104559047Y-96855714D01*
X104701904Y-96912857D01*
X104797142Y-96912857D01*
X104940000Y-96855714D01*
X104987619Y-96798571D01*
X104987619Y-96398571D01*
X104797142Y-96398571D01*
X105416190Y-96912857D02*
X105416190Y-95712857D01*
X105416190Y-96284285D02*
X105987619Y-96284285D01*
X105987619Y-96912857D02*
X105987619Y-95712857D01*
X107082857Y-95712857D02*
X107416190Y-96912857D01*
X107749523Y-95712857D01*
X108273333Y-95712857D02*
X108463809Y-95712857D01*
X108559047Y-95770000D01*
X108654285Y-95884285D01*
X108701904Y-96112857D01*
X108701904Y-96512857D01*
X108654285Y-96741428D01*
X108559047Y-96855714D01*
X108463809Y-96912857D01*
X108273333Y-96912857D01*
X108178095Y-96855714D01*
X108082857Y-96741428D01*
X108035238Y-96512857D01*
X108035238Y-96112857D01*
X108082857Y-95884285D01*
X108178095Y-95770000D01*
X108273333Y-95712857D01*
X109606666Y-96912857D02*
X109130476Y-96912857D01*
X109130476Y-95712857D01*
X109797142Y-95712857D02*
X110368571Y-95712857D01*
X110082857Y-96912857D02*
X110082857Y-95712857D01*
X110654285Y-96570000D02*
X111130476Y-96570000D01*
X110559047Y-96912857D02*
X110892380Y-95712857D01*
X111225714Y-96912857D01*
X112082857Y-95770000D02*
X111987619Y-95712857D01*
X111844761Y-95712857D01*
X111701904Y-95770000D01*
X111606666Y-95884285D01*
X111559047Y-95998571D01*
X111511428Y-96227142D01*
X111511428Y-96398571D01*
X111559047Y-96627142D01*
X111606666Y-96741428D01*
X111701904Y-96855714D01*
X111844761Y-96912857D01*
X111940000Y-96912857D01*
X112082857Y-96855714D01*
X112130476Y-96798571D01*
X112130476Y-96398571D01*
X111940000Y-96398571D01*
X112559047Y-96284285D02*
X112892380Y-96284285D01*
X113035238Y-96912857D02*
X112559047Y-96912857D01*
X112559047Y-95712857D01*
X113035238Y-95712857D01*
D15*
X103358571Y-85670000D02*
X104072857Y-85670000D01*
X103215714Y-86098571D02*
X103715714Y-84598571D01*
X104215714Y-86098571D01*
X105572857Y-85955714D02*
X105501428Y-86027142D01*
X105287142Y-86098571D01*
X105144285Y-86098571D01*
X104930000Y-86027142D01*
X104787142Y-85884285D01*
X104715714Y-85741428D01*
X104644285Y-85455714D01*
X104644285Y-85241428D01*
X104715714Y-84955714D01*
X104787142Y-84812857D01*
X104930000Y-84670000D01*
X105144285Y-84598571D01*
X105287142Y-84598571D01*
X105501428Y-84670000D01*
X105572857Y-84741428D01*
X107358571Y-86098571D02*
X107358571Y-84598571D01*
X108072857Y-86098571D02*
X108072857Y-84598571D01*
X108930000Y-86098571D01*
X108930000Y-84598571D01*
D14*
X117940000Y-133170000D02*
X117940000Y-129070000D01*
X103040000Y-133170000D02*
X117940000Y-133170000D01*
X103040000Y-124870000D02*
X103040000Y-133170000D01*
X117940000Y-124870000D02*
X103040000Y-124870000D01*
X117940000Y-129070000D02*
X117940000Y-124870000D01*
D19*
X138140000Y-77570000D02*
X152040000Y-63470000D01*
X138150000Y-100570000D02*
X102740000Y-100570000D01*
X138140000Y-77570000D02*
X138150000Y-100570000D01*
D20*
X184363809Y-64258095D02*
X185106666Y-64258095D01*
X184735238Y-65558095D02*
X184735238Y-64258095D01*
X185540000Y-65062857D02*
X186530476Y-65062857D01*
X186035238Y-65558095D02*
X186035238Y-64567619D01*
D15*
X176654285Y-65355714D02*
X176825714Y-65412857D01*
X177111428Y-65412857D01*
X177225714Y-65355714D01*
X177282857Y-65298571D01*
X177340000Y-65184285D01*
X177340000Y-65070000D01*
X177282857Y-64955714D01*
X177225714Y-64898571D01*
X177111428Y-64841428D01*
X176882857Y-64784285D01*
X176768571Y-64727142D01*
X176711428Y-64670000D01*
X176654285Y-64555714D01*
X176654285Y-64441428D01*
X176711428Y-64327142D01*
X176768571Y-64270000D01*
X176882857Y-64212857D01*
X177168571Y-64212857D01*
X177340000Y-64270000D01*
X177797142Y-65355714D02*
X177968571Y-65412857D01*
X178254285Y-65412857D01*
X178368571Y-65355714D01*
X178425714Y-65298571D01*
X178482857Y-65184285D01*
X178482857Y-65070000D01*
X178425714Y-64955714D01*
X178368571Y-64898571D01*
X178254285Y-64841428D01*
X178025714Y-64784285D01*
X177911428Y-64727142D01*
X177854285Y-64670000D01*
X177797142Y-64555714D01*
X177797142Y-64441428D01*
X177854285Y-64327142D01*
X177911428Y-64270000D01*
X178025714Y-64212857D01*
X178311428Y-64212857D01*
X178482857Y-64270000D01*
X179682857Y-65412857D02*
X179282857Y-64841428D01*
X178997142Y-65412857D02*
X178997142Y-64212857D01*
X179454285Y-64212857D01*
X179568571Y-64270000D01*
X179625714Y-64327142D01*
X179682857Y-64441428D01*
X179682857Y-64612857D01*
X179625714Y-64727142D01*
X179568571Y-64784285D01*
X179454285Y-64841428D01*
X178997142Y-64841428D01*
X180140000Y-64327142D02*
X180197142Y-64270000D01*
X180311428Y-64212857D01*
X180597142Y-64212857D01*
X180711428Y-64270000D01*
X180768571Y-64327142D01*
X180825714Y-64441428D01*
X180825714Y-64555714D01*
X180768571Y-64727142D01*
X180082857Y-65412857D01*
X180825714Y-65412857D01*
X165154285Y-65355714D02*
X165325714Y-65412857D01*
X165611428Y-65412857D01*
X165725714Y-65355714D01*
X165782857Y-65298571D01*
X165840000Y-65184285D01*
X165840000Y-65070000D01*
X165782857Y-64955714D01*
X165725714Y-64898571D01*
X165611428Y-64841428D01*
X165382857Y-64784285D01*
X165268571Y-64727142D01*
X165211428Y-64670000D01*
X165154285Y-64555714D01*
X165154285Y-64441428D01*
X165211428Y-64327142D01*
X165268571Y-64270000D01*
X165382857Y-64212857D01*
X165668571Y-64212857D01*
X165840000Y-64270000D01*
X166297142Y-65355714D02*
X166468571Y-65412857D01*
X166754285Y-65412857D01*
X166868571Y-65355714D01*
X166925714Y-65298571D01*
X166982857Y-65184285D01*
X166982857Y-65070000D01*
X166925714Y-64955714D01*
X166868571Y-64898571D01*
X166754285Y-64841428D01*
X166525714Y-64784285D01*
X166411428Y-64727142D01*
X166354285Y-64670000D01*
X166297142Y-64555714D01*
X166297142Y-64441428D01*
X166354285Y-64327142D01*
X166411428Y-64270000D01*
X166525714Y-64212857D01*
X166811428Y-64212857D01*
X166982857Y-64270000D01*
X168182857Y-65412857D02*
X167782857Y-64841428D01*
X167497142Y-65412857D02*
X167497142Y-64212857D01*
X167954285Y-64212857D01*
X168068571Y-64270000D01*
X168125714Y-64327142D01*
X168182857Y-64441428D01*
X168182857Y-64612857D01*
X168125714Y-64727142D01*
X168068571Y-64784285D01*
X167954285Y-64841428D01*
X167497142Y-64841428D01*
X169325714Y-65412857D02*
X168640000Y-65412857D01*
X168982857Y-65412857D02*
X168982857Y-64212857D01*
X168868571Y-64384285D01*
X168754285Y-64498571D01*
X168640000Y-64555714D01*
X161225714Y-64270000D02*
X161111428Y-64212857D01*
X160940000Y-64212857D01*
X160768571Y-64270000D01*
X160654285Y-64384285D01*
X160597142Y-64498571D01*
X160540000Y-64727142D01*
X160540000Y-64898571D01*
X160597142Y-65127142D01*
X160654285Y-65241428D01*
X160768571Y-65355714D01*
X160940000Y-65412857D01*
X161054285Y-65412857D01*
X161225714Y-65355714D01*
X161282857Y-65298571D01*
X161282857Y-64898571D01*
X161054285Y-64898571D01*
X161797142Y-65412857D02*
X161797142Y-64212857D01*
X162482857Y-65412857D01*
X162482857Y-64212857D01*
X163054285Y-65412857D02*
X163054285Y-64212857D01*
X163340000Y-64212857D01*
X163511428Y-64270000D01*
X163625714Y-64384285D01*
X163682857Y-64498571D01*
X163740000Y-64727142D01*
X163740000Y-64898571D01*
X163682857Y-65127142D01*
X163625714Y-65241428D01*
X163511428Y-65355714D01*
X163340000Y-65412857D01*
X163054285Y-65412857D01*
X172725714Y-64270000D02*
X172611428Y-64212857D01*
X172440000Y-64212857D01*
X172268571Y-64270000D01*
X172154285Y-64384285D01*
X172097142Y-64498571D01*
X172040000Y-64727142D01*
X172040000Y-64898571D01*
X172097142Y-65127142D01*
X172154285Y-65241428D01*
X172268571Y-65355714D01*
X172440000Y-65412857D01*
X172554285Y-65412857D01*
X172725714Y-65355714D01*
X172782857Y-65298571D01*
X172782857Y-64898571D01*
X172554285Y-64898571D01*
X173297142Y-65412857D02*
X173297142Y-64212857D01*
X173982857Y-65412857D01*
X173982857Y-64212857D01*
X174554285Y-65412857D02*
X174554285Y-64212857D01*
X174840000Y-64212857D01*
X175011428Y-64270000D01*
X175125714Y-64384285D01*
X175182857Y-64498571D01*
X175240000Y-64727142D01*
X175240000Y-64898571D01*
X175182857Y-65127142D01*
X175125714Y-65241428D01*
X175011428Y-65355714D01*
X174840000Y-65412857D01*
X174554285Y-65412857D01*
D20*
X189263809Y-64258095D02*
X190006666Y-64258095D01*
X189635238Y-65558095D02*
X189635238Y-64258095D01*
X190440000Y-65062857D02*
X191430476Y-65062857D01*
D12*
X163830000Y-123440000D02*
X163830000Y-96440000D01*
X188540000Y-123440000D02*
X163830000Y-123440000D01*
X163830000Y-96440000D02*
X188530000Y-96440000D01*
D14*
X103330000Y-73300000D02*
X103330000Y-83460000D01*
X110950000Y-73300000D02*
X103330000Y-73300000D01*
X110950000Y-83460000D02*
X110950000Y-73300000D01*
X103330000Y-83460000D02*
X110950000Y-83460000D01*
X104600000Y-83460000D02*
X104600000Y-73300000D01*
X182700000Y-74380000D02*
X192860000Y-74380000D01*
X182700000Y-66760000D02*
X182700000Y-74380000D01*
X192860000Y-66760000D02*
X182700000Y-66760000D01*
X192860000Y-74380000D02*
X192860000Y-66760000D01*
X192860000Y-73110000D02*
X182700000Y-73110000D01*
X169680000Y-73110000D02*
X159520000Y-73110000D01*
X169680000Y-74380000D02*
X169680000Y-66760000D01*
X169680000Y-66760000D02*
X159520000Y-66760000D01*
X159520000Y-66760000D02*
X159520000Y-74380000D01*
X159520000Y-74380000D02*
X169680000Y-74380000D01*
X139630000Y-82435001D02*
X142290000Y-82435001D01*
X139630000Y-82435001D02*
X139630000Y-130755001D01*
X139630000Y-130755001D02*
X142290000Y-130755001D01*
X142290000Y-82435001D02*
X142290000Y-130755001D01*
X142290000Y-79835001D02*
X142290000Y-81165001D01*
X140960000Y-79835001D02*
X142290000Y-79835001D01*
X156605001Y-79835001D02*
X157935001Y-79835001D01*
X157935001Y-79835001D02*
X157935001Y-81165001D01*
X157935001Y-82435001D02*
X157935001Y-130755001D01*
X155275001Y-130755001D02*
X157935001Y-130755001D01*
X155275001Y-82435001D02*
X155275001Y-130755001D01*
X155275001Y-82435001D02*
X157935001Y-82435001D01*
X190575000Y-134772936D02*
X190575000Y-135227064D01*
X192045000Y-134772936D02*
X192045000Y-135227064D01*
X186610000Y-128600000D02*
X186610000Y-131320000D01*
X186610000Y-138180000D02*
X186610000Y-140900000D01*
X174310000Y-136320000D02*
X174310000Y-133180000D01*
X174310000Y-140900000D02*
X174310000Y-138180000D01*
X185139050Y-134790000D02*
G75*
G03*
X185139050Y-134790000I-4579050J0D01*
G01*
X174310000Y-131320000D02*
X174310000Y-128600000D01*
X186610000Y-140900000D02*
X174310000Y-140900000D01*
X186610000Y-133180000D02*
X186610000Y-136320000D01*
X174310000Y-128600000D02*
X186610000Y-128600000D01*
X176175000Y-112905000D02*
X179625000Y-112905000D01*
X176175000Y-112905000D02*
X174225000Y-112905000D01*
X176175000Y-107785000D02*
X178125000Y-107785000D01*
X176175000Y-107785000D02*
X174225000Y-107785000D01*
X171040000Y-97950000D02*
X171040000Y-96620000D01*
X171040000Y-96620000D02*
X172370000Y-96620000D01*
X173640000Y-96620000D02*
X181320000Y-96620000D01*
X181320000Y-99280000D02*
X181320000Y-96620000D01*
X173640000Y-99280000D02*
X181320000Y-99280000D01*
X173640000Y-99280000D02*
X173640000Y-96620000D01*
X142080000Y-141070000D02*
X142080000Y-138410000D01*
X134400000Y-141070000D02*
X142080000Y-141070000D01*
X134400000Y-138410000D02*
X142080000Y-138410000D01*
X134400000Y-141070000D02*
X134400000Y-138410000D01*
X133130000Y-141070000D02*
X131800000Y-141070000D01*
X131800000Y-141070000D02*
X131800000Y-139740000D01*
X181280000Y-73110000D02*
X171120000Y-73110000D01*
X181280000Y-74380000D02*
X181280000Y-66760000D01*
X181280000Y-66760000D02*
X171120000Y-66760000D01*
X171120000Y-66760000D02*
X171120000Y-74380000D01*
X171120000Y-74380000D02*
X181280000Y-74380000D01*
X175756248Y-104485000D02*
X176278752Y-104485000D01*
X175756248Y-105955000D02*
X176278752Y-105955000D01*
X137902936Y-136550000D02*
X139357064Y-136550000D01*
X137902936Y-134730000D02*
X139357064Y-134730000D01*
X137957064Y-133650000D02*
X136502936Y-133650000D01*
X137957064Y-131830000D02*
X136502936Y-131830000D01*
X128365000Y-121644775D02*
X128365000Y-121144775D01*
X128115000Y-121394775D02*
X128615000Y-121394775D01*
X128780000Y-116444003D02*
G75*
G03*
X128780000Y-121235997I1060000J-2395997D01*
G01*
X130900000Y-116444003D02*
G75*
G02*
X130900000Y-121235997I-1060000J-2395997D01*
G01*
X119075000Y-134950251D02*
X119075000Y-135550251D01*
X119375000Y-135250251D02*
X118775000Y-135250251D01*
X118380000Y-141224417D02*
G75*
G03*
X118380000Y-135355584I-1060000J2934417D01*
G01*
X116260000Y-141224417D02*
G75*
G02*
X116260000Y-135355584I1060000J2934417D01*
G01*
X125475000Y-137896248D02*
X125475000Y-138418752D01*
X124005000Y-137896248D02*
X124005000Y-138418752D01*
X131270000Y-130820000D02*
X131270000Y-128160000D01*
X128670000Y-130820000D02*
X131270000Y-130820000D01*
X128670000Y-128160000D02*
X131270000Y-128160000D01*
X128670000Y-130820000D02*
X128670000Y-128160000D01*
X127400000Y-130820000D02*
X126070000Y-130820000D01*
X126070000Y-130820000D02*
X126070000Y-129490000D01*
X133710000Y-77750000D02*
X113510000Y-77750000D01*
X113510000Y-77750000D02*
X113510000Y-111950000D01*
X113510000Y-111950000D02*
X133710000Y-111950000D01*
X133710000Y-111950000D02*
X133710000Y-77750000D01*
X127110000Y-77360000D02*
X125100000Y-77360000D01*
D21*
X129320000Y-71910000D02*
X117320000Y-71910000D01*
X129320000Y-75810000D02*
X117320000Y-75810000D01*
X117320000Y-75810000D02*
X117320000Y-71910000D01*
X129320000Y-75810000D02*
X129320000Y-71910000D01*
D14*
X116320000Y-125640000D02*
X116320000Y-126900000D01*
X116320000Y-132460000D02*
X116320000Y-131200000D01*
X120080000Y-125640000D02*
X116320000Y-125640000D01*
X122330000Y-132460000D02*
X116320000Y-132460000D01*
X134120000Y-69900000D02*
X112720000Y-69900000D01*
X134120000Y-69900000D02*
X134120000Y-64400000D01*
X112720000Y-64400000D02*
X112720000Y-69900000D01*
X112720000Y-64400000D02*
X134120000Y-64400000D01*
X124280000Y-118720000D02*
G75*
G03*
X124280000Y-118720000I-5120000J0D01*
G01*
X114080000Y-118720000D02*
X124240000Y-118720000D01*
X114080000Y-118680000D02*
X124240000Y-118680000D01*
X114080000Y-118640000D02*
X124240000Y-118640000D01*
X114081000Y-118600000D02*
X124239000Y-118600000D01*
X114082000Y-118560000D02*
X124238000Y-118560000D01*
X114083000Y-118520000D02*
X124237000Y-118520000D01*
X114085000Y-118480000D02*
X124235000Y-118480000D01*
X114087000Y-118440000D02*
X124233000Y-118440000D01*
X114090000Y-118400000D02*
X124230000Y-118400000D01*
X114092000Y-118360000D02*
X124228000Y-118360000D01*
X114095000Y-118320000D02*
X124225000Y-118320000D01*
X114098000Y-118280000D02*
X124222000Y-118280000D01*
X114102000Y-118240000D02*
X124218000Y-118240000D01*
X114106000Y-118200000D02*
X124214000Y-118200000D01*
X114110000Y-118160000D02*
X124210000Y-118160000D01*
X114115000Y-118120000D02*
X124205000Y-118120000D01*
X114120000Y-118080000D02*
X124200000Y-118080000D01*
X114125000Y-118040000D02*
X124195000Y-118040000D01*
X114130000Y-117999000D02*
X124190000Y-117999000D01*
X114136000Y-117959000D02*
X124184000Y-117959000D01*
X114142000Y-117919000D02*
X124178000Y-117919000D01*
X114149000Y-117879000D02*
X124171000Y-117879000D01*
X114156000Y-117839000D02*
X124164000Y-117839000D01*
X114163000Y-117799000D02*
X124157000Y-117799000D01*
X114170000Y-117759000D02*
X124150000Y-117759000D01*
X114178000Y-117719000D02*
X124142000Y-117719000D01*
X114186000Y-117679000D02*
X124134000Y-117679000D01*
X114195000Y-117639000D02*
X124125000Y-117639000D01*
X114204000Y-117599000D02*
X124116000Y-117599000D01*
X114213000Y-117559000D02*
X124107000Y-117559000D01*
X114222000Y-117519000D02*
X124098000Y-117519000D01*
X114232000Y-117479000D02*
X124088000Y-117479000D01*
X114242000Y-117439000D02*
X117919000Y-117439000D01*
X120401000Y-117439000D02*
X124078000Y-117439000D01*
X114253000Y-117399000D02*
X117919000Y-117399000D01*
X120401000Y-117399000D02*
X124067000Y-117399000D01*
X114263000Y-117359000D02*
X117919000Y-117359000D01*
X120401000Y-117359000D02*
X124057000Y-117359000D01*
X114275000Y-117319000D02*
X117919000Y-117319000D01*
X120401000Y-117319000D02*
X124045000Y-117319000D01*
X114286000Y-117279000D02*
X117919000Y-117279000D01*
X120401000Y-117279000D02*
X124034000Y-117279000D01*
X114298000Y-117239000D02*
X117919000Y-117239000D01*
X120401000Y-117239000D02*
X124022000Y-117239000D01*
X114310000Y-117199000D02*
X117919000Y-117199000D01*
X120401000Y-117199000D02*
X124010000Y-117199000D01*
X114323000Y-117159000D02*
X117919000Y-117159000D01*
X120401000Y-117159000D02*
X123997000Y-117159000D01*
X114336000Y-117119000D02*
X117919000Y-117119000D01*
X120401000Y-117119000D02*
X123984000Y-117119000D01*
X114349000Y-117079000D02*
X117919000Y-117079000D01*
X120401000Y-117079000D02*
X123971000Y-117079000D01*
X114363000Y-117039000D02*
X117919000Y-117039000D01*
X120401000Y-117039000D02*
X123957000Y-117039000D01*
X114377000Y-116999000D02*
X117919000Y-116999000D01*
X120401000Y-116999000D02*
X123943000Y-116999000D01*
X114392000Y-116959000D02*
X117919000Y-116959000D01*
X120401000Y-116959000D02*
X123928000Y-116959000D01*
X114406000Y-116919000D02*
X117919000Y-116919000D01*
X120401000Y-116919000D02*
X123914000Y-116919000D01*
X114422000Y-116879000D02*
X117919000Y-116879000D01*
X120401000Y-116879000D02*
X123898000Y-116879000D01*
X114437000Y-116839000D02*
X117919000Y-116839000D01*
X120401000Y-116839000D02*
X123883000Y-116839000D01*
X114453000Y-116799000D02*
X117919000Y-116799000D01*
X120401000Y-116799000D02*
X123867000Y-116799000D01*
X114470000Y-116759000D02*
X117919000Y-116759000D01*
X120401000Y-116759000D02*
X123850000Y-116759000D01*
X114486000Y-116719000D02*
X117919000Y-116719000D01*
X120401000Y-116719000D02*
X123834000Y-116719000D01*
X114503000Y-116679000D02*
X117919000Y-116679000D01*
X120401000Y-116679000D02*
X123817000Y-116679000D01*
X114521000Y-116639000D02*
X117919000Y-116639000D01*
X120401000Y-116639000D02*
X123799000Y-116639000D01*
X114539000Y-116599000D02*
X117919000Y-116599000D01*
X120401000Y-116599000D02*
X123781000Y-116599000D01*
X114557000Y-116559000D02*
X117919000Y-116559000D01*
X120401000Y-116559000D02*
X123763000Y-116559000D01*
X114576000Y-116519000D02*
X117919000Y-116519000D01*
X120401000Y-116519000D02*
X123744000Y-116519000D01*
X114596000Y-116479000D02*
X117919000Y-116479000D01*
X120401000Y-116479000D02*
X123724000Y-116479000D01*
X114615000Y-116439000D02*
X117919000Y-116439000D01*
X120401000Y-116439000D02*
X123705000Y-116439000D01*
X114635000Y-116399000D02*
X117919000Y-116399000D01*
X120401000Y-116399000D02*
X123685000Y-116399000D01*
X114656000Y-116359000D02*
X117919000Y-116359000D01*
X120401000Y-116359000D02*
X123664000Y-116359000D01*
X114677000Y-116319000D02*
X117919000Y-116319000D01*
X120401000Y-116319000D02*
X123643000Y-116319000D01*
X114698000Y-116279000D02*
X117919000Y-116279000D01*
X120401000Y-116279000D02*
X123622000Y-116279000D01*
X114720000Y-116239000D02*
X117919000Y-116239000D01*
X120401000Y-116239000D02*
X123600000Y-116239000D01*
X114743000Y-116199000D02*
X117919000Y-116199000D01*
X120401000Y-116199000D02*
X123577000Y-116199000D01*
X114765000Y-116159000D02*
X117919000Y-116159000D01*
X120401000Y-116159000D02*
X123555000Y-116159000D01*
X114789000Y-116119000D02*
X117919000Y-116119000D01*
X120401000Y-116119000D02*
X123531000Y-116119000D01*
X114813000Y-116079000D02*
X117919000Y-116079000D01*
X120401000Y-116079000D02*
X123507000Y-116079000D01*
X114837000Y-116039000D02*
X117919000Y-116039000D01*
X120401000Y-116039000D02*
X123483000Y-116039000D01*
X114862000Y-115999000D02*
X117919000Y-115999000D01*
X120401000Y-115999000D02*
X123458000Y-115999000D01*
X114887000Y-115959000D02*
X117919000Y-115959000D01*
X120401000Y-115959000D02*
X123433000Y-115959000D01*
X114913000Y-115919000D02*
X117919000Y-115919000D01*
X120401000Y-115919000D02*
X123407000Y-115919000D01*
X114939000Y-115879000D02*
X117919000Y-115879000D01*
X120401000Y-115879000D02*
X123381000Y-115879000D01*
X114966000Y-115839000D02*
X117919000Y-115839000D01*
X120401000Y-115839000D02*
X123354000Y-115839000D01*
X114994000Y-115799000D02*
X117919000Y-115799000D01*
X120401000Y-115799000D02*
X123326000Y-115799000D01*
X115022000Y-115759000D02*
X117919000Y-115759000D01*
X120401000Y-115759000D02*
X123298000Y-115759000D01*
X115050000Y-115719000D02*
X117919000Y-115719000D01*
X120401000Y-115719000D02*
X123270000Y-115719000D01*
X115080000Y-115679000D02*
X117919000Y-115679000D01*
X120401000Y-115679000D02*
X123240000Y-115679000D01*
X115110000Y-115639000D02*
X117919000Y-115639000D01*
X120401000Y-115639000D02*
X123210000Y-115639000D01*
X115140000Y-115599000D02*
X117919000Y-115599000D01*
X120401000Y-115599000D02*
X123180000Y-115599000D01*
X115171000Y-115559000D02*
X117919000Y-115559000D01*
X120401000Y-115559000D02*
X123149000Y-115559000D01*
X115203000Y-115519000D02*
X117919000Y-115519000D01*
X120401000Y-115519000D02*
X123117000Y-115519000D01*
X115235000Y-115479000D02*
X117919000Y-115479000D01*
X120401000Y-115479000D02*
X123085000Y-115479000D01*
X115268000Y-115439000D02*
X117919000Y-115439000D01*
X120401000Y-115439000D02*
X123052000Y-115439000D01*
X115302000Y-115399000D02*
X117919000Y-115399000D01*
X120401000Y-115399000D02*
X123018000Y-115399000D01*
X115336000Y-115359000D02*
X117919000Y-115359000D01*
X120401000Y-115359000D02*
X122984000Y-115359000D01*
X115371000Y-115319000D02*
X117919000Y-115319000D01*
X120401000Y-115319000D02*
X122949000Y-115319000D01*
X115407000Y-115279000D02*
X117919000Y-115279000D01*
X120401000Y-115279000D02*
X122913000Y-115279000D01*
X115444000Y-115239000D02*
X117919000Y-115239000D01*
X120401000Y-115239000D02*
X122876000Y-115239000D01*
X115481000Y-115199000D02*
X117919000Y-115199000D01*
X120401000Y-115199000D02*
X122839000Y-115199000D01*
X115520000Y-115159000D02*
X117919000Y-115159000D01*
X120401000Y-115159000D02*
X122800000Y-115159000D01*
X115559000Y-115119000D02*
X117919000Y-115119000D01*
X120401000Y-115119000D02*
X122761000Y-115119000D01*
X115599000Y-115079000D02*
X117919000Y-115079000D01*
X120401000Y-115079000D02*
X122721000Y-115079000D01*
X115640000Y-115039000D02*
X117919000Y-115039000D01*
X120401000Y-115039000D02*
X122680000Y-115039000D01*
X115682000Y-114999000D02*
X117919000Y-114999000D01*
X120401000Y-114999000D02*
X122638000Y-114999000D01*
X115724000Y-114959000D02*
X122596000Y-114959000D01*
X115768000Y-114919000D02*
X122552000Y-114919000D01*
X115813000Y-114879000D02*
X122507000Y-114879000D01*
X115859000Y-114839000D02*
X122461000Y-114839000D01*
X115906000Y-114799000D02*
X122414000Y-114799000D01*
X115954000Y-114759000D02*
X122366000Y-114759000D01*
X116004000Y-114719000D02*
X122316000Y-114719000D01*
X116054000Y-114679000D02*
X122266000Y-114679000D01*
X116106000Y-114639000D02*
X122214000Y-114639000D01*
X116160000Y-114599000D02*
X122160000Y-114599000D01*
X116215000Y-114559000D02*
X122105000Y-114559000D01*
X116271000Y-114519000D02*
X122049000Y-114519000D01*
X116330000Y-114479000D02*
X121990000Y-114479000D01*
X116390000Y-114439000D02*
X121930000Y-114439000D01*
X116451000Y-114399000D02*
X121869000Y-114399000D01*
X116515000Y-114359000D02*
X121805000Y-114359000D01*
X116581000Y-114319000D02*
X121739000Y-114319000D01*
X116650000Y-114279000D02*
X121670000Y-114279000D01*
X116721000Y-114239000D02*
X121599000Y-114239000D01*
X116795000Y-114199000D02*
X121525000Y-114199000D01*
X116871000Y-114159000D02*
X121449000Y-114159000D01*
X116951000Y-114119000D02*
X121369000Y-114119000D01*
X117035000Y-114079000D02*
X121285000Y-114079000D01*
X117123000Y-114039000D02*
X121197000Y-114039000D01*
X117216000Y-113999000D02*
X121104000Y-113999000D01*
X117314000Y-113959000D02*
X121006000Y-113959000D01*
X117418000Y-113919000D02*
X120902000Y-113919000D01*
X117530000Y-113879000D02*
X120790000Y-113879000D01*
X117650000Y-113839000D02*
X120670000Y-113839000D01*
X117782000Y-113799000D02*
X120538000Y-113799000D01*
X117930000Y-113759000D02*
X120390000Y-113759000D01*
X118098000Y-113719000D02*
X120222000Y-113719000D01*
X118298000Y-113679000D02*
X120022000Y-113679000D01*
X118561000Y-113639000D02*
X119759000Y-113639000D01*
X116285000Y-124199646D02*
X116285000Y-123199646D01*
X115785000Y-123699646D02*
X116785000Y-123699646D01*
X152785000Y-72400000D02*
X152785000Y-72865000D01*
X152785000Y-69775000D02*
X152785000Y-70240000D01*
X158132815Y-70239173D02*
G75*
G03*
X152785000Y-69775170I-2787815J-1080827D01*
G01*
X158132815Y-72400827D02*
G75*
G02*
X152785000Y-72864830I-2787815J1080827D01*
G01*
X157599479Y-70239571D02*
G75*
G03*
X153090316Y-70240000I-2254479J-1080429D01*
G01*
X157599479Y-72400429D02*
G75*
G02*
X153090316Y-72400000I-2254479J1080429D01*
G01*
X145405000Y-78342936D02*
X145405000Y-78797064D01*
X146875000Y-78342936D02*
X146875000Y-78797064D01*
X148405000Y-80797064D02*
X148405000Y-80342936D01*
X149875000Y-80797064D02*
X149875000Y-80342936D01*
X152875000Y-82797064D02*
X152875000Y-82342936D01*
X151405000Y-82797064D02*
X151405000Y-82342936D01*
X178050000Y-92392936D02*
X178050000Y-93847064D01*
X176230000Y-92392936D02*
X176230000Y-93847064D01*
X179430000Y-92392936D02*
X179430000Y-93847064D01*
X181250000Y-92392936D02*
X181250000Y-93847064D01*
X193890000Y-90420000D02*
X193060000Y-90420000D01*
X191440000Y-90420000D02*
X190910000Y-90420000D01*
X188540000Y-90420000D02*
X187360000Y-90420000D01*
X197100000Y-90420000D02*
X197100000Y-85700000D01*
X187360000Y-81890000D02*
X187360000Y-78830000D01*
X187350000Y-90420000D02*
X187350000Y-85700000D01*
X197100000Y-81890000D02*
X197100000Y-78830000D01*
X197100000Y-90420000D02*
X195610000Y-90420000D01*
X197100000Y-78830000D02*
X187360000Y-78830000D01*
X155200000Y-141070000D02*
X155200000Y-139740000D01*
X156530000Y-141070000D02*
X155200000Y-141070000D01*
X157800000Y-141070000D02*
X157800000Y-138410000D01*
X157800000Y-138410000D02*
X170560000Y-138410000D01*
X157800000Y-141070000D02*
X170560000Y-141070000D01*
X170560000Y-141070000D02*
X170560000Y-138410000D01*
X108810000Y-117240000D02*
X110140000Y-117240000D01*
X108810000Y-118570000D02*
X108810000Y-117240000D01*
X108810000Y-119840000D02*
X111470000Y-119840000D01*
X111470000Y-119840000D02*
X111470000Y-119900000D01*
X108810000Y-119840000D02*
X108810000Y-119900000D01*
X108810000Y-119900000D02*
X111470000Y-119900000D01*
D11*
X112236666Y-74222380D02*
X112236666Y-74936666D01*
X112189047Y-75079523D01*
X112093809Y-75174761D01*
X111950952Y-75222380D01*
X111855714Y-75222380D01*
X112617619Y-74222380D02*
X113236666Y-74222380D01*
X112903333Y-74603333D01*
X113046190Y-74603333D01*
X113141428Y-74650952D01*
X113189047Y-74698571D01*
X113236666Y-74793809D01*
X113236666Y-75031904D01*
X113189047Y-75127142D01*
X113141428Y-75174761D01*
X113046190Y-75222380D01*
X112760476Y-75222380D01*
X112665238Y-75174761D01*
X112617619Y-75127142D01*
X165168095Y-94702380D02*
X165168095Y-93702380D01*
X165168095Y-94178571D02*
X165739523Y-94178571D01*
X165739523Y-94702380D02*
X165739523Y-93702380D01*
X166691904Y-93702380D02*
X166215714Y-93702380D01*
X166168095Y-94178571D01*
X166215714Y-94130952D01*
X166310952Y-94083333D01*
X166549047Y-94083333D01*
X166644285Y-94130952D01*
X166691904Y-94178571D01*
X166739523Y-94273809D01*
X166739523Y-94511904D01*
X166691904Y-94607142D01*
X166644285Y-94654761D01*
X166549047Y-94702380D01*
X166310952Y-94702380D01*
X166215714Y-94654761D01*
X166168095Y-94607142D01*
X185668095Y-94692380D02*
X185668095Y-93692380D01*
X185668095Y-94168571D02*
X186239523Y-94168571D01*
X186239523Y-94692380D02*
X186239523Y-93692380D01*
X187144285Y-93692380D02*
X186953809Y-93692380D01*
X186858571Y-93740000D01*
X186810952Y-93787619D01*
X186715714Y-93930476D01*
X186668095Y-94120952D01*
X186668095Y-94501904D01*
X186715714Y-94597142D01*
X186763333Y-94644761D01*
X186858571Y-94692380D01*
X187049047Y-94692380D01*
X187144285Y-94644761D01*
X187191904Y-94597142D01*
X187239523Y-94501904D01*
X187239523Y-94263809D01*
X187191904Y-94168571D01*
X187144285Y-94120952D01*
X187049047Y-94073333D01*
X186858571Y-94073333D01*
X186763333Y-94120952D01*
X186715714Y-94168571D01*
X186668095Y-94263809D01*
X165168095Y-117706380D02*
X165168095Y-116706380D01*
X165168095Y-117182571D02*
X165739523Y-117182571D01*
X165739523Y-117706380D02*
X165739523Y-116706380D01*
X166120476Y-116706380D02*
X166787142Y-116706380D01*
X166358571Y-117706380D01*
X185668095Y-117692380D02*
X185668095Y-116692380D01*
X185668095Y-117168571D02*
X186239523Y-117168571D01*
X186239523Y-117692380D02*
X186239523Y-116692380D01*
X186858571Y-117120952D02*
X186763333Y-117073333D01*
X186715714Y-117025714D01*
X186668095Y-116930476D01*
X186668095Y-116882857D01*
X186715714Y-116787619D01*
X186763333Y-116740000D01*
X186858571Y-116692380D01*
X187049047Y-116692380D01*
X187144285Y-116740000D01*
X187191904Y-116787619D01*
X187239523Y-116882857D01*
X187239523Y-116930476D01*
X187191904Y-117025714D01*
X187144285Y-117073333D01*
X187049047Y-117120952D01*
X186858571Y-117120952D01*
X186763333Y-117168571D01*
X186715714Y-117216190D01*
X186668095Y-117311428D01*
X186668095Y-117501904D01*
X186715714Y-117597142D01*
X186763333Y-117644761D01*
X186858571Y-117692380D01*
X187049047Y-117692380D01*
X187144285Y-117644761D01*
X187191904Y-117597142D01*
X187239523Y-117501904D01*
X187239523Y-117311428D01*
X187191904Y-117216190D01*
X187144285Y-117168571D01*
X187049047Y-117120952D01*
X191406666Y-75272380D02*
X191406666Y-75986666D01*
X191359047Y-76129523D01*
X191263809Y-76224761D01*
X191120952Y-76272380D01*
X191025714Y-76272380D01*
X192311428Y-75272380D02*
X192120952Y-75272380D01*
X192025714Y-75320000D01*
X191978095Y-75367619D01*
X191882857Y-75510476D01*
X191835238Y-75700952D01*
X191835238Y-76081904D01*
X191882857Y-76177142D01*
X191930476Y-76224761D01*
X192025714Y-76272380D01*
X192216190Y-76272380D01*
X192311428Y-76224761D01*
X192359047Y-76177142D01*
X192406666Y-76081904D01*
X192406666Y-75843809D01*
X192359047Y-75748571D01*
X192311428Y-75700952D01*
X192216190Y-75653333D01*
X192025714Y-75653333D01*
X191930476Y-75700952D01*
X191882857Y-75748571D01*
X191835238Y-75843809D01*
X168506666Y-75272380D02*
X168506666Y-75986666D01*
X168459047Y-76129523D01*
X168363809Y-76224761D01*
X168220952Y-76272380D01*
X168125714Y-76272380D01*
X169411428Y-75605714D02*
X169411428Y-76272380D01*
X169173333Y-75224761D02*
X168935238Y-75939047D01*
X169554285Y-75939047D01*
X140626666Y-77847381D02*
X140626666Y-78561667D01*
X140579047Y-78704524D01*
X140483809Y-78799762D01*
X140340952Y-78847381D01*
X140245714Y-78847381D01*
X141626666Y-78847381D02*
X141055238Y-78847381D01*
X141340952Y-78847381D02*
X141340952Y-77847381D01*
X141245714Y-77990239D01*
X141150476Y-78085477D01*
X141055238Y-78133096D01*
X156271667Y-77847381D02*
X156271667Y-78561667D01*
X156224048Y-78704524D01*
X156128810Y-78799762D01*
X155985953Y-78847381D01*
X155890715Y-78847381D01*
X156700239Y-77942620D02*
X156747858Y-77895001D01*
X156843096Y-77847381D01*
X157081191Y-77847381D01*
X157176429Y-77895001D01*
X157224048Y-77942620D01*
X157271667Y-78037858D01*
X157271667Y-78133096D01*
X157224048Y-78275953D01*
X156652620Y-78847381D01*
X157271667Y-78847381D01*
X193273333Y-136522380D02*
X192940000Y-136046190D01*
X192701904Y-136522380D02*
X192701904Y-135522380D01*
X193082857Y-135522380D01*
X193178095Y-135570000D01*
X193225714Y-135617619D01*
X193273333Y-135712857D01*
X193273333Y-135855714D01*
X193225714Y-135950952D01*
X193178095Y-135998571D01*
X193082857Y-136046190D01*
X192701904Y-136046190D01*
X194225714Y-136522380D02*
X193654285Y-136522380D01*
X193940000Y-136522380D02*
X193940000Y-135522380D01*
X193844761Y-135665238D01*
X193749523Y-135760476D01*
X193654285Y-135808095D01*
X178956666Y-127599761D02*
X179099523Y-127647380D01*
X179337619Y-127647380D01*
X179432857Y-127599761D01*
X179480476Y-127552142D01*
X179528095Y-127456904D01*
X179528095Y-127361666D01*
X179480476Y-127266428D01*
X179432857Y-127218809D01*
X179337619Y-127171190D01*
X179147142Y-127123571D01*
X179051904Y-127075952D01*
X179004285Y-127028333D01*
X178956666Y-126933095D01*
X178956666Y-126837857D01*
X179004285Y-126742619D01*
X179051904Y-126695000D01*
X179147142Y-126647380D01*
X179385238Y-126647380D01*
X179528095Y-126695000D01*
X179861428Y-126647380D02*
X180099523Y-127647380D01*
X180290000Y-126933095D01*
X180480476Y-127647380D01*
X180718571Y-126647380D01*
X181623333Y-127647380D02*
X181051904Y-127647380D01*
X181337619Y-127647380D02*
X181337619Y-126647380D01*
X181242380Y-126790238D01*
X181147142Y-126885476D01*
X181051904Y-126933095D01*
X175413095Y-113522380D02*
X175413095Y-114331904D01*
X175460714Y-114427142D01*
X175508333Y-114474761D01*
X175603571Y-114522380D01*
X175794047Y-114522380D01*
X175889285Y-114474761D01*
X175936904Y-114427142D01*
X175984523Y-114331904D01*
X175984523Y-113522380D01*
X176984523Y-114522380D02*
X176413095Y-114522380D01*
X176698809Y-114522380D02*
X176698809Y-113522380D01*
X176603571Y-113665238D01*
X176508333Y-113760476D01*
X176413095Y-113808095D01*
X168658095Y-97442380D02*
X168658095Y-98251904D01*
X168705714Y-98347142D01*
X168753333Y-98394761D01*
X168848571Y-98442380D01*
X169039047Y-98442380D01*
X169134285Y-98394761D01*
X169181904Y-98347142D01*
X169229523Y-98251904D01*
X169229523Y-97442380D01*
X169658095Y-97537619D02*
X169705714Y-97490000D01*
X169800952Y-97442380D01*
X170039047Y-97442380D01*
X170134285Y-97490000D01*
X170181904Y-97537619D01*
X170229523Y-97632857D01*
X170229523Y-97728095D01*
X170181904Y-97870952D01*
X169610476Y-98442380D01*
X170229523Y-98442380D01*
X129846666Y-140252380D02*
X129846666Y-140966666D01*
X129799047Y-141109523D01*
X129703809Y-141204761D01*
X129560952Y-141252380D01*
X129465714Y-141252380D01*
X130227619Y-140252380D02*
X130894285Y-140252380D01*
X130465714Y-141252380D01*
X179906666Y-75272380D02*
X179906666Y-75986666D01*
X179859047Y-76129523D01*
X179763809Y-76224761D01*
X179620952Y-76272380D01*
X179525714Y-76272380D01*
X180859047Y-75272380D02*
X180382857Y-75272380D01*
X180335238Y-75748571D01*
X180382857Y-75700952D01*
X180478095Y-75653333D01*
X180716190Y-75653333D01*
X180811428Y-75700952D01*
X180859047Y-75748571D01*
X180906666Y-75843809D01*
X180906666Y-76081904D01*
X180859047Y-76177142D01*
X180811428Y-76224761D01*
X180716190Y-76272380D01*
X180478095Y-76272380D01*
X180382857Y-76224761D01*
X180335238Y-76177142D01*
X179273333Y-105627142D02*
X179225714Y-105674761D01*
X179082857Y-105722380D01*
X178987619Y-105722380D01*
X178844761Y-105674761D01*
X178749523Y-105579523D01*
X178701904Y-105484285D01*
X178654285Y-105293809D01*
X178654285Y-105150952D01*
X178701904Y-104960476D01*
X178749523Y-104865238D01*
X178844761Y-104770000D01*
X178987619Y-104722380D01*
X179082857Y-104722380D01*
X179225714Y-104770000D01*
X179273333Y-104817619D01*
X180178095Y-104722380D02*
X179701904Y-104722380D01*
X179654285Y-105198571D01*
X179701904Y-105150952D01*
X179797142Y-105103333D01*
X180035238Y-105103333D01*
X180130476Y-105150952D01*
X180178095Y-105198571D01*
X180225714Y-105293809D01*
X180225714Y-105531904D01*
X180178095Y-105627142D01*
X180130476Y-105674761D01*
X180035238Y-105722380D01*
X179797142Y-105722380D01*
X179701904Y-105674761D01*
X179654285Y-105627142D01*
X141973333Y-136022380D02*
X141640000Y-135546190D01*
X141401904Y-136022380D02*
X141401904Y-135022380D01*
X141782857Y-135022380D01*
X141878095Y-135070000D01*
X141925714Y-135117619D01*
X141973333Y-135212857D01*
X141973333Y-135355714D01*
X141925714Y-135450952D01*
X141878095Y-135498571D01*
X141782857Y-135546190D01*
X141401904Y-135546190D01*
X142354285Y-135117619D02*
X142401904Y-135070000D01*
X142497142Y-135022380D01*
X142735238Y-135022380D01*
X142830476Y-135070000D01*
X142878095Y-135117619D01*
X142925714Y-135212857D01*
X142925714Y-135308095D01*
X142878095Y-135450952D01*
X142306666Y-136022380D01*
X142925714Y-136022380D01*
X140973333Y-133022380D02*
X140640000Y-132546190D01*
X140401904Y-133022380D02*
X140401904Y-132022380D01*
X140782857Y-132022380D01*
X140878095Y-132070000D01*
X140925714Y-132117619D01*
X140973333Y-132212857D01*
X140973333Y-132355714D01*
X140925714Y-132450952D01*
X140878095Y-132498571D01*
X140782857Y-132546190D01*
X140401904Y-132546190D01*
X141306666Y-132022380D02*
X141925714Y-132022380D01*
X141592380Y-132403333D01*
X141735238Y-132403333D01*
X141830476Y-132450952D01*
X141878095Y-132498571D01*
X141925714Y-132593809D01*
X141925714Y-132831904D01*
X141878095Y-132927142D01*
X141830476Y-132974761D01*
X141735238Y-133022380D01*
X141449523Y-133022380D01*
X141354285Y-132974761D01*
X141306666Y-132927142D01*
X132973333Y-115677142D02*
X132925714Y-115724761D01*
X132782857Y-115772380D01*
X132687619Y-115772380D01*
X132544761Y-115724761D01*
X132449523Y-115629523D01*
X132401904Y-115534285D01*
X132354285Y-115343809D01*
X132354285Y-115200952D01*
X132401904Y-115010476D01*
X132449523Y-114915238D01*
X132544761Y-114820000D01*
X132687619Y-114772380D01*
X132782857Y-114772380D01*
X132925714Y-114820000D01*
X132973333Y-114867619D01*
X133354285Y-114867619D02*
X133401904Y-114820000D01*
X133497142Y-114772380D01*
X133735238Y-114772380D01*
X133830476Y-114820000D01*
X133878095Y-114867619D01*
X133925714Y-114962857D01*
X133925714Y-115058095D01*
X133878095Y-115200952D01*
X133306666Y-115772380D01*
X133925714Y-115772380D01*
X116773333Y-143527142D02*
X116725714Y-143574761D01*
X116582857Y-143622380D01*
X116487619Y-143622380D01*
X116344761Y-143574761D01*
X116249523Y-143479523D01*
X116201904Y-143384285D01*
X116154285Y-143193809D01*
X116154285Y-143050952D01*
X116201904Y-142860476D01*
X116249523Y-142765238D01*
X116344761Y-142670000D01*
X116487619Y-142622380D01*
X116582857Y-142622380D01*
X116725714Y-142670000D01*
X116773333Y-142717619D01*
X117106666Y-142622380D02*
X117725714Y-142622380D01*
X117392380Y-143003333D01*
X117535238Y-143003333D01*
X117630476Y-143050952D01*
X117678095Y-143098571D01*
X117725714Y-143193809D01*
X117725714Y-143431904D01*
X117678095Y-143527142D01*
X117630476Y-143574761D01*
X117535238Y-143622380D01*
X117249523Y-143622380D01*
X117154285Y-143574761D01*
X117106666Y-143527142D01*
X124673333Y-141427142D02*
X124625714Y-141474761D01*
X124482857Y-141522380D01*
X124387619Y-141522380D01*
X124244761Y-141474761D01*
X124149523Y-141379523D01*
X124101904Y-141284285D01*
X124054285Y-141093809D01*
X124054285Y-140950952D01*
X124101904Y-140760476D01*
X124149523Y-140665238D01*
X124244761Y-140570000D01*
X124387619Y-140522380D01*
X124482857Y-140522380D01*
X124625714Y-140570000D01*
X124673333Y-140617619D01*
X125530476Y-140855714D02*
X125530476Y-141522380D01*
X125292380Y-140474761D02*
X125054285Y-141189047D01*
X125673333Y-141189047D01*
X132806666Y-129022380D02*
X132806666Y-129736666D01*
X132759047Y-129879523D01*
X132663809Y-129974761D01*
X132520952Y-130022380D01*
X132425714Y-130022380D01*
X133425714Y-129450952D02*
X133330476Y-129403333D01*
X133282857Y-129355714D01*
X133235238Y-129260476D01*
X133235238Y-129212857D01*
X133282857Y-129117619D01*
X133330476Y-129070000D01*
X133425714Y-129022380D01*
X133616190Y-129022380D01*
X133711428Y-129070000D01*
X133759047Y-129117619D01*
X133806666Y-129212857D01*
X133806666Y-129260476D01*
X133759047Y-129355714D01*
X133711428Y-129403333D01*
X133616190Y-129450952D01*
X133425714Y-129450952D01*
X133330476Y-129498571D01*
X133282857Y-129546190D01*
X133235238Y-129641428D01*
X133235238Y-129831904D01*
X133282857Y-129927142D01*
X133330476Y-129974761D01*
X133425714Y-130022380D01*
X133616190Y-130022380D01*
X133711428Y-129974761D01*
X133759047Y-129927142D01*
X133806666Y-129831904D01*
X133806666Y-129641428D01*
X133759047Y-129546190D01*
X133711428Y-129498571D01*
X133616190Y-129450952D01*
X130925714Y-77022380D02*
X130925714Y-76022380D01*
X131306666Y-76022380D01*
X131401904Y-76070000D01*
X131449523Y-76117619D01*
X131497142Y-76212857D01*
X131497142Y-76355714D01*
X131449523Y-76450952D01*
X131401904Y-76498571D01*
X131306666Y-76546190D01*
X130925714Y-76546190D01*
X131878095Y-76974761D02*
X132020952Y-77022380D01*
X132259047Y-77022380D01*
X132354285Y-76974761D01*
X132401904Y-76927142D01*
X132449523Y-76831904D01*
X132449523Y-76736666D01*
X132401904Y-76641428D01*
X132354285Y-76593809D01*
X132259047Y-76546190D01*
X132068571Y-76498571D01*
X131973333Y-76450952D01*
X131925714Y-76403333D01*
X131878095Y-76308095D01*
X131878095Y-76212857D01*
X131925714Y-76117619D01*
X131973333Y-76070000D01*
X132068571Y-76022380D01*
X132306666Y-76022380D01*
X132449523Y-76070000D01*
X133401904Y-77022380D02*
X132830476Y-77022380D01*
X133116190Y-77022380D02*
X133116190Y-76022380D01*
X133020952Y-76165238D01*
X132925714Y-76260476D01*
X132830476Y-76308095D01*
X131544761Y-73022380D02*
X131211428Y-72546190D01*
X130973333Y-73022380D02*
X130973333Y-72022380D01*
X131354285Y-72022380D01*
X131449523Y-72070000D01*
X131497142Y-72117619D01*
X131544761Y-72212857D01*
X131544761Y-72355714D01*
X131497142Y-72450952D01*
X131449523Y-72498571D01*
X131354285Y-72546190D01*
X130973333Y-72546190D01*
X131830476Y-72022380D02*
X132163809Y-73022380D01*
X132497142Y-72022380D01*
X132782857Y-72117619D02*
X132830476Y-72070000D01*
X132925714Y-72022380D01*
X133163809Y-72022380D01*
X133259047Y-72070000D01*
X133306666Y-72117619D01*
X133354285Y-72212857D01*
X133354285Y-72308095D01*
X133306666Y-72450952D01*
X132735238Y-73022380D01*
X133354285Y-73022380D01*
X111578095Y-128522380D02*
X111578095Y-129331904D01*
X111625714Y-129427142D01*
X111673333Y-129474761D01*
X111768571Y-129522380D01*
X111959047Y-129522380D01*
X112054285Y-129474761D01*
X112101904Y-129427142D01*
X112149523Y-129331904D01*
X112149523Y-128522380D01*
X112530476Y-128522380D02*
X113149523Y-128522380D01*
X112816190Y-128903333D01*
X112959047Y-128903333D01*
X113054285Y-128950952D01*
X113101904Y-128998571D01*
X113149523Y-129093809D01*
X113149523Y-129331904D01*
X113101904Y-129427142D01*
X113054285Y-129474761D01*
X112959047Y-129522380D01*
X112673333Y-129522380D01*
X112578095Y-129474761D01*
X112530476Y-129427142D01*
X110806666Y-65498571D02*
X110473333Y-65498571D01*
X110473333Y-66022380D02*
X110473333Y-65022380D01*
X110949523Y-65022380D01*
X111854285Y-66022380D02*
X111282857Y-66022380D01*
X111568571Y-66022380D02*
X111568571Y-65022380D01*
X111473333Y-65165238D01*
X111378095Y-65260476D01*
X111282857Y-65308095D01*
X123793333Y-114607142D02*
X123745714Y-114654761D01*
X123602857Y-114702380D01*
X123507619Y-114702380D01*
X123364761Y-114654761D01*
X123269523Y-114559523D01*
X123221904Y-114464285D01*
X123174285Y-114273809D01*
X123174285Y-114130952D01*
X123221904Y-113940476D01*
X123269523Y-113845238D01*
X123364761Y-113750000D01*
X123507619Y-113702380D01*
X123602857Y-113702380D01*
X123745714Y-113750000D01*
X123793333Y-113797619D01*
X124745714Y-114702380D02*
X124174285Y-114702380D01*
X124460000Y-114702380D02*
X124460000Y-113702380D01*
X124364761Y-113845238D01*
X124269523Y-113940476D01*
X124174285Y-113988095D01*
X154606904Y-67812380D02*
X154606904Y-66812380D01*
X154845000Y-66812380D01*
X154987857Y-66860000D01*
X155083095Y-66955238D01*
X155130714Y-67050476D01*
X155178333Y-67240952D01*
X155178333Y-67383809D01*
X155130714Y-67574285D01*
X155083095Y-67669523D01*
X154987857Y-67764761D01*
X154845000Y-67812380D01*
X154606904Y-67812380D01*
X156130714Y-67812380D02*
X155559285Y-67812380D01*
X155845000Y-67812380D02*
X155845000Y-66812380D01*
X155749761Y-66955238D01*
X155654523Y-67050476D01*
X155559285Y-67098095D01*
X145973333Y-82022380D02*
X145640000Y-81546190D01*
X145401904Y-82022380D02*
X145401904Y-81022380D01*
X145782857Y-81022380D01*
X145878095Y-81070000D01*
X145925714Y-81117619D01*
X145973333Y-81212857D01*
X145973333Y-81355714D01*
X145925714Y-81450952D01*
X145878095Y-81498571D01*
X145782857Y-81546190D01*
X145401904Y-81546190D01*
X146830476Y-81355714D02*
X146830476Y-82022380D01*
X146592380Y-80974761D02*
X146354285Y-81689047D01*
X146973333Y-81689047D01*
X148973333Y-84022380D02*
X148640000Y-83546190D01*
X148401904Y-84022380D02*
X148401904Y-83022380D01*
X148782857Y-83022380D01*
X148878095Y-83070000D01*
X148925714Y-83117619D01*
X148973333Y-83212857D01*
X148973333Y-83355714D01*
X148925714Y-83450952D01*
X148878095Y-83498571D01*
X148782857Y-83546190D01*
X148401904Y-83546190D01*
X149878095Y-83022380D02*
X149401904Y-83022380D01*
X149354285Y-83498571D01*
X149401904Y-83450952D01*
X149497142Y-83403333D01*
X149735238Y-83403333D01*
X149830476Y-83450952D01*
X149878095Y-83498571D01*
X149925714Y-83593809D01*
X149925714Y-83831904D01*
X149878095Y-83927142D01*
X149830476Y-83974761D01*
X149735238Y-84022380D01*
X149497142Y-84022380D01*
X149401904Y-83974761D01*
X149354285Y-83927142D01*
X151973333Y-86022380D02*
X151640000Y-85546190D01*
X151401904Y-86022380D02*
X151401904Y-85022380D01*
X151782857Y-85022380D01*
X151878095Y-85070000D01*
X151925714Y-85117619D01*
X151973333Y-85212857D01*
X151973333Y-85355714D01*
X151925714Y-85450952D01*
X151878095Y-85498571D01*
X151782857Y-85546190D01*
X151401904Y-85546190D01*
X152830476Y-85022380D02*
X152640000Y-85022380D01*
X152544761Y-85070000D01*
X152497142Y-85117619D01*
X152401904Y-85260476D01*
X152354285Y-85450952D01*
X152354285Y-85831904D01*
X152401904Y-85927142D01*
X152449523Y-85974761D01*
X152544761Y-86022380D01*
X152735238Y-86022380D01*
X152830476Y-85974761D01*
X152878095Y-85927142D01*
X152925714Y-85831904D01*
X152925714Y-85593809D01*
X152878095Y-85498571D01*
X152830476Y-85450952D01*
X152735238Y-85403333D01*
X152544761Y-85403333D01*
X152449523Y-85450952D01*
X152401904Y-85498571D01*
X152354285Y-85593809D01*
X176883333Y-90022380D02*
X176550000Y-89546190D01*
X176311904Y-90022380D02*
X176311904Y-89022380D01*
X176692857Y-89022380D01*
X176788095Y-89070000D01*
X176835714Y-89117619D01*
X176883333Y-89212857D01*
X176883333Y-89355714D01*
X176835714Y-89450952D01*
X176788095Y-89498571D01*
X176692857Y-89546190D01*
X176311904Y-89546190D01*
X177216666Y-89022380D02*
X177883333Y-89022380D01*
X177454761Y-90022380D01*
X180083333Y-90002380D02*
X179750000Y-89526190D01*
X179511904Y-90002380D02*
X179511904Y-89002380D01*
X179892857Y-89002380D01*
X179988095Y-89050000D01*
X180035714Y-89097619D01*
X180083333Y-89192857D01*
X180083333Y-89335714D01*
X180035714Y-89430952D01*
X179988095Y-89478571D01*
X179892857Y-89526190D01*
X179511904Y-89526190D01*
X180654761Y-89430952D02*
X180559523Y-89383333D01*
X180511904Y-89335714D01*
X180464285Y-89240476D01*
X180464285Y-89192857D01*
X180511904Y-89097619D01*
X180559523Y-89050000D01*
X180654761Y-89002380D01*
X180845238Y-89002380D01*
X180940476Y-89050000D01*
X180988095Y-89097619D01*
X181035714Y-89192857D01*
X181035714Y-89240476D01*
X180988095Y-89335714D01*
X180940476Y-89383333D01*
X180845238Y-89430952D01*
X180654761Y-89430952D01*
X180559523Y-89478571D01*
X180511904Y-89526190D01*
X180464285Y-89621428D01*
X180464285Y-89811904D01*
X180511904Y-89907142D01*
X180559523Y-89954761D01*
X180654761Y-90002380D01*
X180845238Y-90002380D01*
X180940476Y-89954761D01*
X180988095Y-89907142D01*
X181035714Y-89811904D01*
X181035714Y-89621428D01*
X180988095Y-89526190D01*
X180940476Y-89478571D01*
X180845238Y-89430952D01*
X196004761Y-77922380D02*
X195671428Y-77446190D01*
X195433333Y-77922380D02*
X195433333Y-76922380D01*
X195814285Y-76922380D01*
X195909523Y-76970000D01*
X195957142Y-77017619D01*
X196004761Y-77112857D01*
X196004761Y-77255714D01*
X195957142Y-77350952D01*
X195909523Y-77398571D01*
X195814285Y-77446190D01*
X195433333Y-77446190D01*
X196290476Y-76922380D02*
X196623809Y-77922380D01*
X196957142Y-76922380D01*
X197814285Y-77922380D02*
X197242857Y-77922380D01*
X197528571Y-77922380D02*
X197528571Y-76922380D01*
X197433333Y-77065238D01*
X197338095Y-77160476D01*
X197242857Y-77208095D01*
D21*
X153436666Y-140392380D02*
X153436666Y-141106666D01*
X153389047Y-141249523D01*
X153293809Y-141344761D01*
X153150952Y-141392380D01*
X153055714Y-141392380D01*
X153960476Y-141392380D02*
X154150952Y-141392380D01*
X154246190Y-141344761D01*
X154293809Y-141297142D01*
X154389047Y-141154285D01*
X154436666Y-140963809D01*
X154436666Y-140582857D01*
X154389047Y-140487619D01*
X154341428Y-140440000D01*
X154246190Y-140392380D01*
X154055714Y-140392380D01*
X153960476Y-140440000D01*
X153912857Y-140487619D01*
X153865238Y-140582857D01*
X153865238Y-140820952D01*
X153912857Y-140916190D01*
X153960476Y-140963809D01*
X154055714Y-141011428D01*
X154246190Y-141011428D01*
X154341428Y-140963809D01*
X154389047Y-140916190D01*
X154436666Y-140820952D01*
D11*
X109060476Y-115402380D02*
X109060476Y-116116666D01*
X109012857Y-116259523D01*
X108917619Y-116354761D01*
X108774761Y-116402380D01*
X108679523Y-116402380D01*
X110060476Y-116402380D02*
X109489047Y-116402380D01*
X109774761Y-116402380D02*
X109774761Y-115402380D01*
X109679523Y-115545238D01*
X109584285Y-115640476D01*
X109489047Y-115688095D01*
X110679523Y-115402380D02*
X110774761Y-115402380D01*
X110870000Y-115450000D01*
X110917619Y-115497619D01*
X110965238Y-115592857D01*
X111012857Y-115783333D01*
X111012857Y-116021428D01*
X110965238Y-116211904D01*
X110917619Y-116307142D01*
X110870000Y-116354761D01*
X110774761Y-116402380D01*
X110679523Y-116402380D01*
X110584285Y-116354761D01*
X110536666Y-116307142D01*
X110489047Y-116211904D01*
X110441428Y-116021428D01*
X110441428Y-115783333D01*
X110489047Y-115592857D01*
X110536666Y-115497619D01*
X110584285Y-115450000D01*
X110679523Y-115402380D01*
D21*
X196578095Y-71222380D02*
X196578095Y-70222380D01*
X196578095Y-70698571D02*
X197149523Y-70698571D01*
X197149523Y-71222380D02*
X197149523Y-70222380D01*
X197578095Y-70317619D02*
X197625714Y-70270000D01*
X197720952Y-70222380D01*
X197959047Y-70222380D01*
X198054285Y-70270000D01*
X198101904Y-70317619D01*
X198149523Y-70412857D01*
X198149523Y-70508095D01*
X198101904Y-70650952D01*
X197530476Y-71222380D01*
X198149523Y-71222380D01*
X105178095Y-137372380D02*
X105178095Y-136372380D01*
X105178095Y-136848571D02*
X105749523Y-136848571D01*
X105749523Y-137372380D02*
X105749523Y-136372380D01*
X106130476Y-136372380D02*
X106749523Y-136372380D01*
X106416190Y-136753333D01*
X106559047Y-136753333D01*
X106654285Y-136800952D01*
X106701904Y-136848571D01*
X106749523Y-136943809D01*
X106749523Y-137181904D01*
X106701904Y-137277142D01*
X106654285Y-137324761D01*
X106559047Y-137372380D01*
X106273333Y-137372380D01*
X106178095Y-137324761D01*
X106130476Y-137277142D01*
X196578095Y-137372380D02*
X196578095Y-136372380D01*
X196578095Y-136848571D02*
X197149523Y-136848571D01*
X197149523Y-137372380D02*
X197149523Y-136372380D01*
X198054285Y-136705714D02*
X198054285Y-137372380D01*
X197816190Y-136324761D02*
X197578095Y-137039047D01*
X198197142Y-137039047D01*
X105178095Y-71222380D02*
X105178095Y-70222380D01*
X105178095Y-70698571D02*
X105749523Y-70698571D01*
X105749523Y-71222380D02*
X105749523Y-70222380D01*
X106749523Y-71222380D02*
X106178095Y-71222380D01*
X106463809Y-71222380D02*
X106463809Y-70222380D01*
X106368571Y-70365238D01*
X106273333Y-70460476D01*
X106178095Y-70508095D01*
M02*
