G04 #@! TF.GenerationSoftware,KiCad,Pcbnew,(5.1.7)-1*
G04 #@! TF.CreationDate,2021-01-09T20:06:41-03:00*
G04 #@! TF.ProjectId,PCB_CONTROLADORA_SOLDAGEM,5043425f-434f-44e5-9452-4f4c41444f52,rev?*
G04 #@! TF.SameCoordinates,Original*
G04 #@! TF.FileFunction,Copper,L1,Top*
G04 #@! TF.FilePolarity,Positive*
%FSLAX46Y46*%
G04 Gerber Fmt 4.6, Leading zero omitted, Abs format (unit mm)*
G04 Created by KiCad (PCBNEW (5.1.7)-1) date 2021-01-09 20:06:41*
%MOMM*%
%LPD*%
G01*
G04 APERTURE LIST*
G04 #@! TA.AperFunction,ComponentPad*
%ADD10R,2.700000X2.700000*%
G04 #@! TD*
G04 #@! TA.AperFunction,ComponentPad*
%ADD11C,2.700000*%
G04 #@! TD*
G04 #@! TA.AperFunction,ComponentPad*
%ADD12R,3.000000X3.000000*%
G04 #@! TD*
G04 #@! TA.AperFunction,ComponentPad*
%ADD13C,3.000000*%
G04 #@! TD*
G04 #@! TA.AperFunction,ComponentPad*
%ADD14O,1.700000X1.700000*%
G04 #@! TD*
G04 #@! TA.AperFunction,ComponentPad*
%ADD15R,1.700000X1.700000*%
G04 #@! TD*
G04 #@! TA.AperFunction,ComponentPad*
%ADD16O,3.048000X1.850000*%
G04 #@! TD*
G04 #@! TA.AperFunction,ComponentPad*
%ADD17R,1.600000X1.600000*%
G04 #@! TD*
G04 #@! TA.AperFunction,ComponentPad*
%ADD18C,1.600000*%
G04 #@! TD*
G04 #@! TA.AperFunction,ComponentPad*
%ADD19C,2.300000*%
G04 #@! TD*
G04 #@! TA.AperFunction,ComponentPad*
%ADD20R,2.000000X2.300000*%
G04 #@! TD*
G04 #@! TA.AperFunction,ComponentPad*
%ADD21C,1.800000*%
G04 #@! TD*
G04 #@! TA.AperFunction,SMDPad,CuDef*
%ADD22R,2.000000X3.800000*%
G04 #@! TD*
G04 #@! TA.AperFunction,SMDPad,CuDef*
%ADD23R,2.000000X1.500000*%
G04 #@! TD*
G04 #@! TA.AperFunction,ComponentPad*
%ADD24C,2.000000*%
G04 #@! TD*
G04 #@! TA.AperFunction,ComponentPad*
%ADD25R,2.000000X2.000000*%
G04 #@! TD*
G04 #@! TA.AperFunction,ComponentPad*
%ADD26R,1.070000X1.800000*%
G04 #@! TD*
G04 #@! TA.AperFunction,ComponentPad*
%ADD27O,1.070000X1.800000*%
G04 #@! TD*
G04 #@! TA.AperFunction,ComponentPad*
%ADD28R,1.800000X1.800000*%
G04 #@! TD*
G04 #@! TA.AperFunction,ComponentPad*
%ADD29C,3.240000*%
G04 #@! TD*
G04 #@! TA.AperFunction,ComponentPad*
%ADD30C,5.700000*%
G04 #@! TD*
G04 #@! TA.AperFunction,ViaPad*
%ADD31C,1.016000*%
G04 #@! TD*
G04 #@! TA.AperFunction,Conductor*
%ADD32C,0.508000*%
G04 #@! TD*
G04 #@! TA.AperFunction,Conductor*
%ADD33C,0.400000*%
G04 #@! TD*
G04 #@! TA.AperFunction,Conductor*
%ADD34C,0.250000*%
G04 #@! TD*
G04 #@! TA.AperFunction,Conductor*
%ADD35C,1.524000*%
G04 #@! TD*
G04 #@! TA.AperFunction,Conductor*
%ADD36C,0.800000*%
G04 #@! TD*
G04 #@! TA.AperFunction,Conductor*
%ADD37C,1.000000*%
G04 #@! TD*
G04 #@! TA.AperFunction,Conductor*
%ADD38C,0.762000*%
G04 #@! TD*
G04 #@! TA.AperFunction,Conductor*
%ADD39C,1.270000*%
G04 #@! TD*
G04 #@! TA.AperFunction,Conductor*
%ADD40C,0.254000*%
G04 #@! TD*
G04 #@! TA.AperFunction,Conductor*
%ADD41C,0.100000*%
G04 #@! TD*
G04 APERTURE END LIST*
D10*
X107140000Y-75840000D03*
D11*
X107140000Y-80920000D03*
D12*
X185240000Y-70570000D03*
D13*
X190320000Y-70570000D03*
X167140000Y-70570000D03*
D12*
X162060000Y-70570000D03*
D14*
X140960000Y-129425001D03*
X140960000Y-126885001D03*
X140960000Y-124345001D03*
X140960000Y-121805001D03*
X140960000Y-119265001D03*
X140960000Y-116725001D03*
X140960000Y-114185001D03*
X140960000Y-111645001D03*
X140960000Y-109105001D03*
X140960000Y-106565001D03*
X140960000Y-104025001D03*
X140960000Y-101485001D03*
X140960000Y-98945001D03*
X140960000Y-96405001D03*
X140960000Y-93865001D03*
X140960000Y-91325001D03*
X140960000Y-88785001D03*
X140960000Y-86245001D03*
X140960000Y-83705001D03*
D15*
X140960000Y-81165001D03*
X156605001Y-81165001D03*
D14*
X156605001Y-83705001D03*
X156605001Y-86245001D03*
X156605001Y-88785001D03*
X156605001Y-91325001D03*
X156605001Y-93865001D03*
X156605001Y-96405001D03*
X156605001Y-98945001D03*
X156605001Y-101485001D03*
X156605001Y-104025001D03*
X156605001Y-106565001D03*
X156605001Y-109105001D03*
X156605001Y-111645001D03*
X156605001Y-114185001D03*
X156605001Y-116725001D03*
X156605001Y-119265001D03*
X156605001Y-121805001D03*
X156605001Y-124345001D03*
X156605001Y-126885001D03*
X156605001Y-129425001D03*
G04 #@! TA.AperFunction,SMDPad,CuDef*
G36*
G01*
X190859999Y-133400000D02*
X191760001Y-133400000D01*
G75*
G02*
X192010000Y-133649999I0J-249999D01*
G01*
X192010000Y-134350001D01*
G75*
G02*
X191760001Y-134600000I-249999J0D01*
G01*
X190859999Y-134600000D01*
G75*
G02*
X190610000Y-134350001I0J249999D01*
G01*
X190610000Y-133649999D01*
G75*
G02*
X190859999Y-133400000I249999J0D01*
G01*
G37*
G04 #@! TD.AperFunction*
G04 #@! TA.AperFunction,SMDPad,CuDef*
G36*
G01*
X190859999Y-135400000D02*
X191760001Y-135400000D01*
G75*
G02*
X192010000Y-135649999I0J-249999D01*
G01*
X192010000Y-136350001D01*
G75*
G02*
X191760001Y-136600000I-249999J0D01*
G01*
X190859999Y-136600000D01*
G75*
G02*
X190610000Y-136350001I0J249999D01*
G01*
X190610000Y-135649999D01*
G75*
G02*
X190859999Y-135400000I249999J0D01*
G01*
G37*
G04 #@! TD.AperFunction*
D16*
X186710000Y-132250000D03*
X186710000Y-137250000D03*
X174210000Y-132250000D03*
X174210000Y-137250000D03*
G04 #@! TA.AperFunction,SMDPad,CuDef*
G36*
G01*
X179750000Y-112100000D02*
X179750000Y-112400000D01*
G75*
G02*
X179600000Y-112550000I-150000J0D01*
G01*
X177700000Y-112550000D01*
G75*
G02*
X177550000Y-112400000I0J150000D01*
G01*
X177550000Y-112100000D01*
G75*
G02*
X177700000Y-111950000I150000J0D01*
G01*
X179600000Y-111950000D01*
G75*
G02*
X179750000Y-112100000I0J-150000D01*
G01*
G37*
G04 #@! TD.AperFunction*
G04 #@! TA.AperFunction,SMDPad,CuDef*
G36*
G01*
X179750000Y-110830000D02*
X179750000Y-111130000D01*
G75*
G02*
X179600000Y-111280000I-150000J0D01*
G01*
X177700000Y-111280000D01*
G75*
G02*
X177550000Y-111130000I0J150000D01*
G01*
X177550000Y-110830000D01*
G75*
G02*
X177700000Y-110680000I150000J0D01*
G01*
X179600000Y-110680000D01*
G75*
G02*
X179750000Y-110830000I0J-150000D01*
G01*
G37*
G04 #@! TD.AperFunction*
G04 #@! TA.AperFunction,SMDPad,CuDef*
G36*
G01*
X179750000Y-109560000D02*
X179750000Y-109860000D01*
G75*
G02*
X179600000Y-110010000I-150000J0D01*
G01*
X177700000Y-110010000D01*
G75*
G02*
X177550000Y-109860000I0J150000D01*
G01*
X177550000Y-109560000D01*
G75*
G02*
X177700000Y-109410000I150000J0D01*
G01*
X179600000Y-109410000D01*
G75*
G02*
X179750000Y-109560000I0J-150000D01*
G01*
G37*
G04 #@! TD.AperFunction*
G04 #@! TA.AperFunction,SMDPad,CuDef*
G36*
G01*
X179750000Y-108290000D02*
X179750000Y-108590000D01*
G75*
G02*
X179600000Y-108740000I-150000J0D01*
G01*
X177700000Y-108740000D01*
G75*
G02*
X177550000Y-108590000I0J150000D01*
G01*
X177550000Y-108290000D01*
G75*
G02*
X177700000Y-108140000I150000J0D01*
G01*
X179600000Y-108140000D01*
G75*
G02*
X179750000Y-108290000I0J-150000D01*
G01*
G37*
G04 #@! TD.AperFunction*
G04 #@! TA.AperFunction,SMDPad,CuDef*
G36*
G01*
X174800000Y-108290000D02*
X174800000Y-108590000D01*
G75*
G02*
X174650000Y-108740000I-150000J0D01*
G01*
X172750000Y-108740000D01*
G75*
G02*
X172600000Y-108590000I0J150000D01*
G01*
X172600000Y-108290000D01*
G75*
G02*
X172750000Y-108140000I150000J0D01*
G01*
X174650000Y-108140000D01*
G75*
G02*
X174800000Y-108290000I0J-150000D01*
G01*
G37*
G04 #@! TD.AperFunction*
G04 #@! TA.AperFunction,SMDPad,CuDef*
G36*
G01*
X174800000Y-109560000D02*
X174800000Y-109860000D01*
G75*
G02*
X174650000Y-110010000I-150000J0D01*
G01*
X172750000Y-110010000D01*
G75*
G02*
X172600000Y-109860000I0J150000D01*
G01*
X172600000Y-109560000D01*
G75*
G02*
X172750000Y-109410000I150000J0D01*
G01*
X174650000Y-109410000D01*
G75*
G02*
X174800000Y-109560000I0J-150000D01*
G01*
G37*
G04 #@! TD.AperFunction*
G04 #@! TA.AperFunction,SMDPad,CuDef*
G36*
G01*
X174800000Y-110830000D02*
X174800000Y-111130000D01*
G75*
G02*
X174650000Y-111280000I-150000J0D01*
G01*
X172750000Y-111280000D01*
G75*
G02*
X172600000Y-111130000I0J150000D01*
G01*
X172600000Y-110830000D01*
G75*
G02*
X172750000Y-110680000I150000J0D01*
G01*
X174650000Y-110680000D01*
G75*
G02*
X174800000Y-110830000I0J-150000D01*
G01*
G37*
G04 #@! TD.AperFunction*
G04 #@! TA.AperFunction,SMDPad,CuDef*
G36*
G01*
X174800000Y-112100000D02*
X174800000Y-112400000D01*
G75*
G02*
X174650000Y-112550000I-150000J0D01*
G01*
X172750000Y-112550000D01*
G75*
G02*
X172600000Y-112400000I0J150000D01*
G01*
X172600000Y-112100000D01*
G75*
G02*
X172750000Y-111950000I150000J0D01*
G01*
X174650000Y-111950000D01*
G75*
G02*
X174800000Y-112100000I0J-150000D01*
G01*
G37*
G04 #@! TD.AperFunction*
D15*
X172370000Y-97950000D03*
D14*
X174910000Y-97950000D03*
X177450000Y-97950000D03*
X179990000Y-97950000D03*
D15*
X133130000Y-139740000D03*
D14*
X135670000Y-139740000D03*
X138210000Y-139740000D03*
X140750000Y-139740000D03*
D12*
X173660000Y-70570000D03*
D13*
X178740000Y-70570000D03*
G04 #@! TA.AperFunction,SMDPad,CuDef*
G36*
G01*
X174392500Y-105695000D02*
X174392500Y-104745000D01*
G75*
G02*
X174642500Y-104495000I250000J0D01*
G01*
X175317500Y-104495000D01*
G75*
G02*
X175567500Y-104745000I0J-250000D01*
G01*
X175567500Y-105695000D01*
G75*
G02*
X175317500Y-105945000I-250000J0D01*
G01*
X174642500Y-105945000D01*
G75*
G02*
X174392500Y-105695000I0J250000D01*
G01*
G37*
G04 #@! TD.AperFunction*
G04 #@! TA.AperFunction,SMDPad,CuDef*
G36*
G01*
X176467500Y-105695000D02*
X176467500Y-104745000D01*
G75*
G02*
X176717500Y-104495000I250000J0D01*
G01*
X177392500Y-104495000D01*
G75*
G02*
X177642500Y-104745000I0J-250000D01*
G01*
X177642500Y-105695000D01*
G75*
G02*
X177392500Y-105945000I-250000J0D01*
G01*
X176717500Y-105945000D01*
G75*
G02*
X176467500Y-105695000I0J250000D01*
G01*
G37*
G04 #@! TD.AperFunction*
G04 #@! TA.AperFunction,SMDPad,CuDef*
G36*
G01*
X139530000Y-136265001D02*
X139530000Y-135014999D01*
G75*
G02*
X139779999Y-134765000I249999J0D01*
G01*
X140580001Y-134765000D01*
G75*
G02*
X140830000Y-135014999I0J-249999D01*
G01*
X140830000Y-136265001D01*
G75*
G02*
X140580001Y-136515000I-249999J0D01*
G01*
X139779999Y-136515000D01*
G75*
G02*
X139530000Y-136265001I0J249999D01*
G01*
G37*
G04 #@! TD.AperFunction*
G04 #@! TA.AperFunction,SMDPad,CuDef*
G36*
G01*
X136430000Y-136265001D02*
X136430000Y-135014999D01*
G75*
G02*
X136679999Y-134765000I249999J0D01*
G01*
X137480001Y-134765000D01*
G75*
G02*
X137730000Y-135014999I0J-249999D01*
G01*
X137730000Y-136265001D01*
G75*
G02*
X137480001Y-136515000I-249999J0D01*
G01*
X136679999Y-136515000D01*
G75*
G02*
X136430000Y-136265001I0J249999D01*
G01*
G37*
G04 #@! TD.AperFunction*
G04 #@! TA.AperFunction,SMDPad,CuDef*
G36*
G01*
X139430000Y-132114999D02*
X139430000Y-133365001D01*
G75*
G02*
X139180001Y-133615000I-249999J0D01*
G01*
X138379999Y-133615000D01*
G75*
G02*
X138130000Y-133365001I0J249999D01*
G01*
X138130000Y-132114999D01*
G75*
G02*
X138379999Y-131865000I249999J0D01*
G01*
X139180001Y-131865000D01*
G75*
G02*
X139430000Y-132114999I0J-249999D01*
G01*
G37*
G04 #@! TD.AperFunction*
G04 #@! TA.AperFunction,SMDPad,CuDef*
G36*
G01*
X136330000Y-132114999D02*
X136330000Y-133365001D01*
G75*
G02*
X136080001Y-133615000I-249999J0D01*
G01*
X135279999Y-133615000D01*
G75*
G02*
X135030000Y-133365001I0J249999D01*
G01*
X135030000Y-132114999D01*
G75*
G02*
X135279999Y-131865000I249999J0D01*
G01*
X136080001Y-131865000D01*
G75*
G02*
X136330000Y-132114999I0J-249999D01*
G01*
G37*
G04 #@! TD.AperFunction*
D17*
X129840000Y-121340000D03*
D18*
X129840000Y-116340000D03*
D17*
X117320000Y-135790000D03*
D18*
X117320000Y-140790000D03*
G04 #@! TA.AperFunction,SMDPad,CuDef*
G36*
G01*
X124265000Y-136532500D02*
X125215000Y-136532500D01*
G75*
G02*
X125465000Y-136782500I0J-250000D01*
G01*
X125465000Y-137457500D01*
G75*
G02*
X125215000Y-137707500I-250000J0D01*
G01*
X124265000Y-137707500D01*
G75*
G02*
X124015000Y-137457500I0J250000D01*
G01*
X124015000Y-136782500D01*
G75*
G02*
X124265000Y-136532500I250000J0D01*
G01*
G37*
G04 #@! TD.AperFunction*
G04 #@! TA.AperFunction,SMDPad,CuDef*
G36*
G01*
X124265000Y-138607500D02*
X125215000Y-138607500D01*
G75*
G02*
X125465000Y-138857500I0J-250000D01*
G01*
X125465000Y-139532500D01*
G75*
G02*
X125215000Y-139782500I-250000J0D01*
G01*
X124265000Y-139782500D01*
G75*
G02*
X124015000Y-139532500I0J250000D01*
G01*
X124015000Y-138857500D01*
G75*
G02*
X124265000Y-138607500I250000J0D01*
G01*
G37*
G04 #@! TD.AperFunction*
D15*
X127400000Y-129490000D03*
D14*
X129940000Y-129490000D03*
D19*
X131310000Y-109550000D03*
D20*
X126110000Y-80150000D03*
D19*
X121110000Y-80150000D03*
X115910000Y-109550000D03*
D21*
X127070000Y-74560000D03*
X119570000Y-73160000D03*
D22*
X115080000Y-129050000D03*
D23*
X121380000Y-129050000D03*
X121380000Y-126750000D03*
X121380000Y-131350000D03*
D24*
X129120000Y-67150000D03*
X117720000Y-67150000D03*
X119160000Y-116220000D03*
D25*
X119160000Y-121220000D03*
D26*
X153440000Y-71320000D03*
D27*
X154710000Y-71320000D03*
X155980000Y-71320000D03*
X157250000Y-71320000D03*
G04 #@! TA.AperFunction,SMDPad,CuDef*
G36*
G01*
X145689999Y-76970000D02*
X146590001Y-76970000D01*
G75*
G02*
X146840000Y-77219999I0J-249999D01*
G01*
X146840000Y-77920001D01*
G75*
G02*
X146590001Y-78170000I-249999J0D01*
G01*
X145689999Y-78170000D01*
G75*
G02*
X145440000Y-77920001I0J249999D01*
G01*
X145440000Y-77219999D01*
G75*
G02*
X145689999Y-76970000I249999J0D01*
G01*
G37*
G04 #@! TD.AperFunction*
G04 #@! TA.AperFunction,SMDPad,CuDef*
G36*
G01*
X145689999Y-78970000D02*
X146590001Y-78970000D01*
G75*
G02*
X146840000Y-79219999I0J-249999D01*
G01*
X146840000Y-79920001D01*
G75*
G02*
X146590001Y-80170000I-249999J0D01*
G01*
X145689999Y-80170000D01*
G75*
G02*
X145440000Y-79920001I0J249999D01*
G01*
X145440000Y-79219999D01*
G75*
G02*
X145689999Y-78970000I249999J0D01*
G01*
G37*
G04 #@! TD.AperFunction*
G04 #@! TA.AperFunction,SMDPad,CuDef*
G36*
G01*
X149590001Y-80170000D02*
X148689999Y-80170000D01*
G75*
G02*
X148440000Y-79920001I0J249999D01*
G01*
X148440000Y-79219999D01*
G75*
G02*
X148689999Y-78970000I249999J0D01*
G01*
X149590001Y-78970000D01*
G75*
G02*
X149840000Y-79219999I0J-249999D01*
G01*
X149840000Y-79920001D01*
G75*
G02*
X149590001Y-80170000I-249999J0D01*
G01*
G37*
G04 #@! TD.AperFunction*
G04 #@! TA.AperFunction,SMDPad,CuDef*
G36*
G01*
X149590001Y-82170000D02*
X148689999Y-82170000D01*
G75*
G02*
X148440000Y-81920001I0J249999D01*
G01*
X148440000Y-81219999D01*
G75*
G02*
X148689999Y-80970000I249999J0D01*
G01*
X149590001Y-80970000D01*
G75*
G02*
X149840000Y-81219999I0J-249999D01*
G01*
X149840000Y-81920001D01*
G75*
G02*
X149590001Y-82170000I-249999J0D01*
G01*
G37*
G04 #@! TD.AperFunction*
G04 #@! TA.AperFunction,SMDPad,CuDef*
G36*
G01*
X152590001Y-84170000D02*
X151689999Y-84170000D01*
G75*
G02*
X151440000Y-83920001I0J249999D01*
G01*
X151440000Y-83219999D01*
G75*
G02*
X151689999Y-82970000I249999J0D01*
G01*
X152590001Y-82970000D01*
G75*
G02*
X152840000Y-83219999I0J-249999D01*
G01*
X152840000Y-83920001D01*
G75*
G02*
X152590001Y-84170000I-249999J0D01*
G01*
G37*
G04 #@! TD.AperFunction*
G04 #@! TA.AperFunction,SMDPad,CuDef*
G36*
G01*
X152590001Y-82170000D02*
X151689999Y-82170000D01*
G75*
G02*
X151440000Y-81920001I0J249999D01*
G01*
X151440000Y-81219999D01*
G75*
G02*
X151689999Y-80970000I249999J0D01*
G01*
X152590001Y-80970000D01*
G75*
G02*
X152840000Y-81219999I0J-249999D01*
G01*
X152840000Y-81920001D01*
G75*
G02*
X152590001Y-82170000I-249999J0D01*
G01*
G37*
G04 #@! TD.AperFunction*
G04 #@! TA.AperFunction,SMDPad,CuDef*
G36*
G01*
X176514999Y-94020000D02*
X177765001Y-94020000D01*
G75*
G02*
X178015000Y-94269999I0J-249999D01*
G01*
X178015000Y-95070001D01*
G75*
G02*
X177765001Y-95320000I-249999J0D01*
G01*
X176514999Y-95320000D01*
G75*
G02*
X176265000Y-95070001I0J249999D01*
G01*
X176265000Y-94269999D01*
G75*
G02*
X176514999Y-94020000I249999J0D01*
G01*
G37*
G04 #@! TD.AperFunction*
G04 #@! TA.AperFunction,SMDPad,CuDef*
G36*
G01*
X176514999Y-90920000D02*
X177765001Y-90920000D01*
G75*
G02*
X178015000Y-91169999I0J-249999D01*
G01*
X178015000Y-91970001D01*
G75*
G02*
X177765001Y-92220000I-249999J0D01*
G01*
X176514999Y-92220000D01*
G75*
G02*
X176265000Y-91970001I0J249999D01*
G01*
X176265000Y-91169999D01*
G75*
G02*
X176514999Y-90920000I249999J0D01*
G01*
G37*
G04 #@! TD.AperFunction*
G04 #@! TA.AperFunction,SMDPad,CuDef*
G36*
G01*
X179714999Y-90920000D02*
X180965001Y-90920000D01*
G75*
G02*
X181215000Y-91169999I0J-249999D01*
G01*
X181215000Y-91970001D01*
G75*
G02*
X180965001Y-92220000I-249999J0D01*
G01*
X179714999Y-92220000D01*
G75*
G02*
X179465000Y-91970001I0J249999D01*
G01*
X179465000Y-91169999D01*
G75*
G02*
X179714999Y-90920000I249999J0D01*
G01*
G37*
G04 #@! TD.AperFunction*
G04 #@! TA.AperFunction,SMDPad,CuDef*
G36*
G01*
X179714999Y-94020000D02*
X180965001Y-94020000D01*
G75*
G02*
X181215000Y-94269999I0J-249999D01*
G01*
X181215000Y-95070001D01*
G75*
G02*
X180965001Y-95320000I-249999J0D01*
G01*
X179714999Y-95320000D01*
G75*
G02*
X179465000Y-95070001I0J249999D01*
G01*
X179465000Y-94269999D01*
G75*
G02*
X179714999Y-94020000I249999J0D01*
G01*
G37*
G04 #@! TD.AperFunction*
D28*
X189730000Y-91300000D03*
D21*
X192230000Y-91300000D03*
X194730000Y-91300000D03*
D29*
X197030000Y-83800000D03*
X187430000Y-83800000D03*
D15*
X156530000Y-139740000D03*
D14*
X159070000Y-139740000D03*
X161610000Y-139740000D03*
X164150000Y-139740000D03*
X166690000Y-139740000D03*
X169230000Y-139740000D03*
D15*
X110140000Y-118570000D03*
D30*
X197340000Y-66770000D03*
X105940000Y-140770000D03*
X197340000Y-140770000D03*
X105940000Y-66770000D03*
D31*
X125140000Y-113570000D03*
X128140000Y-113570000D03*
X131140000Y-113570000D03*
X134140000Y-113570000D03*
X137140000Y-113570000D03*
X125140000Y-116570000D03*
X122140000Y-113570000D03*
X119140000Y-113570000D03*
X134140000Y-116570000D03*
X134140000Y-119570000D03*
X134140000Y-122570000D03*
X134140000Y-125570000D03*
X131140000Y-125570000D03*
X122140000Y-133570000D03*
X120280000Y-133570000D03*
X131140000Y-132570000D03*
X131140000Y-135570000D03*
X134140000Y-135570000D03*
X128140000Y-135570000D03*
X128140000Y-132570000D03*
X128140000Y-138570000D03*
X128140000Y-141570000D03*
X125140000Y-143270000D03*
X122140000Y-141570000D03*
X119140000Y-141570000D03*
X115140000Y-141570000D03*
X112140000Y-141570000D03*
X112140000Y-138570000D03*
X112140000Y-136570000D03*
X119140000Y-138570000D03*
X122140000Y-138570000D03*
X108140000Y-113570000D03*
X111140000Y-113570000D03*
X111140000Y-115570000D03*
X108140000Y-115570000D03*
X108140000Y-121570000D03*
X105140000Y-119570000D03*
X105140000Y-121570000D03*
X105140000Y-116570000D03*
X105140000Y-113570000D03*
X111140000Y-110570000D03*
X111140000Y-104570000D03*
X105140000Y-110570000D03*
X108140000Y-107570000D03*
X108140000Y-110570000D03*
X111140000Y-107570000D03*
X108140000Y-104570000D03*
X105140000Y-107570000D03*
X105140000Y-104570000D03*
X137140000Y-110570000D03*
X137140000Y-107570000D03*
X134140000Y-107570000D03*
X128140000Y-107570000D03*
X125140000Y-107570000D03*
X125140000Y-110570000D03*
X122140000Y-110570000D03*
X122140000Y-107570000D03*
X117140000Y-104570000D03*
X114140000Y-104570000D03*
X139140000Y-126570000D03*
X143780000Y-127240000D03*
X144140000Y-135570000D03*
X150140000Y-135570000D03*
X147140000Y-135570000D03*
X147140000Y-138570000D03*
X144140000Y-138570000D03*
X150140000Y-138570000D03*
X153140000Y-138570000D03*
X191140000Y-131570000D03*
X191140000Y-128570000D03*
X194140000Y-128570000D03*
X194140000Y-131570000D03*
X194140000Y-134570000D03*
X191140000Y-138570000D03*
X191140000Y-141570000D03*
X188140000Y-141570000D03*
X182540000Y-110370000D03*
X181140000Y-111970000D03*
X178740000Y-113870000D03*
X189140000Y-102770000D03*
X184140000Y-108770000D03*
X184740000Y-106570000D03*
X187140000Y-106570000D03*
X187140000Y-104170000D03*
X183940000Y-102070000D03*
X184740000Y-104170000D03*
X172140000Y-101570000D03*
X172140000Y-103570000D03*
X172140000Y-105570000D03*
X169140000Y-107570000D03*
X169140000Y-105570000D03*
X169140000Y-103570000D03*
X169140000Y-101570000D03*
X166140000Y-103570000D03*
X166140000Y-105570000D03*
X169940000Y-99870000D03*
X195140000Y-94570000D03*
X198140000Y-94570000D03*
X198140000Y-97570000D03*
X195140000Y-97570000D03*
X199140000Y-90570000D03*
X199140000Y-87570000D03*
X195140000Y-100570000D03*
X198140000Y-100570000D03*
X198140000Y-103570000D03*
X195140000Y-103570000D03*
X194140000Y-72570000D03*
X198140000Y-72570000D03*
X198140000Y-75570000D03*
X194140000Y-75570000D03*
X190140000Y-75570000D03*
X186140000Y-75570000D03*
X185140000Y-78570000D03*
X185140000Y-81570000D03*
X172140000Y-75570000D03*
X170140000Y-75570000D03*
X170140000Y-78570000D03*
X172140000Y-78570000D03*
X175140000Y-75570000D03*
X164140000Y-75570000D03*
X161140000Y-75570000D03*
X159040000Y-77270000D03*
X161140000Y-78570000D03*
X164140000Y-78570000D03*
X164140000Y-81570000D03*
X161140000Y-81570000D03*
X170140000Y-94570000D03*
X168140000Y-92570000D03*
X166140000Y-90570000D03*
X165140000Y-92570000D03*
X167140000Y-94570000D03*
X159140000Y-97570000D03*
X179140000Y-78570000D03*
X179140000Y-84570000D03*
X173600000Y-90350000D03*
X175140000Y-84570000D03*
X172140000Y-84570000D03*
X172140000Y-87570000D03*
X175140000Y-87570000D03*
X179140000Y-87570000D03*
X179140000Y-81570000D03*
X175140000Y-81570000D03*
X150140000Y-141570000D03*
X147140000Y-141570000D03*
X144140000Y-141570000D03*
X195140000Y-111570000D03*
X194140000Y-120570000D03*
X198140000Y-111570000D03*
X198140000Y-120570000D03*
X198140000Y-128570000D03*
X153140000Y-93570000D03*
X150140000Y-93570000D03*
X150140000Y-96570000D03*
X153140000Y-96570000D03*
X147140000Y-96570000D03*
X147140000Y-93570000D03*
X147140000Y-90570000D03*
X150140000Y-90570000D03*
X153140000Y-105570000D03*
X153140000Y-102570000D03*
X153140000Y-99570000D03*
X144140000Y-75570000D03*
X157140000Y-66570000D03*
X154140000Y-66570000D03*
X151140000Y-66570000D03*
X150140000Y-102570000D03*
X150140000Y-99570000D03*
X146140000Y-73570000D03*
X148140000Y-71570000D03*
X150140000Y-105570000D03*
X157140000Y-64570000D03*
X161140000Y-83570000D03*
X164140000Y-83570000D03*
X147140000Y-102570000D03*
X147140000Y-105570000D03*
X147140000Y-99570000D03*
X150140000Y-108570000D03*
X147140000Y-108570000D03*
X154140000Y-64570000D03*
X149890000Y-69270000D03*
X159440000Y-64920000D03*
X141940000Y-76470000D03*
X171290000Y-65070000D03*
X173610000Y-67590000D03*
X182650000Y-64970000D03*
X191030000Y-67830000D03*
X192950000Y-64990000D03*
X162110000Y-67460000D03*
X195140000Y-107570000D03*
X198140000Y-107570000D03*
X198140000Y-115570000D03*
X195140000Y-115570000D03*
X191140000Y-115570000D03*
X187140000Y-115570000D03*
X183140000Y-115570000D03*
X191140000Y-111570000D03*
X187140000Y-111570000D03*
X191140000Y-108570000D03*
X165140000Y-129570000D03*
X169940000Y-120570000D03*
X169465000Y-125195000D03*
X175140000Y-117570000D03*
X175140000Y-120570000D03*
X183140000Y-120570000D03*
X198140000Y-124570000D03*
X194140000Y-124570000D03*
X153100000Y-108570000D03*
X150140000Y-111570000D03*
X153100000Y-111570000D03*
X150140000Y-114570000D03*
X153100000Y-114570000D03*
X150140000Y-117570000D03*
X153100000Y-117570000D03*
X150140000Y-120570000D03*
X153100000Y-120570000D03*
X153100000Y-124000000D03*
X104540000Y-126170000D03*
X104540000Y-128070000D03*
X104540000Y-129970000D03*
X104540000Y-131870000D03*
X106640000Y-131870000D03*
X106640000Y-126170000D03*
X106640000Y-129970000D03*
X106640000Y-128070000D03*
X108640000Y-131870000D03*
X110740000Y-126170000D03*
X108640000Y-126170000D03*
X108640000Y-129970000D03*
X110740000Y-129970000D03*
X108640000Y-128070000D03*
X110740000Y-131870000D03*
X110740000Y-128070000D03*
X112840000Y-131870000D03*
X112840000Y-128070000D03*
X112840000Y-129970000D03*
X112840000Y-126170000D03*
D32*
X144544999Y-81165001D02*
X146140000Y-79570000D01*
X140960000Y-81165001D02*
X144544999Y-81165001D01*
X147004999Y-83705001D02*
X149140000Y-81570000D01*
X140960000Y-83705001D02*
X147004999Y-83705001D01*
X158295001Y-109105001D02*
X156605001Y-109105001D01*
X192240000Y-103430000D02*
X180430000Y-115240000D01*
X180430000Y-115240000D02*
X164430000Y-115240000D01*
X164430000Y-115240000D02*
X158295001Y-109105001D01*
X192240000Y-91310000D02*
X192230000Y-91300000D01*
X192240000Y-103430000D02*
X192240000Y-91310000D01*
D33*
X178650000Y-110980000D02*
X178650000Y-112250000D01*
D34*
X173790000Y-105220000D02*
X172140000Y-103570000D01*
X174980000Y-105220000D02*
X173790000Y-105220000D01*
D35*
X186710000Y-137250000D02*
X174210000Y-137250000D01*
D33*
X186710000Y-137950000D02*
X186710000Y-137250000D01*
D32*
X190060000Y-137250000D02*
X191310000Y-136000000D01*
X186710000Y-137250000D02*
X190060000Y-137250000D01*
X180340000Y-94670000D02*
X180340000Y-97600000D01*
X180340000Y-97600000D02*
X179990000Y-97950000D01*
X177140000Y-97640000D02*
X177450000Y-97950000D01*
X177140000Y-94670000D02*
X177140000Y-97640000D01*
D33*
X156935001Y-98945001D02*
X156605001Y-98945001D01*
D32*
X167700000Y-109710000D02*
X156935001Y-98945001D01*
X173700000Y-109710000D02*
X167700000Y-109710000D01*
X166370000Y-110980000D02*
X156875001Y-101485001D01*
D33*
X156875001Y-101485001D02*
X156605001Y-101485001D01*
D32*
X173700000Y-110980000D02*
X166370000Y-110980000D01*
X166220000Y-113640000D02*
X156605001Y-104025001D01*
X175030000Y-113640000D02*
X166220000Y-113640000D01*
X175730000Y-112940000D02*
X175030000Y-113640000D01*
X175730000Y-109495000D02*
X175730000Y-112940000D01*
X174675000Y-108440000D02*
X175730000Y-109495000D01*
X173700000Y-108440000D02*
X174675000Y-108440000D01*
D36*
X177055000Y-106845000D02*
X178650000Y-108440000D01*
X177055000Y-105220000D02*
X177055000Y-106845000D01*
D37*
X177055000Y-103265000D02*
X174910000Y-101120000D01*
X174910000Y-101120000D02*
X174910000Y-97950000D01*
X177055000Y-105220000D02*
X177055000Y-103265000D01*
X174910000Y-95420000D02*
X174910000Y-97950000D01*
X156605001Y-86245001D02*
X165735001Y-86245001D01*
X138780000Y-131605001D02*
X140960000Y-129425001D01*
X138780000Y-132740000D02*
X138780000Y-131605001D01*
X140180000Y-134140000D02*
X138780000Y-132740000D01*
X140180000Y-135640000D02*
X140180000Y-134140000D01*
X140750000Y-136210000D02*
X140180000Y-135640000D01*
X140750000Y-139740000D02*
X140750000Y-136210000D01*
D32*
X175200000Y-91570000D02*
X173130000Y-93640000D01*
D37*
X173130000Y-93640000D02*
X174910000Y-95420000D01*
X165735001Y-86245001D02*
X173130000Y-93640000D01*
D38*
X159070000Y-139280000D02*
X149215001Y-129425001D01*
X149215001Y-129425001D02*
X140960000Y-129425001D01*
X159070000Y-139740000D02*
X159070000Y-139280000D01*
D32*
X175200000Y-91570000D02*
X177140000Y-91570000D01*
X177140000Y-91570000D02*
X180340000Y-91570000D01*
X138210000Y-136770000D02*
X137080000Y-135640000D01*
X138210000Y-139740000D02*
X138210000Y-136770000D01*
X139344999Y-116725001D02*
X140960000Y-116725001D01*
X137230000Y-118840000D02*
X139344999Y-116725001D01*
X137230000Y-135490000D02*
X137230000Y-118840000D01*
D33*
X137080000Y-135640000D02*
X137230000Y-135490000D01*
X135670000Y-132750000D02*
X135680000Y-132740000D01*
D32*
X135670000Y-139740000D02*
X135670000Y-132750000D01*
X139084999Y-114185001D02*
X140960000Y-114185001D01*
X135680000Y-117590000D02*
X139084999Y-114185001D01*
X135680000Y-132740000D02*
X135680000Y-117590000D01*
X141295001Y-111645001D02*
X140960000Y-111645001D01*
X145750000Y-116100000D02*
X141295001Y-111645001D01*
X145750000Y-123880000D02*
X145750000Y-116100000D01*
X161610000Y-139740000D02*
X145750000Y-123880000D01*
X147860000Y-115630000D02*
X141335001Y-109105001D01*
X141335001Y-109105001D02*
X140960000Y-109105001D01*
X147860000Y-123620000D02*
X147860000Y-115630000D01*
X163980000Y-139740000D02*
X147860000Y-123620000D01*
X164150000Y-139740000D02*
X163980000Y-139740000D01*
X149464999Y-86245001D02*
X152140000Y-83570000D01*
X140960000Y-86245001D02*
X149464999Y-86245001D01*
D35*
X186710000Y-132250000D02*
X174210000Y-132250000D01*
D33*
X174210000Y-132250000D02*
X173610000Y-132250000D01*
D32*
X172590000Y-130630000D02*
X174210000Y-132250000D01*
X172590000Y-120370000D02*
X172590000Y-130630000D01*
X169160000Y-116940000D02*
X172590000Y-120370000D01*
X157535001Y-111645001D02*
X162830000Y-116940000D01*
X162830000Y-116940000D02*
X169160000Y-116940000D01*
X156605001Y-111645001D02*
X157535001Y-111645001D01*
X157175001Y-114185001D02*
X156605001Y-114185001D01*
X160340000Y-117350000D02*
X157175001Y-114185001D01*
X160340000Y-130850000D02*
X160340000Y-117350000D01*
X169230000Y-139740000D02*
X160340000Y-130850000D01*
X157505001Y-116725001D02*
X156605001Y-116725001D01*
X159070000Y-118290000D02*
X157505001Y-116725001D01*
X159070000Y-132120000D02*
X159070000Y-118290000D01*
X166690000Y-139740000D02*
X159070000Y-132120000D01*
X183640000Y-72170000D02*
X185240000Y-70570000D01*
X182490000Y-73320000D02*
X185240000Y-70570000D01*
X182490000Y-107420000D02*
X182490000Y-73320000D01*
X180200000Y-109710000D02*
X182490000Y-107420000D01*
X178650000Y-109710000D02*
X180200000Y-109710000D01*
D39*
X117400000Y-121220000D02*
X119160000Y-121220000D01*
X114640000Y-118460000D02*
X117400000Y-121220000D01*
X114640000Y-110820000D02*
X114640000Y-118460000D01*
X115910000Y-109550000D02*
X114640000Y-110820000D01*
X129720000Y-121220000D02*
X129840000Y-121340000D01*
X119160000Y-121220000D02*
X129720000Y-121220000D01*
X125770000Y-126750000D02*
X121380000Y-126750000D01*
X129840000Y-122680000D02*
X125770000Y-126750000D01*
X129840000Y-121340000D02*
X129840000Y-122680000D01*
D32*
X114530000Y-118570000D02*
X114640000Y-118460000D01*
D38*
X110140000Y-118570000D02*
X114530000Y-118570000D01*
D32*
X151990000Y-71320000D02*
X153440000Y-71320000D01*
X146140000Y-77170000D02*
X151990000Y-71320000D01*
X146140000Y-77570000D02*
X146140000Y-77170000D01*
X155980000Y-72455000D02*
X155980000Y-71320000D01*
X149140000Y-79295000D02*
X155980000Y-72455000D01*
X149140000Y-79570000D02*
X149140000Y-79295000D01*
X157250000Y-75360000D02*
X157250000Y-71320000D01*
X152140000Y-80470000D02*
X157250000Y-75360000D01*
X152140000Y-81570000D02*
X152140000Y-80470000D01*
D35*
X121380000Y-129050000D02*
X115080000Y-129050000D01*
D39*
X115080000Y-133550000D02*
X117320000Y-135790000D01*
X115080000Y-129050000D02*
X115080000Y-133550000D01*
X123410000Y-135790000D02*
X124740000Y-137120000D01*
X117320000Y-135790000D02*
X123410000Y-135790000D01*
X124740000Y-132150000D02*
X127400000Y-129490000D01*
X124740000Y-137120000D02*
X124740000Y-132150000D01*
D40*
X117813000Y-133043000D02*
X103167000Y-133043000D01*
X103167000Y-130950000D01*
X113441928Y-130950000D01*
X113454188Y-131074482D01*
X113490498Y-131194180D01*
X113549463Y-131304494D01*
X113628815Y-131401185D01*
X113725506Y-131480537D01*
X113835820Y-131539502D01*
X113955518Y-131575812D01*
X114080000Y-131588072D01*
X114794250Y-131585000D01*
X114953000Y-131426250D01*
X114953000Y-129177000D01*
X115207000Y-129177000D01*
X115207000Y-131426250D01*
X115365750Y-131585000D01*
X116080000Y-131588072D01*
X116204482Y-131575812D01*
X116324180Y-131539502D01*
X116434494Y-131480537D01*
X116531185Y-131401185D01*
X116610537Y-131304494D01*
X116669502Y-131194180D01*
X116705812Y-131074482D01*
X116718072Y-130950000D01*
X116715000Y-129335750D01*
X116556250Y-129177000D01*
X115207000Y-129177000D01*
X114953000Y-129177000D01*
X113603750Y-129177000D01*
X113445000Y-129335750D01*
X113441928Y-130950000D01*
X103167000Y-130950000D01*
X103167000Y-127150000D01*
X113441928Y-127150000D01*
X113445000Y-128764250D01*
X113603750Y-128923000D01*
X114953000Y-128923000D01*
X114953000Y-126673750D01*
X115207000Y-126673750D01*
X115207000Y-128923000D01*
X116556250Y-128923000D01*
X116715000Y-128764250D01*
X116718072Y-127150000D01*
X116705812Y-127025518D01*
X116669502Y-126905820D01*
X116610537Y-126795506D01*
X116531185Y-126698815D01*
X116434494Y-126619463D01*
X116324180Y-126560498D01*
X116204482Y-126524188D01*
X116080000Y-126511928D01*
X115365750Y-126515000D01*
X115207000Y-126673750D01*
X114953000Y-126673750D01*
X114794250Y-126515000D01*
X114080000Y-126511928D01*
X113955518Y-126524188D01*
X113835820Y-126560498D01*
X113725506Y-126619463D01*
X113628815Y-126698815D01*
X113549463Y-126795506D01*
X113490498Y-126905820D01*
X113454188Y-127025518D01*
X113441928Y-127150000D01*
X103167000Y-127150000D01*
X103167000Y-124997000D01*
X117813000Y-124997000D01*
X117813000Y-133043000D01*
G04 #@! TA.AperFunction,Conductor*
D41*
G36*
X117813000Y-133043000D02*
G01*
X103167000Y-133043000D01*
X103167000Y-130950000D01*
X113441928Y-130950000D01*
X113454188Y-131074482D01*
X113490498Y-131194180D01*
X113549463Y-131304494D01*
X113628815Y-131401185D01*
X113725506Y-131480537D01*
X113835820Y-131539502D01*
X113955518Y-131575812D01*
X114080000Y-131588072D01*
X114794250Y-131585000D01*
X114953000Y-131426250D01*
X114953000Y-129177000D01*
X115207000Y-129177000D01*
X115207000Y-131426250D01*
X115365750Y-131585000D01*
X116080000Y-131588072D01*
X116204482Y-131575812D01*
X116324180Y-131539502D01*
X116434494Y-131480537D01*
X116531185Y-131401185D01*
X116610537Y-131304494D01*
X116669502Y-131194180D01*
X116705812Y-131074482D01*
X116718072Y-130950000D01*
X116715000Y-129335750D01*
X116556250Y-129177000D01*
X115207000Y-129177000D01*
X114953000Y-129177000D01*
X113603750Y-129177000D01*
X113445000Y-129335750D01*
X113441928Y-130950000D01*
X103167000Y-130950000D01*
X103167000Y-127150000D01*
X113441928Y-127150000D01*
X113445000Y-128764250D01*
X113603750Y-128923000D01*
X114953000Y-128923000D01*
X114953000Y-126673750D01*
X115207000Y-126673750D01*
X115207000Y-128923000D01*
X116556250Y-128923000D01*
X116715000Y-128764250D01*
X116718072Y-127150000D01*
X116705812Y-127025518D01*
X116669502Y-126905820D01*
X116610537Y-126795506D01*
X116531185Y-126698815D01*
X116434494Y-126619463D01*
X116324180Y-126560498D01*
X116204482Y-126524188D01*
X116080000Y-126511928D01*
X115365750Y-126515000D01*
X115207000Y-126673750D01*
X114953000Y-126673750D01*
X114794250Y-126515000D01*
X114080000Y-126511928D01*
X113955518Y-126524188D01*
X113835820Y-126560498D01*
X113725506Y-126619463D01*
X113628815Y-126698815D01*
X113549463Y-126795506D01*
X113490498Y-126905820D01*
X113454188Y-127025518D01*
X113441928Y-127150000D01*
X103167000Y-127150000D01*
X103167000Y-124997000D01*
X117813000Y-124997000D01*
X117813000Y-133043000D01*
G37*
G04 #@! TD.AperFunction*
D40*
X195689234Y-63681633D02*
X195118442Y-64063024D01*
X194633024Y-64548442D01*
X194251633Y-65119234D01*
X193988927Y-65753463D01*
X193855000Y-66426758D01*
X193855000Y-67113242D01*
X193988927Y-67786537D01*
X194251633Y-68420766D01*
X194633024Y-68991558D01*
X195118442Y-69476976D01*
X195689234Y-69858367D01*
X196323463Y-70121073D01*
X196996758Y-70255000D01*
X197683242Y-70255000D01*
X198356537Y-70121073D01*
X198990766Y-69858367D01*
X199561558Y-69476976D01*
X200046976Y-68991558D01*
X200428367Y-68420766D01*
X200480000Y-68296113D01*
X200480001Y-139243889D01*
X200428367Y-139119234D01*
X200046976Y-138548442D01*
X199561558Y-138063024D01*
X198990766Y-137681633D01*
X198356537Y-137418927D01*
X197683242Y-137285000D01*
X196996758Y-137285000D01*
X196323463Y-137418927D01*
X195689234Y-137681633D01*
X195118442Y-138063024D01*
X194633024Y-138548442D01*
X194251633Y-139119234D01*
X193988927Y-139753463D01*
X193855000Y-140426758D01*
X193855000Y-141113242D01*
X193988927Y-141786537D01*
X194251633Y-142420766D01*
X194633024Y-142991558D01*
X195118442Y-143476976D01*
X195689234Y-143858367D01*
X195813887Y-143910000D01*
X107466113Y-143910000D01*
X107590766Y-143858367D01*
X108161558Y-143476976D01*
X108646976Y-142991558D01*
X109028367Y-142420766D01*
X109291073Y-141786537D01*
X109318959Y-141646342D01*
X116643263Y-141646342D01*
X116729218Y-141819207D01*
X116941358Y-141914687D01*
X117168048Y-141966945D01*
X117400578Y-141973975D01*
X117630012Y-141935505D01*
X117847532Y-141853014D01*
X117910782Y-141819207D01*
X117996737Y-141646342D01*
X117320000Y-140969605D01*
X116643263Y-141646342D01*
X109318959Y-141646342D01*
X109425000Y-141113242D01*
X109425000Y-140870578D01*
X116136025Y-140870578D01*
X116174495Y-141100012D01*
X116256986Y-141317532D01*
X116290793Y-141380782D01*
X116463658Y-141466737D01*
X117140395Y-140790000D01*
X117499605Y-140790000D01*
X118176342Y-141466737D01*
X118349207Y-141380782D01*
X118444687Y-141168642D01*
X118496945Y-140941952D01*
X118503975Y-140709422D01*
X118483952Y-140590000D01*
X131897157Y-140590000D01*
X131904513Y-140664689D01*
X131926299Y-140736508D01*
X131961678Y-140802696D01*
X132009289Y-140860711D01*
X132067304Y-140908322D01*
X132133492Y-140943701D01*
X132205311Y-140965487D01*
X132280000Y-140972843D01*
X132907750Y-140971000D01*
X133003000Y-140875750D01*
X133003000Y-139867000D01*
X131994250Y-139867000D01*
X131899000Y-139962250D01*
X131897157Y-140590000D01*
X118483952Y-140590000D01*
X118465505Y-140479988D01*
X118383014Y-140262468D01*
X118349207Y-140199218D01*
X118176342Y-140113263D01*
X117499605Y-140790000D01*
X117140395Y-140790000D01*
X116463658Y-140113263D01*
X116290793Y-140199218D01*
X116195313Y-140411358D01*
X116143055Y-140638048D01*
X116136025Y-140870578D01*
X109425000Y-140870578D01*
X109425000Y-140426758D01*
X109326917Y-139933658D01*
X116643263Y-139933658D01*
X117320000Y-140610395D01*
X117996737Y-139933658D01*
X117921576Y-139782500D01*
X123632157Y-139782500D01*
X123639513Y-139857189D01*
X123661299Y-139929008D01*
X123696678Y-139995196D01*
X123744289Y-140053211D01*
X123802304Y-140100822D01*
X123868492Y-140136201D01*
X123940311Y-140157987D01*
X124015000Y-140165343D01*
X124517750Y-140163500D01*
X124613000Y-140068250D01*
X124613000Y-139322000D01*
X124867000Y-139322000D01*
X124867000Y-140068250D01*
X124962250Y-140163500D01*
X125465000Y-140165343D01*
X125539689Y-140157987D01*
X125611508Y-140136201D01*
X125677696Y-140100822D01*
X125735711Y-140053211D01*
X125783322Y-139995196D01*
X125818701Y-139929008D01*
X125840487Y-139857189D01*
X125847843Y-139782500D01*
X125846000Y-139417250D01*
X125750750Y-139322000D01*
X124867000Y-139322000D01*
X124613000Y-139322000D01*
X123729250Y-139322000D01*
X123634000Y-139417250D01*
X123632157Y-139782500D01*
X117921576Y-139782500D01*
X117910782Y-139760793D01*
X117698642Y-139665313D01*
X117471952Y-139613055D01*
X117239422Y-139606025D01*
X117009988Y-139644495D01*
X116792468Y-139726986D01*
X116729218Y-139760793D01*
X116643263Y-139933658D01*
X109326917Y-139933658D01*
X109291073Y-139753463D01*
X109028367Y-139119234D01*
X108646976Y-138548442D01*
X108161558Y-138063024D01*
X107590766Y-137681633D01*
X106956537Y-137418927D01*
X106283242Y-137285000D01*
X105596758Y-137285000D01*
X104923463Y-137418927D01*
X104289234Y-137681633D01*
X103718442Y-138063024D01*
X103233024Y-138548442D01*
X102851633Y-139119234D01*
X102800000Y-139243887D01*
X102800000Y-134697000D01*
X114430950Y-134697000D01*
X115881928Y-136147979D01*
X115881928Y-136590000D01*
X115894188Y-136714482D01*
X115930498Y-136834180D01*
X115989463Y-136944494D01*
X116068815Y-137041185D01*
X116165506Y-137120537D01*
X116275820Y-137179502D01*
X116395518Y-137215812D01*
X116520000Y-137228072D01*
X118120000Y-137228072D01*
X118244482Y-137215812D01*
X118364180Y-137179502D01*
X118474494Y-137120537D01*
X118548259Y-137060000D01*
X122883950Y-137060000D01*
X123387359Y-137563410D01*
X123393992Y-137630754D01*
X123444528Y-137797350D01*
X123526595Y-137950886D01*
X123637038Y-138085462D01*
X123771614Y-138195905D01*
X123875786Y-138251586D01*
X123868492Y-138253799D01*
X123802304Y-138289178D01*
X123744289Y-138336789D01*
X123696678Y-138394804D01*
X123661299Y-138460992D01*
X123639513Y-138532811D01*
X123632157Y-138607500D01*
X123634000Y-138972750D01*
X123729250Y-139068000D01*
X124613000Y-139068000D01*
X124613000Y-139048000D01*
X124867000Y-139048000D01*
X124867000Y-139068000D01*
X125750750Y-139068000D01*
X125846000Y-138972750D01*
X125846417Y-138890000D01*
X131897157Y-138890000D01*
X131899000Y-139517750D01*
X131994250Y-139613000D01*
X133003000Y-139613000D01*
X133003000Y-138604250D01*
X133257000Y-138604250D01*
X133257000Y-139613000D01*
X133277000Y-139613000D01*
X133277000Y-139867000D01*
X133257000Y-139867000D01*
X133257000Y-140875750D01*
X133352250Y-140971000D01*
X133980000Y-140972843D01*
X134054689Y-140965487D01*
X134126508Y-140943701D01*
X134192696Y-140908322D01*
X134250711Y-140860711D01*
X134298322Y-140802696D01*
X134333701Y-140736508D01*
X134355487Y-140664689D01*
X134362843Y-140590000D01*
X134362450Y-140456042D01*
X134516525Y-140686632D01*
X134723368Y-140893475D01*
X134966589Y-141055990D01*
X135236842Y-141167932D01*
X135523740Y-141225000D01*
X135816260Y-141225000D01*
X136103158Y-141167932D01*
X136373411Y-141055990D01*
X136616632Y-140893475D01*
X136823475Y-140686632D01*
X136940000Y-140512240D01*
X137056525Y-140686632D01*
X137263368Y-140893475D01*
X137506589Y-141055990D01*
X137776842Y-141167932D01*
X138063740Y-141225000D01*
X138356260Y-141225000D01*
X138643158Y-141167932D01*
X138913411Y-141055990D01*
X139156632Y-140893475D01*
X139363475Y-140686632D01*
X139480000Y-140512240D01*
X139596525Y-140686632D01*
X139803368Y-140893475D01*
X140046589Y-141055990D01*
X140316842Y-141167932D01*
X140603740Y-141225000D01*
X140896260Y-141225000D01*
X141183158Y-141167932D01*
X141453411Y-141055990D01*
X141696632Y-140893475D01*
X141903475Y-140686632D01*
X141968042Y-140590000D01*
X155297157Y-140590000D01*
X155304513Y-140664689D01*
X155326299Y-140736508D01*
X155361678Y-140802696D01*
X155409289Y-140860711D01*
X155467304Y-140908322D01*
X155533492Y-140943701D01*
X155605311Y-140965487D01*
X155680000Y-140972843D01*
X156307750Y-140971000D01*
X156403000Y-140875750D01*
X156403000Y-139867000D01*
X155394250Y-139867000D01*
X155299000Y-139962250D01*
X155297157Y-140590000D01*
X141968042Y-140590000D01*
X142065990Y-140443411D01*
X142177932Y-140173158D01*
X142235000Y-139886260D01*
X142235000Y-139593740D01*
X142177932Y-139306842D01*
X142065990Y-139036589D01*
X141968043Y-138890000D01*
X155297157Y-138890000D01*
X155299000Y-139517750D01*
X155394250Y-139613000D01*
X156403000Y-139613000D01*
X156403000Y-138604250D01*
X156307750Y-138509000D01*
X155680000Y-138507157D01*
X155605311Y-138514513D01*
X155533492Y-138536299D01*
X155467304Y-138571678D01*
X155409289Y-138619289D01*
X155361678Y-138677304D01*
X155326299Y-138743492D01*
X155304513Y-138815311D01*
X155297157Y-138890000D01*
X141968043Y-138890000D01*
X141903475Y-138793368D01*
X141885000Y-138774893D01*
X141885000Y-136265752D01*
X141890491Y-136210000D01*
X141868577Y-135987501D01*
X141803676Y-135773553D01*
X141759016Y-135690000D01*
X141698284Y-135576377D01*
X141556449Y-135403551D01*
X141513140Y-135368008D01*
X141468072Y-135322940D01*
X141468072Y-135014999D01*
X141451008Y-134841745D01*
X141400472Y-134675149D01*
X141318405Y-134521613D01*
X141315000Y-134517464D01*
X141315000Y-134195751D01*
X141320491Y-134140000D01*
X141298577Y-133917501D01*
X141233676Y-133703553D01*
X141203448Y-133647000D01*
X141128284Y-133506377D01*
X140986449Y-133333551D01*
X140943140Y-133298008D01*
X140068072Y-132422941D01*
X140068072Y-132114999D01*
X140051008Y-131941745D01*
X140050398Y-131939734D01*
X141080132Y-130910001D01*
X141106260Y-130910001D01*
X141393158Y-130852933D01*
X141663411Y-130740991D01*
X141906632Y-130578476D01*
X142044107Y-130441001D01*
X148794161Y-130441001D01*
X156861837Y-138508678D01*
X156752250Y-138509000D01*
X156657000Y-138604250D01*
X156657000Y-139613000D01*
X156677000Y-139613000D01*
X156677000Y-139867000D01*
X156657000Y-139867000D01*
X156657000Y-140875750D01*
X156752250Y-140971000D01*
X157380000Y-140972843D01*
X157454689Y-140965487D01*
X157526508Y-140943701D01*
X157592696Y-140908322D01*
X157650711Y-140860711D01*
X157698322Y-140802696D01*
X157733701Y-140736508D01*
X157755487Y-140664689D01*
X157762843Y-140590000D01*
X157762450Y-140456042D01*
X157916525Y-140686632D01*
X158123368Y-140893475D01*
X158366589Y-141055990D01*
X158636842Y-141167932D01*
X158923740Y-141225000D01*
X159216260Y-141225000D01*
X159503158Y-141167932D01*
X159773411Y-141055990D01*
X160016632Y-140893475D01*
X160223475Y-140686632D01*
X160340000Y-140512240D01*
X160456525Y-140686632D01*
X160663368Y-140893475D01*
X160906589Y-141055990D01*
X161176842Y-141167932D01*
X161463740Y-141225000D01*
X161756260Y-141225000D01*
X162043158Y-141167932D01*
X162313411Y-141055990D01*
X162556632Y-140893475D01*
X162763475Y-140686632D01*
X162880000Y-140512240D01*
X162996525Y-140686632D01*
X163203368Y-140893475D01*
X163446589Y-141055990D01*
X163716842Y-141167932D01*
X164003740Y-141225000D01*
X164296260Y-141225000D01*
X164583158Y-141167932D01*
X164853411Y-141055990D01*
X165096632Y-140893475D01*
X165303475Y-140686632D01*
X165420000Y-140512240D01*
X165536525Y-140686632D01*
X165743368Y-140893475D01*
X165986589Y-141055990D01*
X166256842Y-141167932D01*
X166543740Y-141225000D01*
X166836260Y-141225000D01*
X167123158Y-141167932D01*
X167393411Y-141055990D01*
X167636632Y-140893475D01*
X167843475Y-140686632D01*
X167960000Y-140512240D01*
X168076525Y-140686632D01*
X168283368Y-140893475D01*
X168526589Y-141055990D01*
X168796842Y-141167932D01*
X169083740Y-141225000D01*
X169376260Y-141225000D01*
X169663158Y-141167932D01*
X169933411Y-141055990D01*
X170176632Y-140893475D01*
X170383475Y-140686632D01*
X170545990Y-140443411D01*
X170657932Y-140173158D01*
X170715000Y-139886260D01*
X170715000Y-139593740D01*
X170657932Y-139306842D01*
X170545990Y-139036589D01*
X170383475Y-138793368D01*
X170176632Y-138586525D01*
X169933411Y-138424010D01*
X169663158Y-138312068D01*
X169376260Y-138255000D01*
X169083740Y-138255000D01*
X169015758Y-138268522D01*
X161229000Y-130481765D01*
X161229000Y-121233872D01*
X163695000Y-121233872D01*
X163695000Y-121674128D01*
X163780890Y-122105925D01*
X163949369Y-122512669D01*
X164193962Y-122878729D01*
X164505271Y-123190038D01*
X164871331Y-123434631D01*
X165278075Y-123603110D01*
X165709872Y-123689000D01*
X166150128Y-123689000D01*
X166581925Y-123603110D01*
X166988669Y-123434631D01*
X167354729Y-123190038D01*
X167666038Y-122878729D01*
X167910631Y-122512669D01*
X168079110Y-122105925D01*
X168165000Y-121674128D01*
X168165000Y-121233872D01*
X168079110Y-120802075D01*
X167910631Y-120395331D01*
X167666038Y-120029271D01*
X167354729Y-119717962D01*
X166988669Y-119473369D01*
X166581925Y-119304890D01*
X166150128Y-119219000D01*
X165709872Y-119219000D01*
X165278075Y-119304890D01*
X164871331Y-119473369D01*
X164505271Y-119717962D01*
X164193962Y-120029271D01*
X163949369Y-120395331D01*
X163780890Y-120802075D01*
X163695000Y-121233872D01*
X161229000Y-121233872D01*
X161229000Y-117393668D01*
X161233301Y-117350000D01*
X161216136Y-117175725D01*
X161187683Y-117081928D01*
X161165303Y-117008149D01*
X161082753Y-116853709D01*
X160971659Y-116718341D01*
X160937742Y-116690506D01*
X158041339Y-113794104D01*
X158032933Y-113751843D01*
X157920991Y-113481590D01*
X157758476Y-113238369D01*
X157551633Y-113031526D01*
X157377241Y-112915001D01*
X157479463Y-112846698D01*
X162170501Y-117537736D01*
X162198341Y-117571659D01*
X162333709Y-117682753D01*
X162488149Y-117765303D01*
X162536603Y-117780001D01*
X162655724Y-117816136D01*
X162688924Y-117819406D01*
X162786333Y-117829000D01*
X162786339Y-117829000D01*
X162829999Y-117833300D01*
X162873659Y-117829000D01*
X168791765Y-117829000D01*
X171701000Y-120738236D01*
X171701001Y-130586330D01*
X171696700Y-130630000D01*
X171713864Y-130804274D01*
X171764698Y-130971852D01*
X171847248Y-131126291D01*
X171929652Y-131226700D01*
X171958342Y-131261659D01*
X171992259Y-131289494D01*
X172228996Y-131526232D01*
X172162774Y-131650125D01*
X172073572Y-131944187D01*
X172043452Y-132250000D01*
X172073572Y-132555813D01*
X172162774Y-132849875D01*
X172307631Y-133120883D01*
X172502576Y-133358424D01*
X172740117Y-133553369D01*
X173011125Y-133698226D01*
X173305187Y-133787428D01*
X173534364Y-133810000D01*
X174188764Y-133810000D01*
X174187236Y-135690000D01*
X173534364Y-135690000D01*
X173305187Y-135712572D01*
X173011125Y-135801774D01*
X172740117Y-135946631D01*
X172502576Y-136141576D01*
X172307631Y-136379117D01*
X172162774Y-136650125D01*
X172073572Y-136944187D01*
X172043452Y-137250000D01*
X172073572Y-137555813D01*
X172162774Y-137849875D01*
X172307631Y-138120883D01*
X172502576Y-138358424D01*
X172740117Y-138553369D01*
X173011125Y-138698226D01*
X173305187Y-138787428D01*
X173534364Y-138810000D01*
X174184699Y-138810000D01*
X174183000Y-140899897D01*
X174185420Y-140924675D01*
X174192628Y-140948505D01*
X174204346Y-140970472D01*
X174220124Y-140989730D01*
X174239357Y-141005539D01*
X174261304Y-141017293D01*
X174285122Y-141024540D01*
X174310000Y-141027000D01*
X186610000Y-141027000D01*
X186634776Y-141024560D01*
X186658601Y-141017333D01*
X186680557Y-141005597D01*
X186699803Y-140989803D01*
X186715597Y-140970557D01*
X186727333Y-140948601D01*
X186734560Y-140924776D01*
X186737000Y-140900000D01*
X186737000Y-138810000D01*
X187385636Y-138810000D01*
X187614813Y-138787428D01*
X187908875Y-138698226D01*
X188179883Y-138553369D01*
X188417424Y-138358424D01*
X188597501Y-138139000D01*
X190016340Y-138139000D01*
X190060000Y-138143300D01*
X190103660Y-138139000D01*
X190103667Y-138139000D01*
X190234274Y-138126136D01*
X190401851Y-138075303D01*
X190556291Y-137992753D01*
X190691659Y-137881659D01*
X190719499Y-137847736D01*
X191329164Y-137238072D01*
X191760001Y-137238072D01*
X191933255Y-137221008D01*
X192099851Y-137170472D01*
X192253387Y-137088405D01*
X192387962Y-136977962D01*
X192498405Y-136843387D01*
X192580472Y-136689851D01*
X192631008Y-136523255D01*
X192648072Y-136350001D01*
X192648072Y-135649999D01*
X192631008Y-135476745D01*
X192580472Y-135310149D01*
X192498405Y-135156613D01*
X192387962Y-135022038D01*
X192253387Y-134911595D01*
X192239765Y-134904314D01*
X192280711Y-134870711D01*
X192328322Y-134812696D01*
X192363701Y-134746508D01*
X192385487Y-134674689D01*
X192392843Y-134600000D01*
X192391000Y-134222250D01*
X192295750Y-134127000D01*
X191437000Y-134127000D01*
X191437000Y-134147000D01*
X191183000Y-134147000D01*
X191183000Y-134127000D01*
X190324250Y-134127000D01*
X190229000Y-134222250D01*
X190227157Y-134600000D01*
X190234513Y-134674689D01*
X190256299Y-134746508D01*
X190291678Y-134812696D01*
X190339289Y-134870711D01*
X190380235Y-134904314D01*
X190366613Y-134911595D01*
X190232038Y-135022038D01*
X190121595Y-135156613D01*
X190039528Y-135310149D01*
X189988992Y-135476745D01*
X189971928Y-135649999D01*
X189971928Y-136080837D01*
X189691765Y-136361000D01*
X188597501Y-136361000D01*
X188417424Y-136141576D01*
X188179883Y-135946631D01*
X187908875Y-135801774D01*
X187614813Y-135712572D01*
X187385636Y-135690000D01*
X186737000Y-135690000D01*
X186737000Y-133810000D01*
X187385636Y-133810000D01*
X187614813Y-133787428D01*
X187908875Y-133698226D01*
X188179883Y-133553369D01*
X188366763Y-133400000D01*
X190227157Y-133400000D01*
X190229000Y-133777750D01*
X190324250Y-133873000D01*
X191183000Y-133873000D01*
X191183000Y-133114250D01*
X191437000Y-133114250D01*
X191437000Y-133873000D01*
X192295750Y-133873000D01*
X192391000Y-133777750D01*
X192392843Y-133400000D01*
X192385487Y-133325311D01*
X192363701Y-133253492D01*
X192328322Y-133187304D01*
X192280711Y-133129289D01*
X192222696Y-133081678D01*
X192156508Y-133046299D01*
X192084689Y-133024513D01*
X192010000Y-133017157D01*
X191532250Y-133019000D01*
X191437000Y-133114250D01*
X191183000Y-133114250D01*
X191087750Y-133019000D01*
X190610000Y-133017157D01*
X190535311Y-133024513D01*
X190463492Y-133046299D01*
X190397304Y-133081678D01*
X190339289Y-133129289D01*
X190291678Y-133187304D01*
X190256299Y-133253492D01*
X190234513Y-133325311D01*
X190227157Y-133400000D01*
X188366763Y-133400000D01*
X188417424Y-133358424D01*
X188612369Y-133120883D01*
X188757226Y-132849875D01*
X188846428Y-132555813D01*
X188876548Y-132250000D01*
X188846428Y-131944187D01*
X188757226Y-131650125D01*
X188612369Y-131379117D01*
X188417424Y-131141576D01*
X188179883Y-130946631D01*
X187908875Y-130801774D01*
X187614813Y-130712572D01*
X187385636Y-130690000D01*
X186737000Y-130690000D01*
X186737000Y-128600000D01*
X186734560Y-128575224D01*
X186727333Y-128551399D01*
X186715597Y-128529443D01*
X186699803Y-128510197D01*
X186680557Y-128494403D01*
X186658601Y-128482667D01*
X186634776Y-128475440D01*
X186610000Y-128473000D01*
X174320000Y-128473000D01*
X174295224Y-128475440D01*
X174271399Y-128482667D01*
X174249443Y-128494403D01*
X174230197Y-128510197D01*
X174214403Y-128529443D01*
X174202667Y-128551399D01*
X174195440Y-128575224D01*
X174193000Y-128599897D01*
X174191301Y-130690000D01*
X173907235Y-130690000D01*
X173479000Y-130261765D01*
X173479000Y-121219872D01*
X184195000Y-121219872D01*
X184195000Y-121660128D01*
X184280890Y-122091925D01*
X184449369Y-122498669D01*
X184693962Y-122864729D01*
X185005271Y-123176038D01*
X185371331Y-123420631D01*
X185778075Y-123589110D01*
X186209872Y-123675000D01*
X186650128Y-123675000D01*
X187081925Y-123589110D01*
X187488669Y-123420631D01*
X187854729Y-123176038D01*
X188166038Y-122864729D01*
X188410631Y-122498669D01*
X188579110Y-122091925D01*
X188665000Y-121660128D01*
X188665000Y-121219872D01*
X188579110Y-120788075D01*
X188410631Y-120381331D01*
X188166038Y-120015271D01*
X187854729Y-119703962D01*
X187488669Y-119459369D01*
X187081925Y-119290890D01*
X186650128Y-119205000D01*
X186209872Y-119205000D01*
X185778075Y-119290890D01*
X185371331Y-119459369D01*
X185005271Y-119703962D01*
X184693962Y-120015271D01*
X184449369Y-120381331D01*
X184280890Y-120788075D01*
X184195000Y-121219872D01*
X173479000Y-121219872D01*
X173479000Y-120413668D01*
X173483301Y-120370000D01*
X173466136Y-120195725D01*
X173450716Y-120144892D01*
X173415303Y-120028149D01*
X173332753Y-119873709D01*
X173221659Y-119738341D01*
X173187743Y-119710507D01*
X169819499Y-116342264D01*
X169791659Y-116308341D01*
X169656291Y-116197247D01*
X169528610Y-116129000D01*
X180386340Y-116129000D01*
X180430000Y-116133300D01*
X180473660Y-116129000D01*
X180473667Y-116129000D01*
X180604274Y-116116136D01*
X180771851Y-116065303D01*
X180926291Y-115982753D01*
X181061659Y-115871659D01*
X181089499Y-115837736D01*
X192837743Y-104089493D01*
X192871659Y-104061659D01*
X192982753Y-103926291D01*
X193065303Y-103771851D01*
X193092210Y-103683149D01*
X193116136Y-103604276D01*
X193119406Y-103571076D01*
X193129000Y-103473667D01*
X193129000Y-103473661D01*
X193133300Y-103430001D01*
X193129000Y-103386341D01*
X193129000Y-92545436D01*
X193208505Y-92492312D01*
X193422312Y-92278505D01*
X193456165Y-92227839D01*
X193981766Y-92227839D01*
X194079840Y-92410933D01*
X194309065Y-92516427D01*
X194554466Y-92575174D01*
X194806614Y-92584916D01*
X195055816Y-92545280D01*
X195292498Y-92457788D01*
X195380160Y-92410933D01*
X195478234Y-92227839D01*
X194730000Y-91479605D01*
X193981766Y-92227839D01*
X193456165Y-92227839D01*
X193590299Y-92027095D01*
X193621604Y-91951519D01*
X193802161Y-92048234D01*
X194550395Y-91300000D01*
X194536253Y-91285858D01*
X194715858Y-91106253D01*
X194730000Y-91120395D01*
X194744143Y-91106253D01*
X194923748Y-91285858D01*
X194909605Y-91300000D01*
X195657839Y-92048234D01*
X195840933Y-91950160D01*
X195946427Y-91720935D01*
X196005174Y-91475534D01*
X196014916Y-91223386D01*
X195975280Y-90974184D01*
X195887788Y-90737502D01*
X195840933Y-90649840D01*
X195742286Y-90597000D01*
X197090000Y-90597000D01*
X197114776Y-90594560D01*
X197138601Y-90587333D01*
X197160557Y-90575597D01*
X197179803Y-90559803D01*
X197195597Y-90540557D01*
X197207333Y-90518601D01*
X197214560Y-90494776D01*
X197217000Y-90470000D01*
X197217000Y-86055000D01*
X197252098Y-86055000D01*
X197687759Y-85968342D01*
X198098143Y-85798355D01*
X198467479Y-85551573D01*
X198781573Y-85237479D01*
X199028355Y-84868143D01*
X199198342Y-84457759D01*
X199285000Y-84022098D01*
X199285000Y-83577902D01*
X199198342Y-83142241D01*
X199028355Y-82731857D01*
X198781573Y-82362521D01*
X198467479Y-82048427D01*
X198098143Y-81801645D01*
X197687759Y-81631658D01*
X197252098Y-81545000D01*
X197217000Y-81545000D01*
X197217000Y-78470000D01*
X197214560Y-78445224D01*
X197207333Y-78421399D01*
X197195597Y-78399443D01*
X197179803Y-78380197D01*
X197160557Y-78364403D01*
X197138601Y-78352667D01*
X197114776Y-78345440D01*
X197090000Y-78343000D01*
X187400000Y-78343000D01*
X187375224Y-78345440D01*
X187351399Y-78352667D01*
X187329443Y-78364403D01*
X187310197Y-78380197D01*
X187294403Y-78399443D01*
X187282667Y-78421399D01*
X187275440Y-78445224D01*
X187273000Y-78469894D01*
X187270437Y-81545000D01*
X187207902Y-81545000D01*
X186772241Y-81631658D01*
X186361857Y-81801645D01*
X185992521Y-82048427D01*
X185678427Y-82362521D01*
X185431645Y-82731857D01*
X185261658Y-83142241D01*
X185175000Y-83577902D01*
X185175000Y-84022098D01*
X185261658Y-84457759D01*
X185431645Y-84868143D01*
X185678427Y-85237479D01*
X185992521Y-85551573D01*
X186361857Y-85798355D01*
X186772241Y-85968342D01*
X187207902Y-86055000D01*
X187266679Y-86055000D01*
X187263000Y-90469894D01*
X187265420Y-90494673D01*
X187272627Y-90518503D01*
X187284345Y-90540469D01*
X187300123Y-90559728D01*
X187319355Y-90575538D01*
X187341301Y-90587292D01*
X187365120Y-90594539D01*
X187390000Y-90597000D01*
X188191928Y-90597000D01*
X188191928Y-92200000D01*
X188204188Y-92324482D01*
X188240498Y-92444180D01*
X188299463Y-92554494D01*
X188378815Y-92651185D01*
X188475506Y-92730537D01*
X188585820Y-92789502D01*
X188705518Y-92825812D01*
X188830000Y-92838072D01*
X190630000Y-92838072D01*
X190754482Y-92825812D01*
X190874180Y-92789502D01*
X190984494Y-92730537D01*
X191081185Y-92651185D01*
X191160537Y-92554494D01*
X191213880Y-92454697D01*
X191251495Y-92492312D01*
X191351001Y-92558800D01*
X191351000Y-103061764D01*
X180061765Y-114351000D01*
X175564982Y-114351000D01*
X175661659Y-114271659D01*
X175689498Y-114237737D01*
X176327741Y-113599495D01*
X176361659Y-113571659D01*
X176472753Y-113436291D01*
X176555303Y-113281851D01*
X176588344Y-113172929D01*
X176606136Y-113114276D01*
X176614286Y-113031526D01*
X176619000Y-112983667D01*
X176619000Y-112983661D01*
X176623300Y-112940001D01*
X176619000Y-112896341D01*
X176619000Y-112550000D01*
X177167157Y-112550000D01*
X177174513Y-112624689D01*
X177196299Y-112696508D01*
X177231678Y-112762696D01*
X177279289Y-112820711D01*
X177337304Y-112868322D01*
X177403492Y-112903701D01*
X177475311Y-112925487D01*
X177550000Y-112932843D01*
X178427750Y-112931000D01*
X178523000Y-112835750D01*
X178523000Y-112377000D01*
X178777000Y-112377000D01*
X178777000Y-112835750D01*
X178872250Y-112931000D01*
X179750000Y-112932843D01*
X179824689Y-112925487D01*
X179896508Y-112903701D01*
X179962696Y-112868322D01*
X180020711Y-112820711D01*
X180068322Y-112762696D01*
X180103701Y-112696508D01*
X180125487Y-112624689D01*
X180132843Y-112550000D01*
X180131000Y-112472250D01*
X180035750Y-112377000D01*
X178777000Y-112377000D01*
X178523000Y-112377000D01*
X177264250Y-112377000D01*
X177169000Y-112472250D01*
X177167157Y-112550000D01*
X176619000Y-112550000D01*
X176619000Y-111280000D01*
X177167157Y-111280000D01*
X177174513Y-111354689D01*
X177196299Y-111426508D01*
X177231678Y-111492696D01*
X177279289Y-111550711D01*
X177337304Y-111598322D01*
X177368506Y-111615000D01*
X177337304Y-111631678D01*
X177279289Y-111679289D01*
X177231678Y-111737304D01*
X177196299Y-111803492D01*
X177174513Y-111875311D01*
X177167157Y-111950000D01*
X177169000Y-112027750D01*
X177264250Y-112123000D01*
X178523000Y-112123000D01*
X178523000Y-111664250D01*
X178473750Y-111615000D01*
X178523000Y-111565750D01*
X178523000Y-111107000D01*
X178777000Y-111107000D01*
X178777000Y-111565750D01*
X178826250Y-111615000D01*
X178777000Y-111664250D01*
X178777000Y-112123000D01*
X180035750Y-112123000D01*
X180131000Y-112027750D01*
X180132843Y-111950000D01*
X180125487Y-111875311D01*
X180103701Y-111803492D01*
X180068322Y-111737304D01*
X180020711Y-111679289D01*
X179962696Y-111631678D01*
X179931494Y-111615000D01*
X179962696Y-111598322D01*
X180020711Y-111550711D01*
X180068322Y-111492696D01*
X180103701Y-111426508D01*
X180125487Y-111354689D01*
X180132843Y-111280000D01*
X180131000Y-111202250D01*
X180035750Y-111107000D01*
X178777000Y-111107000D01*
X178523000Y-111107000D01*
X177264250Y-111107000D01*
X177169000Y-111202250D01*
X177167157Y-111280000D01*
X176619000Y-111280000D01*
X176619000Y-109538659D01*
X176623300Y-109494999D01*
X176619000Y-109451334D01*
X176619000Y-109451333D01*
X176606136Y-109320726D01*
X176606136Y-109320724D01*
X176555302Y-109153147D01*
X176533447Y-109112260D01*
X176472753Y-108998709D01*
X176361659Y-108863341D01*
X176327737Y-108835502D01*
X175334499Y-107842264D01*
X175306659Y-107808341D01*
X175171291Y-107697247D01*
X175150358Y-107686058D01*
X175087829Y-107634742D01*
X174951582Y-107561916D01*
X174803745Y-107517071D01*
X174650000Y-107501928D01*
X172750000Y-107501928D01*
X172596255Y-107517071D01*
X172448418Y-107561916D01*
X172312171Y-107634742D01*
X172192749Y-107732749D01*
X172094742Y-107852171D01*
X172021916Y-107988418D01*
X171977071Y-108136255D01*
X171961928Y-108290000D01*
X171961928Y-108590000D01*
X171977071Y-108743745D01*
X172000506Y-108821000D01*
X168068236Y-108821000D01*
X165192236Y-105945000D01*
X174009657Y-105945000D01*
X174017013Y-106019689D01*
X174038799Y-106091508D01*
X174074178Y-106157696D01*
X174121789Y-106215711D01*
X174179804Y-106263322D01*
X174245992Y-106298701D01*
X174317811Y-106320487D01*
X174392500Y-106327843D01*
X174757750Y-106326000D01*
X174853000Y-106230750D01*
X174853000Y-105347000D01*
X174106750Y-105347000D01*
X174011500Y-105442250D01*
X174009657Y-105945000D01*
X165192236Y-105945000D01*
X163742236Y-104495000D01*
X174009657Y-104495000D01*
X174011500Y-104997750D01*
X174106750Y-105093000D01*
X174853000Y-105093000D01*
X174853000Y-104209250D01*
X174757750Y-104114000D01*
X174392500Y-104112157D01*
X174317811Y-104119513D01*
X174245992Y-104141299D01*
X174179804Y-104176678D01*
X174121789Y-104224289D01*
X174074178Y-104282304D01*
X174038799Y-104348492D01*
X174017013Y-104420311D01*
X174009657Y-104495000D01*
X163742236Y-104495000D01*
X158090001Y-98842766D01*
X158090001Y-98798741D01*
X158032933Y-98511843D01*
X157920991Y-98241590D01*
X157913162Y-98229872D01*
X163695000Y-98229872D01*
X163695000Y-98670128D01*
X163780890Y-99101925D01*
X163949369Y-99508669D01*
X164193962Y-99874729D01*
X164505271Y-100186038D01*
X164871331Y-100430631D01*
X165278075Y-100599110D01*
X165709872Y-100685000D01*
X166150128Y-100685000D01*
X166581925Y-100599110D01*
X166988669Y-100430631D01*
X167354729Y-100186038D01*
X167666038Y-99874729D01*
X167910631Y-99508669D01*
X168079110Y-99101925D01*
X168139166Y-98800000D01*
X171137157Y-98800000D01*
X171144513Y-98874689D01*
X171166299Y-98946508D01*
X171201678Y-99012696D01*
X171249289Y-99070711D01*
X171307304Y-99118322D01*
X171373492Y-99153701D01*
X171445311Y-99175487D01*
X171520000Y-99182843D01*
X172147750Y-99181000D01*
X172243000Y-99085750D01*
X172243000Y-98077000D01*
X171234250Y-98077000D01*
X171139000Y-98172250D01*
X171137157Y-98800000D01*
X168139166Y-98800000D01*
X168165000Y-98670128D01*
X168165000Y-98229872D01*
X168079110Y-97798075D01*
X167910631Y-97391331D01*
X167715971Y-97100000D01*
X171137157Y-97100000D01*
X171139000Y-97727750D01*
X171234250Y-97823000D01*
X172243000Y-97823000D01*
X172243000Y-96814250D01*
X172147750Y-96719000D01*
X171520000Y-96717157D01*
X171445311Y-96724513D01*
X171373492Y-96746299D01*
X171307304Y-96781678D01*
X171249289Y-96829289D01*
X171201678Y-96887304D01*
X171166299Y-96953492D01*
X171144513Y-97025311D01*
X171137157Y-97100000D01*
X167715971Y-97100000D01*
X167666038Y-97025271D01*
X167354729Y-96713962D01*
X166988669Y-96469369D01*
X166581925Y-96300890D01*
X166150128Y-96215000D01*
X165709872Y-96215000D01*
X165278075Y-96300890D01*
X164871331Y-96469369D01*
X164505271Y-96713962D01*
X164193962Y-97025271D01*
X163949369Y-97391331D01*
X163780890Y-97798075D01*
X163695000Y-98229872D01*
X157913162Y-98229872D01*
X157758476Y-97998369D01*
X157551633Y-97791526D01*
X157377241Y-97675001D01*
X157551633Y-97558476D01*
X157758476Y-97351633D01*
X157920991Y-97108412D01*
X158032933Y-96838159D01*
X158090001Y-96551261D01*
X158090001Y-96258741D01*
X158032933Y-95971843D01*
X157920991Y-95701590D01*
X157758476Y-95458369D01*
X157551633Y-95251526D01*
X157377241Y-95135001D01*
X157551633Y-95018476D01*
X157758476Y-94811633D01*
X157920991Y-94568412D01*
X158032933Y-94298159D01*
X158090001Y-94011261D01*
X158090001Y-93718741D01*
X158032933Y-93431843D01*
X157920991Y-93161590D01*
X157758476Y-92918369D01*
X157551633Y-92711526D01*
X157377241Y-92595001D01*
X157551633Y-92478476D01*
X157758476Y-92271633D01*
X157920991Y-92028412D01*
X158032933Y-91758159D01*
X158090001Y-91471261D01*
X158090001Y-91178741D01*
X158032933Y-90891843D01*
X157920991Y-90621590D01*
X157758476Y-90378369D01*
X157551633Y-90171526D01*
X157377241Y-90055001D01*
X157551633Y-89938476D01*
X157758476Y-89731633D01*
X157920991Y-89488412D01*
X158032933Y-89218159D01*
X158090001Y-88931261D01*
X158090001Y-88638741D01*
X158032933Y-88351843D01*
X157920991Y-88081590D01*
X157758476Y-87838369D01*
X157551633Y-87631526D01*
X157377241Y-87515001D01*
X157551633Y-87398476D01*
X157570108Y-87380001D01*
X165264870Y-87380001D01*
X172366856Y-94481988D01*
X172366861Y-94481992D01*
X173775000Y-95890132D01*
X173775001Y-96984892D01*
X173756525Y-97003368D01*
X173602450Y-97233958D01*
X173602843Y-97100000D01*
X173595487Y-97025311D01*
X173573701Y-96953492D01*
X173538322Y-96887304D01*
X173490711Y-96829289D01*
X173432696Y-96781678D01*
X173366508Y-96746299D01*
X173294689Y-96724513D01*
X173220000Y-96717157D01*
X172592250Y-96719000D01*
X172497000Y-96814250D01*
X172497000Y-97823000D01*
X172517000Y-97823000D01*
X172517000Y-98077000D01*
X172497000Y-98077000D01*
X172497000Y-99085750D01*
X172592250Y-99181000D01*
X173220000Y-99182843D01*
X173294689Y-99175487D01*
X173366508Y-99153701D01*
X173432696Y-99118322D01*
X173490711Y-99070711D01*
X173538322Y-99012696D01*
X173573701Y-98946508D01*
X173595487Y-98874689D01*
X173602843Y-98800000D01*
X173602450Y-98666042D01*
X173756525Y-98896632D01*
X173775001Y-98915108D01*
X173775000Y-101064248D01*
X173769509Y-101120000D01*
X173775000Y-101175751D01*
X173791423Y-101342498D01*
X173856324Y-101556446D01*
X173961716Y-101753623D01*
X174103551Y-101926449D01*
X174146865Y-101961996D01*
X175920001Y-103735133D01*
X175920000Y-104346246D01*
X175885822Y-104282304D01*
X175838211Y-104224289D01*
X175780196Y-104176678D01*
X175714008Y-104141299D01*
X175642189Y-104119513D01*
X175567500Y-104112157D01*
X175202250Y-104114000D01*
X175107000Y-104209250D01*
X175107000Y-105093000D01*
X175127000Y-105093000D01*
X175127000Y-105347000D01*
X175107000Y-105347000D01*
X175107000Y-106230750D01*
X175202250Y-106326000D01*
X175567500Y-106327843D01*
X175642189Y-106320487D01*
X175714008Y-106298701D01*
X175780196Y-106263322D01*
X175838211Y-106215711D01*
X175885822Y-106157696D01*
X175921201Y-106091508D01*
X175923414Y-106084214D01*
X175979095Y-106188386D01*
X176020001Y-106238230D01*
X176020001Y-106794163D01*
X176014994Y-106845000D01*
X176034977Y-107047895D01*
X176094160Y-107242993D01*
X176190266Y-107422797D01*
X176287197Y-107540907D01*
X176319605Y-107580396D01*
X176359092Y-107612802D01*
X176923079Y-108176789D01*
X176911928Y-108290000D01*
X176911928Y-108590000D01*
X176927071Y-108743745D01*
X176971916Y-108891582D01*
X177044742Y-109027829D01*
X177083454Y-109075000D01*
X177044742Y-109122171D01*
X176971916Y-109258418D01*
X176927071Y-109406255D01*
X176911928Y-109560000D01*
X176911928Y-109860000D01*
X176927071Y-110013745D01*
X176971916Y-110161582D01*
X177044742Y-110297829D01*
X177142749Y-110417251D01*
X177223159Y-110483242D01*
X177196299Y-110533492D01*
X177174513Y-110605311D01*
X177167157Y-110680000D01*
X177169000Y-110757750D01*
X177264250Y-110853000D01*
X178523000Y-110853000D01*
X178523000Y-110833000D01*
X178777000Y-110833000D01*
X178777000Y-110853000D01*
X180035750Y-110853000D01*
X180131000Y-110757750D01*
X180132843Y-110680000D01*
X180125487Y-110605311D01*
X180123573Y-110599000D01*
X180156340Y-110599000D01*
X180200000Y-110603300D01*
X180243660Y-110599000D01*
X180243667Y-110599000D01*
X180374274Y-110586136D01*
X180541851Y-110535303D01*
X180696291Y-110452753D01*
X180831659Y-110341659D01*
X180859499Y-110307736D01*
X183087743Y-108079493D01*
X183121659Y-108051659D01*
X183232753Y-107916291D01*
X183315303Y-107761851D01*
X183344002Y-107667242D01*
X183366136Y-107594275D01*
X183373740Y-107517071D01*
X183379000Y-107463667D01*
X183379000Y-107463661D01*
X183383300Y-107420001D01*
X183379000Y-107376341D01*
X183379000Y-98219872D01*
X184195000Y-98219872D01*
X184195000Y-98660128D01*
X184280890Y-99091925D01*
X184449369Y-99498669D01*
X184693962Y-99864729D01*
X185005271Y-100176038D01*
X185371331Y-100420631D01*
X185778075Y-100589110D01*
X186209872Y-100675000D01*
X186650128Y-100675000D01*
X187081925Y-100589110D01*
X187488669Y-100420631D01*
X187854729Y-100176038D01*
X188166038Y-99864729D01*
X188410631Y-99498669D01*
X188579110Y-99091925D01*
X188665000Y-98660128D01*
X188665000Y-98219872D01*
X188579110Y-97788075D01*
X188410631Y-97381331D01*
X188166038Y-97015271D01*
X187854729Y-96703962D01*
X187488669Y-96459369D01*
X187081925Y-96290890D01*
X186650128Y-96205000D01*
X186209872Y-96205000D01*
X185778075Y-96290890D01*
X185371331Y-96459369D01*
X185005271Y-96703962D01*
X184693962Y-97015271D01*
X184449369Y-97381331D01*
X184280890Y-97788075D01*
X184195000Y-98219872D01*
X183379000Y-98219872D01*
X183379000Y-73688235D01*
X184359163Y-72708072D01*
X186740000Y-72708072D01*
X186864482Y-72695812D01*
X186984180Y-72659502D01*
X187094494Y-72600537D01*
X187191185Y-72521185D01*
X187270537Y-72424494D01*
X187329502Y-72314180D01*
X187365812Y-72194482D01*
X187378072Y-72070000D01*
X187378072Y-71925773D01*
X189143833Y-71925773D01*
X189314283Y-72170316D01*
X189645814Y-72335772D01*
X190003253Y-72433371D01*
X190372865Y-72459361D01*
X190740445Y-72412744D01*
X191091868Y-72295311D01*
X191325717Y-72170316D01*
X191496167Y-71925773D01*
X190320000Y-70749605D01*
X189143833Y-71925773D01*
X187378072Y-71925773D01*
X187378072Y-70622865D01*
X188430639Y-70622865D01*
X188477256Y-70990445D01*
X188594689Y-71341868D01*
X188719684Y-71575717D01*
X188964227Y-71746167D01*
X190140395Y-70570000D01*
X190499605Y-70570000D01*
X191675773Y-71746167D01*
X191920316Y-71575717D01*
X192085772Y-71244186D01*
X192183371Y-70886747D01*
X192209361Y-70517135D01*
X192162744Y-70149555D01*
X192045311Y-69798132D01*
X191920316Y-69564283D01*
X191675773Y-69393833D01*
X190499605Y-70570000D01*
X190140395Y-70570000D01*
X188964227Y-69393833D01*
X188719684Y-69564283D01*
X188554228Y-69895814D01*
X188456629Y-70253253D01*
X188430639Y-70622865D01*
X187378072Y-70622865D01*
X187378072Y-69214227D01*
X189143833Y-69214227D01*
X190320000Y-70390395D01*
X191496167Y-69214227D01*
X191325717Y-68969684D01*
X190994186Y-68804228D01*
X190636747Y-68706629D01*
X190267135Y-68680639D01*
X189899555Y-68727256D01*
X189548132Y-68844689D01*
X189314283Y-68969684D01*
X189143833Y-69214227D01*
X187378072Y-69214227D01*
X187378072Y-69070000D01*
X187365812Y-68945518D01*
X187329502Y-68825820D01*
X187270537Y-68715506D01*
X187191185Y-68618815D01*
X187094494Y-68539463D01*
X186984180Y-68480498D01*
X186864482Y-68444188D01*
X186740000Y-68431928D01*
X183740000Y-68431928D01*
X183615518Y-68444188D01*
X183495820Y-68480498D01*
X183385506Y-68539463D01*
X183288815Y-68618815D01*
X183209463Y-68715506D01*
X183150498Y-68825820D01*
X183114188Y-68945518D01*
X183101928Y-69070000D01*
X183101928Y-71450837D01*
X181892259Y-72660506D01*
X181858342Y-72688341D01*
X181830507Y-72722258D01*
X181830505Y-72722260D01*
X181747248Y-72823709D01*
X181664698Y-72978148D01*
X181613864Y-73145726D01*
X181596700Y-73320000D01*
X181601001Y-73363670D01*
X181601000Y-90551833D01*
X181592962Y-90542038D01*
X181458387Y-90431595D01*
X181304851Y-90349528D01*
X181138255Y-90298992D01*
X180965001Y-90281928D01*
X179714999Y-90281928D01*
X179541745Y-90298992D01*
X179375149Y-90349528D01*
X179221613Y-90431595D01*
X179087038Y-90542038D01*
X178976595Y-90676613D01*
X178974250Y-90681000D01*
X178505750Y-90681000D01*
X178503405Y-90676613D01*
X178392962Y-90542038D01*
X178258387Y-90431595D01*
X178104851Y-90349528D01*
X177938255Y-90298992D01*
X177765001Y-90281928D01*
X176514999Y-90281928D01*
X176341745Y-90298992D01*
X176175149Y-90349528D01*
X176021613Y-90431595D01*
X175887038Y-90542038D01*
X175776595Y-90676613D01*
X175774250Y-90681000D01*
X175243659Y-90681000D01*
X175199999Y-90676700D01*
X175156339Y-90681000D01*
X175156333Y-90681000D01*
X175058924Y-90690594D01*
X175025724Y-90693864D01*
X174965081Y-90712260D01*
X174858149Y-90744697D01*
X174703709Y-90827247D01*
X174568341Y-90938341D01*
X174540506Y-90972258D01*
X173303948Y-92208816D01*
X166576997Y-85481866D01*
X166541450Y-85438552D01*
X166368624Y-85296717D01*
X166171448Y-85191325D01*
X165957500Y-85126424D01*
X165790753Y-85110001D01*
X165790752Y-85110001D01*
X165735001Y-85104510D01*
X165679250Y-85110001D01*
X157570108Y-85110001D01*
X157551633Y-85091526D01*
X157308412Y-84929011D01*
X157081101Y-84834856D01*
X157147950Y-84809800D01*
X157353053Y-84682648D01*
X157529409Y-84517925D01*
X157670240Y-84321962D01*
X157770135Y-84102289D01*
X157794490Y-84021981D01*
X157733628Y-83832001D01*
X156732001Y-83832001D01*
X156732001Y-83852001D01*
X156478001Y-83852001D01*
X156478001Y-83832001D01*
X155476374Y-83832001D01*
X155415512Y-84021981D01*
X155439867Y-84102289D01*
X155539762Y-84321962D01*
X155680593Y-84517925D01*
X155856949Y-84682648D01*
X156062052Y-84809800D01*
X156128901Y-84834856D01*
X155901590Y-84929011D01*
X155658369Y-85091526D01*
X155451526Y-85298369D01*
X155289011Y-85541590D01*
X155177069Y-85811843D01*
X155120001Y-86098741D01*
X155120001Y-86391261D01*
X155177069Y-86678159D01*
X155289011Y-86948412D01*
X155451526Y-87191633D01*
X155658369Y-87398476D01*
X155832761Y-87515001D01*
X155658369Y-87631526D01*
X155451526Y-87838369D01*
X155289011Y-88081590D01*
X155177069Y-88351843D01*
X155120001Y-88638741D01*
X155120001Y-88931261D01*
X155177069Y-89218159D01*
X155289011Y-89488412D01*
X155451526Y-89731633D01*
X155658369Y-89938476D01*
X155832761Y-90055001D01*
X155658369Y-90171526D01*
X155451526Y-90378369D01*
X155289011Y-90621590D01*
X155177069Y-90891843D01*
X155120001Y-91178741D01*
X155120001Y-91471261D01*
X155177069Y-91758159D01*
X155289011Y-92028412D01*
X155451526Y-92271633D01*
X155658369Y-92478476D01*
X155832761Y-92595001D01*
X155658369Y-92711526D01*
X155451526Y-92918369D01*
X155289011Y-93161590D01*
X155177069Y-93431843D01*
X155120001Y-93718741D01*
X155120001Y-94011261D01*
X155177069Y-94298159D01*
X155289011Y-94568412D01*
X155451526Y-94811633D01*
X155658369Y-95018476D01*
X155832761Y-95135001D01*
X155658369Y-95251526D01*
X155451526Y-95458369D01*
X155289011Y-95701590D01*
X155177069Y-95971843D01*
X155120001Y-96258741D01*
X155120001Y-96551261D01*
X155177069Y-96838159D01*
X155289011Y-97108412D01*
X155451526Y-97351633D01*
X155658369Y-97558476D01*
X155832761Y-97675001D01*
X155658369Y-97791526D01*
X155451526Y-97998369D01*
X155289011Y-98241590D01*
X155177069Y-98511843D01*
X155120001Y-98798741D01*
X155120001Y-99091261D01*
X155177069Y-99378159D01*
X155289011Y-99648412D01*
X155451526Y-99891633D01*
X155658369Y-100098476D01*
X155832761Y-100215001D01*
X155658369Y-100331526D01*
X155451526Y-100538369D01*
X155289011Y-100781590D01*
X155177069Y-101051843D01*
X155120001Y-101338741D01*
X155120001Y-101631261D01*
X155177069Y-101918159D01*
X155289011Y-102188412D01*
X155451526Y-102431633D01*
X155658369Y-102638476D01*
X155832761Y-102755001D01*
X155658369Y-102871526D01*
X155451526Y-103078369D01*
X155289011Y-103321590D01*
X155177069Y-103591843D01*
X155120001Y-103878741D01*
X155120001Y-104171261D01*
X155177069Y-104458159D01*
X155289011Y-104728412D01*
X155451526Y-104971633D01*
X155658369Y-105178476D01*
X155832761Y-105295001D01*
X155658369Y-105411526D01*
X155451526Y-105618369D01*
X155289011Y-105861590D01*
X155177069Y-106131843D01*
X155120001Y-106418741D01*
X155120001Y-106711261D01*
X155177069Y-106998159D01*
X155289011Y-107268412D01*
X155451526Y-107511633D01*
X155658369Y-107718476D01*
X155832761Y-107835001D01*
X155658369Y-107951526D01*
X155451526Y-108158369D01*
X155289011Y-108401590D01*
X155177069Y-108671843D01*
X155120001Y-108958741D01*
X155120001Y-109251261D01*
X155177069Y-109538159D01*
X155289011Y-109808412D01*
X155451526Y-110051633D01*
X155658369Y-110258476D01*
X155832761Y-110375001D01*
X155658369Y-110491526D01*
X155451526Y-110698369D01*
X155289011Y-110941590D01*
X155177069Y-111211843D01*
X155120001Y-111498741D01*
X155120001Y-111791261D01*
X155177069Y-112078159D01*
X155289011Y-112348412D01*
X155451526Y-112591633D01*
X155658369Y-112798476D01*
X155832761Y-112915001D01*
X155658369Y-113031526D01*
X155451526Y-113238369D01*
X155289011Y-113481590D01*
X155177069Y-113751843D01*
X155120001Y-114038741D01*
X155120001Y-114331261D01*
X155177069Y-114618159D01*
X155289011Y-114888412D01*
X155451526Y-115131633D01*
X155658369Y-115338476D01*
X155832761Y-115455001D01*
X155658369Y-115571526D01*
X155451526Y-115778369D01*
X155289011Y-116021590D01*
X155177069Y-116291843D01*
X155120001Y-116578741D01*
X155120001Y-116871261D01*
X155177069Y-117158159D01*
X155289011Y-117428412D01*
X155451526Y-117671633D01*
X155658369Y-117878476D01*
X155832761Y-117995001D01*
X155658369Y-118111526D01*
X155451526Y-118318369D01*
X155289011Y-118561590D01*
X155177069Y-118831843D01*
X155120001Y-119118741D01*
X155120001Y-119411261D01*
X155177069Y-119698159D01*
X155289011Y-119968412D01*
X155451526Y-120211633D01*
X155658369Y-120418476D01*
X155832761Y-120535001D01*
X155658369Y-120651526D01*
X155451526Y-120858369D01*
X155289011Y-121101590D01*
X155177069Y-121371843D01*
X155120001Y-121658741D01*
X155120001Y-121951261D01*
X155177069Y-122238159D01*
X155289011Y-122508412D01*
X155451526Y-122751633D01*
X155658369Y-122958476D01*
X155832761Y-123075001D01*
X155658369Y-123191526D01*
X155451526Y-123398369D01*
X155289011Y-123641590D01*
X155177069Y-123911843D01*
X155120001Y-124198741D01*
X155120001Y-124491261D01*
X155177069Y-124778159D01*
X155289011Y-125048412D01*
X155451526Y-125291633D01*
X155658369Y-125498476D01*
X155832761Y-125615001D01*
X155658369Y-125731526D01*
X155451526Y-125938369D01*
X155289011Y-126181590D01*
X155177069Y-126451843D01*
X155120001Y-126738741D01*
X155120001Y-127031261D01*
X155177069Y-127318159D01*
X155289011Y-127588412D01*
X155451526Y-127831633D01*
X155658369Y-128038476D01*
X155832761Y-128155001D01*
X155658369Y-128271526D01*
X155451526Y-128478369D01*
X155289011Y-128721590D01*
X155177069Y-128991843D01*
X155120001Y-129278741D01*
X155120001Y-129571261D01*
X155132790Y-129635554D01*
X148749000Y-123251765D01*
X148749000Y-115673659D01*
X148753300Y-115629999D01*
X148749000Y-115586339D01*
X148749000Y-115586333D01*
X148736136Y-115455726D01*
X148736136Y-115455724D01*
X148692172Y-115310793D01*
X148685303Y-115288149D01*
X148602753Y-115133709D01*
X148491659Y-114998341D01*
X148457742Y-114970506D01*
X142444758Y-108957523D01*
X142387932Y-108671843D01*
X142275990Y-108401590D01*
X142113475Y-108158369D01*
X141906632Y-107951526D01*
X141732240Y-107835001D01*
X141906632Y-107718476D01*
X142113475Y-107511633D01*
X142275990Y-107268412D01*
X142387932Y-106998159D01*
X142445000Y-106711261D01*
X142445000Y-106418741D01*
X142387932Y-106131843D01*
X142275990Y-105861590D01*
X142113475Y-105618369D01*
X141906632Y-105411526D01*
X141732240Y-105295001D01*
X141906632Y-105178476D01*
X142113475Y-104971633D01*
X142275990Y-104728412D01*
X142387932Y-104458159D01*
X142445000Y-104171261D01*
X142445000Y-103878741D01*
X142387932Y-103591843D01*
X142275990Y-103321590D01*
X142113475Y-103078369D01*
X141906632Y-102871526D01*
X141732240Y-102755001D01*
X141906632Y-102638476D01*
X142113475Y-102431633D01*
X142275990Y-102188412D01*
X142387932Y-101918159D01*
X142445000Y-101631261D01*
X142445000Y-101338741D01*
X142387932Y-101051843D01*
X142275990Y-100781590D01*
X142113475Y-100538369D01*
X141906632Y-100331526D01*
X141732240Y-100215001D01*
X141906632Y-100098476D01*
X142113475Y-99891633D01*
X142275990Y-99648412D01*
X142387932Y-99378159D01*
X142445000Y-99091261D01*
X142445000Y-98798741D01*
X142387932Y-98511843D01*
X142275990Y-98241590D01*
X142113475Y-97998369D01*
X141906632Y-97791526D01*
X141732240Y-97675001D01*
X141906632Y-97558476D01*
X142113475Y-97351633D01*
X142275990Y-97108412D01*
X142387932Y-96838159D01*
X142445000Y-96551261D01*
X142445000Y-96258741D01*
X142387932Y-95971843D01*
X142275990Y-95701590D01*
X142113475Y-95458369D01*
X141906632Y-95251526D01*
X141732240Y-95135001D01*
X141906632Y-95018476D01*
X142113475Y-94811633D01*
X142275990Y-94568412D01*
X142387932Y-94298159D01*
X142445000Y-94011261D01*
X142445000Y-93718741D01*
X142387932Y-93431843D01*
X142275990Y-93161590D01*
X142113475Y-92918369D01*
X141906632Y-92711526D01*
X141732240Y-92595001D01*
X141906632Y-92478476D01*
X142113475Y-92271633D01*
X142275990Y-92028412D01*
X142387932Y-91758159D01*
X142445000Y-91471261D01*
X142445000Y-91178741D01*
X142387932Y-90891843D01*
X142275990Y-90621590D01*
X142113475Y-90378369D01*
X141906632Y-90171526D01*
X141732240Y-90055001D01*
X141906632Y-89938476D01*
X142113475Y-89731633D01*
X142275990Y-89488412D01*
X142387932Y-89218159D01*
X142445000Y-88931261D01*
X142445000Y-88638741D01*
X142387932Y-88351843D01*
X142275990Y-88081590D01*
X142113475Y-87838369D01*
X141906632Y-87631526D01*
X141732240Y-87515001D01*
X141906632Y-87398476D01*
X142113475Y-87191633D01*
X142151983Y-87134001D01*
X149421339Y-87134001D01*
X149464999Y-87138301D01*
X149508659Y-87134001D01*
X149508666Y-87134001D01*
X149639273Y-87121137D01*
X149806850Y-87070304D01*
X149961290Y-86987754D01*
X150096658Y-86876660D01*
X150124498Y-86842737D01*
X152159164Y-84808072D01*
X152590001Y-84808072D01*
X152763255Y-84791008D01*
X152929851Y-84740472D01*
X153083387Y-84658405D01*
X153217962Y-84547962D01*
X153328405Y-84413387D01*
X153410472Y-84259851D01*
X153461008Y-84093255D01*
X153478072Y-83920001D01*
X153478072Y-83219999D01*
X153461008Y-83046745D01*
X153410472Y-82880149D01*
X153328405Y-82726613D01*
X153217962Y-82592038D01*
X153191109Y-82570000D01*
X153217962Y-82547962D01*
X153328405Y-82413387D01*
X153410472Y-82259851D01*
X153461008Y-82093255D01*
X153478072Y-81920001D01*
X153478072Y-81219999D01*
X153461008Y-81046745D01*
X153410472Y-80880149D01*
X153328405Y-80726613D01*
X153243761Y-80623474D01*
X153552234Y-80315001D01*
X155116929Y-80315001D01*
X155116929Y-82015001D01*
X155129189Y-82139483D01*
X155165499Y-82259181D01*
X155224464Y-82369495D01*
X155303816Y-82466186D01*
X155400507Y-82545538D01*
X155510821Y-82604503D01*
X155630519Y-82640813D01*
X155755001Y-82653073D01*
X155976768Y-82653073D01*
X155856949Y-82727354D01*
X155680593Y-82892077D01*
X155539762Y-83088040D01*
X155439867Y-83307713D01*
X155415512Y-83388021D01*
X155476374Y-83578001D01*
X156478001Y-83578001D01*
X156478001Y-83558001D01*
X156732001Y-83558001D01*
X156732001Y-83578001D01*
X157733628Y-83578001D01*
X157794490Y-83388021D01*
X157770135Y-83307713D01*
X157670240Y-83088040D01*
X157529409Y-82892077D01*
X157353053Y-82727354D01*
X157233234Y-82653073D01*
X157455001Y-82653073D01*
X157579483Y-82640813D01*
X157699181Y-82604503D01*
X157809495Y-82545538D01*
X157906186Y-82466186D01*
X157985538Y-82369495D01*
X158044503Y-82259181D01*
X158080813Y-82139483D01*
X158093073Y-82015001D01*
X158093073Y-80315001D01*
X158080813Y-80190519D01*
X158044503Y-80070821D01*
X157985538Y-79960507D01*
X157906186Y-79863816D01*
X157809495Y-79784464D01*
X157699181Y-79725499D01*
X157579483Y-79689189D01*
X157455001Y-79676929D01*
X155755001Y-79676929D01*
X155630519Y-79689189D01*
X155510821Y-79725499D01*
X155400507Y-79784464D01*
X155303816Y-79863816D01*
X155224464Y-79960507D01*
X155165499Y-80070821D01*
X155129189Y-80190519D01*
X155116929Y-80315001D01*
X153552234Y-80315001D01*
X157847737Y-76019498D01*
X157881659Y-75991659D01*
X157992753Y-75856291D01*
X158075303Y-75701851D01*
X158106751Y-75598180D01*
X158126136Y-75534276D01*
X158132900Y-75465595D01*
X158139000Y-75403667D01*
X158139000Y-75403661D01*
X158143300Y-75360001D01*
X158139000Y-75316341D01*
X158139000Y-72446032D01*
X158227526Y-72338162D01*
X158336169Y-72134906D01*
X158355857Y-72070000D01*
X160177157Y-72070000D01*
X160184513Y-72144689D01*
X160206299Y-72216508D01*
X160241678Y-72282696D01*
X160289289Y-72340711D01*
X160347304Y-72388322D01*
X160413492Y-72423701D01*
X160485311Y-72445487D01*
X160560000Y-72452843D01*
X161837750Y-72451000D01*
X161933000Y-72355750D01*
X161933000Y-70697000D01*
X162187000Y-70697000D01*
X162187000Y-72355750D01*
X162282250Y-72451000D01*
X163560000Y-72452843D01*
X163634689Y-72445487D01*
X163706508Y-72423701D01*
X163772696Y-72388322D01*
X163830711Y-72340711D01*
X163878322Y-72282696D01*
X163913701Y-72216508D01*
X163935487Y-72144689D01*
X163942843Y-72070000D01*
X163941000Y-70792250D01*
X163845750Y-70697000D01*
X162187000Y-70697000D01*
X161933000Y-70697000D01*
X160274250Y-70697000D01*
X160179000Y-70792250D01*
X160177157Y-72070000D01*
X158355857Y-72070000D01*
X158403071Y-71914359D01*
X158420000Y-71742476D01*
X158420000Y-70897523D01*
X158403071Y-70725640D01*
X158336169Y-70505094D01*
X158227526Y-70301838D01*
X158081318Y-70123682D01*
X157903161Y-69977474D01*
X157699905Y-69868831D01*
X157479359Y-69801929D01*
X157250000Y-69779339D01*
X157020640Y-69801929D01*
X156800094Y-69868831D01*
X156615000Y-69967766D01*
X156429905Y-69868831D01*
X156209359Y-69801929D01*
X155980000Y-69779339D01*
X155750640Y-69801929D01*
X155530094Y-69868831D01*
X155326838Y-69977474D01*
X155148682Y-70123682D01*
X155137322Y-70137524D01*
X155113307Y-70122818D01*
X154977346Y-70078883D01*
X154837000Y-70144135D01*
X154837000Y-70692441D01*
X154826929Y-70725641D01*
X154810000Y-70897524D01*
X154810000Y-71467000D01*
X154613072Y-71467000D01*
X154613072Y-70420000D01*
X154600812Y-70295518D01*
X154583000Y-70236800D01*
X154583000Y-70144135D01*
X154535848Y-70122212D01*
X154505537Y-70065506D01*
X154426185Y-69968815D01*
X154329494Y-69889463D01*
X154219180Y-69830498D01*
X154099482Y-69794188D01*
X153975000Y-69781928D01*
X152905000Y-69781928D01*
X152780518Y-69794188D01*
X152660820Y-69830498D01*
X152550506Y-69889463D01*
X152453815Y-69968815D01*
X152374463Y-70065506D01*
X152315498Y-70175820D01*
X152279188Y-70295518D01*
X152266928Y-70420000D01*
X152266928Y-70431000D01*
X152033659Y-70431000D01*
X151989999Y-70426700D01*
X151946339Y-70431000D01*
X151946333Y-70431000D01*
X151848924Y-70440594D01*
X151815724Y-70443864D01*
X151714058Y-70474704D01*
X151648149Y-70494697D01*
X151493709Y-70577247D01*
X151358341Y-70688341D01*
X151330501Y-70722264D01*
X145720837Y-76331928D01*
X145689999Y-76331928D01*
X145516745Y-76348992D01*
X145350149Y-76399528D01*
X145196613Y-76481595D01*
X145062038Y-76592038D01*
X144951595Y-76726613D01*
X144869528Y-76880149D01*
X144818992Y-77046745D01*
X144801928Y-77219999D01*
X144801928Y-77920001D01*
X144818992Y-78093255D01*
X144869528Y-78259851D01*
X144951595Y-78413387D01*
X145062038Y-78547962D01*
X145088891Y-78570000D01*
X145062038Y-78592038D01*
X144951595Y-78726613D01*
X144869528Y-78880149D01*
X144818992Y-79046745D01*
X144801928Y-79219999D01*
X144801928Y-79650836D01*
X144176764Y-80276001D01*
X142444231Y-80276001D01*
X142435812Y-80190519D01*
X142399502Y-80070821D01*
X142340537Y-79960507D01*
X142261185Y-79863816D01*
X142164494Y-79784464D01*
X142054180Y-79725499D01*
X141934482Y-79689189D01*
X141810000Y-79676929D01*
X140110000Y-79676929D01*
X139985518Y-79689189D01*
X139865820Y-79725499D01*
X139755506Y-79784464D01*
X139658815Y-79863816D01*
X139579463Y-79960507D01*
X139520498Y-80070821D01*
X139484188Y-80190519D01*
X139471928Y-80315001D01*
X139471928Y-82015001D01*
X139484188Y-82139483D01*
X139520498Y-82259181D01*
X139579463Y-82369495D01*
X139658815Y-82466186D01*
X139755506Y-82545538D01*
X139865820Y-82604503D01*
X139938380Y-82626514D01*
X139806525Y-82758369D01*
X139644010Y-83001590D01*
X139532068Y-83271843D01*
X139475000Y-83558741D01*
X139475000Y-83851261D01*
X139532068Y-84138159D01*
X139644010Y-84408412D01*
X139806525Y-84651633D01*
X140013368Y-84858476D01*
X140187760Y-84975001D01*
X140013368Y-85091526D01*
X139806525Y-85298369D01*
X139644010Y-85541590D01*
X139532068Y-85811843D01*
X139475000Y-86098741D01*
X139475000Y-86391261D01*
X139532068Y-86678159D01*
X139644010Y-86948412D01*
X139806525Y-87191633D01*
X140013368Y-87398476D01*
X140187760Y-87515001D01*
X140013368Y-87631526D01*
X139806525Y-87838369D01*
X139644010Y-88081590D01*
X139532068Y-88351843D01*
X139475000Y-88638741D01*
X139475000Y-88931261D01*
X139532068Y-89218159D01*
X139644010Y-89488412D01*
X139806525Y-89731633D01*
X140013368Y-89938476D01*
X140187760Y-90055001D01*
X140013368Y-90171526D01*
X139806525Y-90378369D01*
X139644010Y-90621590D01*
X139532068Y-90891843D01*
X139475000Y-91178741D01*
X139475000Y-91471261D01*
X139532068Y-91758159D01*
X139644010Y-92028412D01*
X139806525Y-92271633D01*
X140013368Y-92478476D01*
X140187760Y-92595001D01*
X140013368Y-92711526D01*
X139806525Y-92918369D01*
X139644010Y-93161590D01*
X139532068Y-93431843D01*
X139475000Y-93718741D01*
X139475000Y-94011261D01*
X139532068Y-94298159D01*
X139644010Y-94568412D01*
X139806525Y-94811633D01*
X140013368Y-95018476D01*
X140187760Y-95135001D01*
X140013368Y-95251526D01*
X139806525Y-95458369D01*
X139644010Y-95701590D01*
X139532068Y-95971843D01*
X139475000Y-96258741D01*
X139475000Y-96551261D01*
X139532068Y-96838159D01*
X139644010Y-97108412D01*
X139806525Y-97351633D01*
X140013368Y-97558476D01*
X140187760Y-97675001D01*
X140013368Y-97791526D01*
X139806525Y-97998369D01*
X139644010Y-98241590D01*
X139532068Y-98511843D01*
X139475000Y-98798741D01*
X139475000Y-99091261D01*
X139532068Y-99378159D01*
X139644010Y-99648412D01*
X139806525Y-99891633D01*
X140013368Y-100098476D01*
X140187760Y-100215001D01*
X140013368Y-100331526D01*
X139806525Y-100538369D01*
X139644010Y-100781590D01*
X139532068Y-101051843D01*
X139475000Y-101338741D01*
X139475000Y-101631261D01*
X139532068Y-101918159D01*
X139644010Y-102188412D01*
X139806525Y-102431633D01*
X140013368Y-102638476D01*
X140187760Y-102755001D01*
X140013368Y-102871526D01*
X139806525Y-103078369D01*
X139644010Y-103321590D01*
X139532068Y-103591843D01*
X139475000Y-103878741D01*
X139475000Y-104171261D01*
X139532068Y-104458159D01*
X139644010Y-104728412D01*
X139806525Y-104971633D01*
X140013368Y-105178476D01*
X140187760Y-105295001D01*
X140013368Y-105411526D01*
X139806525Y-105618369D01*
X139644010Y-105861590D01*
X139532068Y-106131843D01*
X139475000Y-106418741D01*
X139475000Y-106711261D01*
X139532068Y-106998159D01*
X139644010Y-107268412D01*
X139806525Y-107511633D01*
X140013368Y-107718476D01*
X140187760Y-107835001D01*
X140013368Y-107951526D01*
X139806525Y-108158369D01*
X139644010Y-108401590D01*
X139532068Y-108671843D01*
X139475000Y-108958741D01*
X139475000Y-109251261D01*
X139532068Y-109538159D01*
X139644010Y-109808412D01*
X139806525Y-110051633D01*
X140013368Y-110258476D01*
X140187760Y-110375001D01*
X140013368Y-110491526D01*
X139806525Y-110698369D01*
X139644010Y-110941590D01*
X139532068Y-111211843D01*
X139475000Y-111498741D01*
X139475000Y-111791261D01*
X139532068Y-112078159D01*
X139644010Y-112348412D01*
X139806525Y-112591633D01*
X140013368Y-112798476D01*
X140187760Y-112915001D01*
X140013368Y-113031526D01*
X139806525Y-113238369D01*
X139768017Y-113296001D01*
X139128659Y-113296001D01*
X139084999Y-113291701D01*
X139041339Y-113296001D01*
X139041332Y-113296001D01*
X138927324Y-113307230D01*
X138910724Y-113308865D01*
X138837757Y-113330999D01*
X138743148Y-113359698D01*
X138588708Y-113442248D01*
X138453340Y-113553342D01*
X138425505Y-113587259D01*
X135082259Y-116930506D01*
X135048342Y-116958341D01*
X135020507Y-116992258D01*
X135020505Y-116992260D01*
X134937248Y-117093709D01*
X134854698Y-117248148D01*
X134803864Y-117415726D01*
X134786700Y-117590000D01*
X134791001Y-117633670D01*
X134791000Y-131374250D01*
X134786613Y-131376595D01*
X134652038Y-131487038D01*
X134541595Y-131621613D01*
X134459528Y-131775149D01*
X134408992Y-131941745D01*
X134391928Y-132114999D01*
X134391928Y-133365001D01*
X134408992Y-133538255D01*
X134459528Y-133704851D01*
X134541595Y-133858387D01*
X134652038Y-133992962D01*
X134781001Y-134098799D01*
X134781000Y-138548016D01*
X134723368Y-138586525D01*
X134516525Y-138793368D01*
X134362450Y-139023958D01*
X134362843Y-138890000D01*
X134355487Y-138815311D01*
X134333701Y-138743492D01*
X134298322Y-138677304D01*
X134250711Y-138619289D01*
X134192696Y-138571678D01*
X134126508Y-138536299D01*
X134054689Y-138514513D01*
X133980000Y-138507157D01*
X133352250Y-138509000D01*
X133257000Y-138604250D01*
X133003000Y-138604250D01*
X132907750Y-138509000D01*
X132280000Y-138507157D01*
X132205311Y-138514513D01*
X132133492Y-138536299D01*
X132067304Y-138571678D01*
X132009289Y-138619289D01*
X131961678Y-138677304D01*
X131926299Y-138743492D01*
X131904513Y-138815311D01*
X131897157Y-138890000D01*
X125846417Y-138890000D01*
X125847843Y-138607500D01*
X125840487Y-138532811D01*
X125818701Y-138460992D01*
X125783322Y-138394804D01*
X125735711Y-138336789D01*
X125677696Y-138289178D01*
X125611508Y-138253799D01*
X125604214Y-138251586D01*
X125708386Y-138195905D01*
X125842962Y-138085462D01*
X125953405Y-137950886D01*
X126035472Y-137797350D01*
X126086008Y-137630754D01*
X126103072Y-137457500D01*
X126103072Y-136782500D01*
X126086008Y-136609246D01*
X126035472Y-136442650D01*
X126010000Y-136394995D01*
X126010000Y-132676050D01*
X127707979Y-130978072D01*
X128250000Y-130978072D01*
X128374482Y-130965812D01*
X128494180Y-130929502D01*
X128604494Y-130870537D01*
X128701185Y-130791185D01*
X128780537Y-130694494D01*
X128839502Y-130584180D01*
X128861513Y-130511620D01*
X128993368Y-130643475D01*
X129236589Y-130805990D01*
X129506842Y-130917932D01*
X129793740Y-130975000D01*
X130086260Y-130975000D01*
X130373158Y-130917932D01*
X130643411Y-130805990D01*
X130886632Y-130643475D01*
X131093475Y-130436632D01*
X131255990Y-130193411D01*
X131367932Y-129923158D01*
X131425000Y-129636260D01*
X131425000Y-129343740D01*
X131367932Y-129056842D01*
X131255990Y-128786589D01*
X131093475Y-128543368D01*
X130886632Y-128336525D01*
X130643411Y-128174010D01*
X130373158Y-128062068D01*
X130086260Y-128005000D01*
X129793740Y-128005000D01*
X129506842Y-128062068D01*
X129236589Y-128174010D01*
X128993368Y-128336525D01*
X128861513Y-128468380D01*
X128839502Y-128395820D01*
X128780537Y-128285506D01*
X128701185Y-128188815D01*
X128604494Y-128109463D01*
X128494180Y-128050498D01*
X128374482Y-128014188D01*
X128250000Y-128001928D01*
X126550000Y-128001928D01*
X126425518Y-128014188D01*
X126305820Y-128050498D01*
X126195506Y-128109463D01*
X126098815Y-128188815D01*
X126019463Y-128285506D01*
X125960498Y-128395820D01*
X125924188Y-128515518D01*
X125911928Y-128640000D01*
X125911928Y-129182021D01*
X123886086Y-131207864D01*
X123837631Y-131247630D01*
X123678926Y-131441012D01*
X123600321Y-131588072D01*
X123560998Y-131661641D01*
X123488377Y-131901037D01*
X123463857Y-132150000D01*
X123470001Y-132212383D01*
X123470001Y-134519766D01*
X123410000Y-134513857D01*
X123347627Y-134520000D01*
X119267000Y-134520000D01*
X119267000Y-132100000D01*
X119997157Y-132100000D01*
X120004513Y-132174689D01*
X120026299Y-132246508D01*
X120061678Y-132312696D01*
X120109289Y-132370711D01*
X120167304Y-132418322D01*
X120233492Y-132453701D01*
X120305311Y-132475487D01*
X120380000Y-132482843D01*
X121157750Y-132481000D01*
X121253000Y-132385750D01*
X121253000Y-131477000D01*
X121507000Y-131477000D01*
X121507000Y-132385750D01*
X121602250Y-132481000D01*
X122380000Y-132482843D01*
X122454689Y-132475487D01*
X122526508Y-132453701D01*
X122592696Y-132418322D01*
X122650711Y-132370711D01*
X122698322Y-132312696D01*
X122733701Y-132246508D01*
X122755487Y-132174689D01*
X122762843Y-132100000D01*
X122761000Y-131572250D01*
X122665750Y-131477000D01*
X121507000Y-131477000D01*
X121253000Y-131477000D01*
X120094250Y-131477000D01*
X119999000Y-131572250D01*
X119997157Y-132100000D01*
X119267000Y-132100000D01*
X119267000Y-130447000D01*
X120029769Y-130447000D01*
X120026299Y-130453492D01*
X120004513Y-130525311D01*
X119997157Y-130600000D01*
X119999000Y-131127750D01*
X120094250Y-131223000D01*
X121253000Y-131223000D01*
X121253000Y-131203000D01*
X121507000Y-131203000D01*
X121507000Y-131223000D01*
X122665750Y-131223000D01*
X122761000Y-131127750D01*
X122762843Y-130600000D01*
X122755487Y-130525311D01*
X122733701Y-130453492D01*
X122698322Y-130387304D01*
X122676969Y-130361285D01*
X122734494Y-130330537D01*
X122831185Y-130251185D01*
X122910537Y-130154494D01*
X122969502Y-130044180D01*
X123005812Y-129924482D01*
X123018072Y-129800000D01*
X123018072Y-128300000D01*
X123005812Y-128175518D01*
X122969502Y-128055820D01*
X122950356Y-128020000D01*
X125707627Y-128020000D01*
X125770000Y-128026143D01*
X125832373Y-128020000D01*
X125832380Y-128020000D01*
X126018963Y-128001623D01*
X126258359Y-127929003D01*
X126478988Y-127811075D01*
X126672370Y-127652370D01*
X126712141Y-127603909D01*
X130693914Y-123622137D01*
X130742370Y-123582370D01*
X130901075Y-123388988D01*
X131019003Y-123168359D01*
X131082055Y-122960505D01*
X131091623Y-122928964D01*
X131096571Y-122878729D01*
X131110000Y-122742380D01*
X131110000Y-122742374D01*
X131116143Y-122680001D01*
X131110000Y-122617628D01*
X131110000Y-122568259D01*
X131170537Y-122494494D01*
X131229502Y-122384180D01*
X131265812Y-122264482D01*
X131278072Y-122140000D01*
X131278072Y-120540000D01*
X131265812Y-120415518D01*
X131229502Y-120295820D01*
X131170537Y-120185506D01*
X131091185Y-120088815D01*
X130994494Y-120009463D01*
X130884180Y-119950498D01*
X130764482Y-119914188D01*
X130640000Y-119901928D01*
X129040000Y-119901928D01*
X128915518Y-119914188D01*
X128797462Y-119950000D01*
X120735701Y-119950000D01*
X120690537Y-119865506D01*
X120611185Y-119768815D01*
X120514494Y-119689463D01*
X120404180Y-119630498D01*
X120284482Y-119594188D01*
X120160000Y-119581928D01*
X118160000Y-119581928D01*
X118035518Y-119594188D01*
X117915820Y-119630498D01*
X117805506Y-119689463D01*
X117728616Y-119752565D01*
X115910000Y-117933950D01*
X115910000Y-117219267D01*
X118340338Y-117219267D01*
X118450510Y-117412596D01*
X118696806Y-117528095D01*
X118960903Y-117593324D01*
X119232651Y-117605778D01*
X119501607Y-117564977D01*
X119757435Y-117472490D01*
X119869490Y-117412596D01*
X119979662Y-117219267D01*
X119956737Y-117196342D01*
X129163263Y-117196342D01*
X129249218Y-117369207D01*
X129461358Y-117464687D01*
X129688048Y-117516945D01*
X129920578Y-117523975D01*
X130150012Y-117485505D01*
X130367532Y-117403014D01*
X130430782Y-117369207D01*
X130516737Y-117196342D01*
X129840000Y-116519605D01*
X129163263Y-117196342D01*
X119956737Y-117196342D01*
X119160000Y-116399605D01*
X118340338Y-117219267D01*
X115910000Y-117219267D01*
X115910000Y-116292651D01*
X117774222Y-116292651D01*
X117815023Y-116561607D01*
X117907510Y-116817435D01*
X117967404Y-116929490D01*
X118160733Y-117039662D01*
X118980395Y-116220000D01*
X119339605Y-116220000D01*
X120159267Y-117039662D01*
X120352596Y-116929490D01*
X120468095Y-116683194D01*
X120532958Y-116420578D01*
X128656025Y-116420578D01*
X128694495Y-116650012D01*
X128776986Y-116867532D01*
X128810793Y-116930782D01*
X128983658Y-117016737D01*
X129660395Y-116340000D01*
X130019605Y-116340000D01*
X130696342Y-117016737D01*
X130869207Y-116930782D01*
X130964687Y-116718642D01*
X131016945Y-116491952D01*
X131023975Y-116259422D01*
X130985505Y-116029988D01*
X130903014Y-115812468D01*
X130869207Y-115749218D01*
X130696342Y-115663263D01*
X130019605Y-116340000D01*
X129660395Y-116340000D01*
X128983658Y-115663263D01*
X128810793Y-115749218D01*
X128715313Y-115961358D01*
X128663055Y-116188048D01*
X128656025Y-116420578D01*
X120532958Y-116420578D01*
X120533324Y-116419097D01*
X120545778Y-116147349D01*
X120504977Y-115878393D01*
X120412490Y-115622565D01*
X120352596Y-115510510D01*
X120305477Y-115483658D01*
X129163263Y-115483658D01*
X129840000Y-116160395D01*
X130516737Y-115483658D01*
X130430782Y-115310793D01*
X130218642Y-115215313D01*
X129991952Y-115163055D01*
X129759422Y-115156025D01*
X129529988Y-115194495D01*
X129312468Y-115276986D01*
X129249218Y-115310793D01*
X129163263Y-115483658D01*
X120305477Y-115483658D01*
X120159267Y-115400338D01*
X119339605Y-116220000D01*
X118980395Y-116220000D01*
X118160733Y-115400338D01*
X117967404Y-115510510D01*
X117851905Y-115756806D01*
X117786676Y-116020903D01*
X117774222Y-116292651D01*
X115910000Y-116292651D01*
X115910000Y-115220733D01*
X118340338Y-115220733D01*
X119160000Y-116040395D01*
X119979662Y-115220733D01*
X119869490Y-115027404D01*
X119623194Y-114911905D01*
X119359097Y-114846676D01*
X119087349Y-114834222D01*
X118818393Y-114875023D01*
X118562565Y-114967510D01*
X118450510Y-115027404D01*
X118340338Y-115220733D01*
X115910000Y-115220733D01*
X115910000Y-111346050D01*
X115921050Y-111335000D01*
X116085807Y-111335000D01*
X116430665Y-111266404D01*
X116755515Y-111131847D01*
X117047871Y-110936500D01*
X117296500Y-110687871D01*
X117317588Y-110656310D01*
X130383295Y-110656310D01*
X130511578Y-110864999D01*
X130783463Y-110995496D01*
X131075583Y-111070444D01*
X131376711Y-111086961D01*
X131675275Y-111044414D01*
X131959802Y-110944438D01*
X132108422Y-110864999D01*
X132236705Y-110656310D01*
X131310000Y-109729605D01*
X130383295Y-110656310D01*
X117317588Y-110656310D01*
X117491847Y-110395515D01*
X117626404Y-110070665D01*
X117695000Y-109725807D01*
X117695000Y-109616711D01*
X129773039Y-109616711D01*
X129815586Y-109915275D01*
X129915562Y-110199802D01*
X129995001Y-110348422D01*
X130203690Y-110476705D01*
X131130395Y-109550000D01*
X131489605Y-109550000D01*
X132416310Y-110476705D01*
X132624999Y-110348422D01*
X132755496Y-110076537D01*
X132830444Y-109784417D01*
X132846961Y-109483289D01*
X132804414Y-109184725D01*
X132704438Y-108900198D01*
X132624999Y-108751578D01*
X132416310Y-108623295D01*
X131489605Y-109550000D01*
X131130395Y-109550000D01*
X130203690Y-108623295D01*
X129995001Y-108751578D01*
X129864504Y-109023463D01*
X129789556Y-109315583D01*
X129773039Y-109616711D01*
X117695000Y-109616711D01*
X117695000Y-109374193D01*
X117626404Y-109029335D01*
X117491847Y-108704485D01*
X117317589Y-108443690D01*
X130383295Y-108443690D01*
X131310000Y-109370395D01*
X132236705Y-108443690D01*
X132108422Y-108235001D01*
X131836537Y-108104504D01*
X131544417Y-108029556D01*
X131243289Y-108013039D01*
X130944725Y-108055586D01*
X130660198Y-108155562D01*
X130511578Y-108235001D01*
X130383295Y-108443690D01*
X117317589Y-108443690D01*
X117296500Y-108412129D01*
X117047871Y-108163500D01*
X116755515Y-107968153D01*
X116430665Y-107833596D01*
X116085807Y-107765000D01*
X115734193Y-107765000D01*
X115389335Y-107833596D01*
X115064485Y-107968153D01*
X114772129Y-108163500D01*
X114523500Y-108412129D01*
X114328153Y-108704485D01*
X114193596Y-109029335D01*
X114125000Y-109374193D01*
X114125000Y-109538950D01*
X113786091Y-109877859D01*
X113737630Y-109917630D01*
X113578925Y-110111013D01*
X113460997Y-110331642D01*
X113388377Y-110571038D01*
X113370000Y-110757621D01*
X113370000Y-110757627D01*
X113363857Y-110820000D01*
X113370000Y-110882373D01*
X113370001Y-117554000D01*
X111603218Y-117554000D01*
X111579502Y-117475820D01*
X111520537Y-117365506D01*
X111441185Y-117268815D01*
X111344494Y-117189463D01*
X111234180Y-117130498D01*
X111114482Y-117094188D01*
X110990000Y-117081928D01*
X109290000Y-117081928D01*
X109165518Y-117094188D01*
X109045820Y-117130498D01*
X108935506Y-117189463D01*
X108838815Y-117268815D01*
X108759463Y-117365506D01*
X108700498Y-117475820D01*
X108664188Y-117595518D01*
X108651928Y-117720000D01*
X108651928Y-119420000D01*
X108664188Y-119544482D01*
X108700498Y-119664180D01*
X108759463Y-119774494D01*
X108838815Y-119871185D01*
X108935506Y-119950537D01*
X109045820Y-120009502D01*
X109165518Y-120045812D01*
X109290000Y-120058072D01*
X110990000Y-120058072D01*
X111114482Y-120045812D01*
X111234180Y-120009502D01*
X111344494Y-119950537D01*
X111441185Y-119871185D01*
X111520537Y-119774494D01*
X111579502Y-119664180D01*
X111603218Y-119586000D01*
X113969950Y-119586000D01*
X116457863Y-122073914D01*
X116497630Y-122122370D01*
X116691012Y-122281075D01*
X116911641Y-122399003D01*
X117078416Y-122449594D01*
X117151036Y-122471623D01*
X117176755Y-122474156D01*
X117337620Y-122490000D01*
X117337626Y-122490000D01*
X117399999Y-122496143D01*
X117462372Y-122490000D01*
X117584299Y-122490000D01*
X117629463Y-122574494D01*
X117708815Y-122671185D01*
X117805506Y-122750537D01*
X117915820Y-122809502D01*
X118035518Y-122845812D01*
X118160000Y-122858072D01*
X120160000Y-122858072D01*
X120284482Y-122845812D01*
X120404180Y-122809502D01*
X120514494Y-122750537D01*
X120611185Y-122671185D01*
X120690537Y-122574494D01*
X120735701Y-122490000D01*
X128233949Y-122490000D01*
X125243950Y-125480000D01*
X122747333Y-125480000D01*
X122734494Y-125469463D01*
X122624180Y-125410498D01*
X122504482Y-125374188D01*
X122380000Y-125361928D01*
X120380000Y-125361928D01*
X120255518Y-125374188D01*
X120135820Y-125410498D01*
X120025506Y-125469463D01*
X119928815Y-125548815D01*
X119849463Y-125645506D01*
X119790498Y-125755820D01*
X119754188Y-125875518D01*
X119741928Y-126000000D01*
X119741928Y-127500000D01*
X119754188Y-127624482D01*
X119762839Y-127653000D01*
X119267000Y-127653000D01*
X119267000Y-123570000D01*
X119264560Y-123545224D01*
X119257333Y-123521399D01*
X119245597Y-123499443D01*
X119229803Y-123480197D01*
X119210557Y-123464403D01*
X119188601Y-123452667D01*
X119164776Y-123445440D01*
X119140000Y-123443000D01*
X102800000Y-123443000D01*
X102800000Y-100696634D01*
X138150071Y-100677000D01*
X138174846Y-100674546D01*
X138198666Y-100667306D01*
X138220616Y-100655557D01*
X138239852Y-100639753D01*
X138255636Y-100620499D01*
X138267360Y-100598536D01*
X138274573Y-100574707D01*
X138277000Y-100550000D01*
X138277000Y-77662043D01*
X146739927Y-69070000D01*
X160177157Y-69070000D01*
X160179000Y-70347750D01*
X160274250Y-70443000D01*
X161933000Y-70443000D01*
X161933000Y-68784250D01*
X162187000Y-68784250D01*
X162187000Y-70443000D01*
X163845750Y-70443000D01*
X163929029Y-70359721D01*
X165005000Y-70359721D01*
X165005000Y-70780279D01*
X165087047Y-71192756D01*
X165247988Y-71581302D01*
X165481637Y-71930983D01*
X165779017Y-72228363D01*
X166128698Y-72462012D01*
X166517244Y-72622953D01*
X166929721Y-72705000D01*
X167350279Y-72705000D01*
X167762756Y-72622953D01*
X168151302Y-72462012D01*
X168500983Y-72228363D01*
X168659346Y-72070000D01*
X171777157Y-72070000D01*
X171784513Y-72144689D01*
X171806299Y-72216508D01*
X171841678Y-72282696D01*
X171889289Y-72340711D01*
X171947304Y-72388322D01*
X172013492Y-72423701D01*
X172085311Y-72445487D01*
X172160000Y-72452843D01*
X173437750Y-72451000D01*
X173533000Y-72355750D01*
X173533000Y-70697000D01*
X173787000Y-70697000D01*
X173787000Y-72355750D01*
X173882250Y-72451000D01*
X175160000Y-72452843D01*
X175234689Y-72445487D01*
X175306508Y-72423701D01*
X175372696Y-72388322D01*
X175430711Y-72340711D01*
X175478322Y-72282696D01*
X175513701Y-72216508D01*
X175535487Y-72144689D01*
X175542843Y-72070000D01*
X175541000Y-70792250D01*
X175445750Y-70697000D01*
X173787000Y-70697000D01*
X173533000Y-70697000D01*
X171874250Y-70697000D01*
X171779000Y-70792250D01*
X171777157Y-72070000D01*
X168659346Y-72070000D01*
X168798363Y-71930983D01*
X169032012Y-71581302D01*
X169192953Y-71192756D01*
X169275000Y-70780279D01*
X169275000Y-70359721D01*
X169192953Y-69947244D01*
X169032012Y-69558698D01*
X168798363Y-69209017D01*
X168659346Y-69070000D01*
X171777157Y-69070000D01*
X171779000Y-70347750D01*
X171874250Y-70443000D01*
X173533000Y-70443000D01*
X173533000Y-68784250D01*
X173787000Y-68784250D01*
X173787000Y-70443000D01*
X175445750Y-70443000D01*
X175529029Y-70359721D01*
X176605000Y-70359721D01*
X176605000Y-70780279D01*
X176687047Y-71192756D01*
X176847988Y-71581302D01*
X177081637Y-71930983D01*
X177379017Y-72228363D01*
X177728698Y-72462012D01*
X178117244Y-72622953D01*
X178529721Y-72705000D01*
X178950279Y-72705000D01*
X179362756Y-72622953D01*
X179751302Y-72462012D01*
X180100983Y-72228363D01*
X180398363Y-71930983D01*
X180632012Y-71581302D01*
X180792953Y-71192756D01*
X180875000Y-70780279D01*
X180875000Y-70359721D01*
X180792953Y-69947244D01*
X180632012Y-69558698D01*
X180398363Y-69209017D01*
X180100983Y-68911637D01*
X179751302Y-68677988D01*
X179362756Y-68517047D01*
X178950279Y-68435000D01*
X178529721Y-68435000D01*
X178117244Y-68517047D01*
X177728698Y-68677988D01*
X177379017Y-68911637D01*
X177081637Y-69209017D01*
X176847988Y-69558698D01*
X176687047Y-69947244D01*
X176605000Y-70359721D01*
X175529029Y-70359721D01*
X175541000Y-70347750D01*
X175542843Y-69070000D01*
X175535487Y-68995311D01*
X175513701Y-68923492D01*
X175478322Y-68857304D01*
X175430711Y-68799289D01*
X175372696Y-68751678D01*
X175306508Y-68716299D01*
X175234689Y-68694513D01*
X175160000Y-68687157D01*
X173882250Y-68689000D01*
X173787000Y-68784250D01*
X173533000Y-68784250D01*
X173437750Y-68689000D01*
X172160000Y-68687157D01*
X172085311Y-68694513D01*
X172013492Y-68716299D01*
X171947304Y-68751678D01*
X171889289Y-68799289D01*
X171841678Y-68857304D01*
X171806299Y-68923492D01*
X171784513Y-68995311D01*
X171777157Y-69070000D01*
X168659346Y-69070000D01*
X168500983Y-68911637D01*
X168151302Y-68677988D01*
X167762756Y-68517047D01*
X167350279Y-68435000D01*
X166929721Y-68435000D01*
X166517244Y-68517047D01*
X166128698Y-68677988D01*
X165779017Y-68911637D01*
X165481637Y-69209017D01*
X165247988Y-69558698D01*
X165087047Y-69947244D01*
X165005000Y-70359721D01*
X163929029Y-70359721D01*
X163941000Y-70347750D01*
X163942843Y-69070000D01*
X163935487Y-68995311D01*
X163913701Y-68923492D01*
X163878322Y-68857304D01*
X163830711Y-68799289D01*
X163772696Y-68751678D01*
X163706508Y-68716299D01*
X163634689Y-68694513D01*
X163560000Y-68687157D01*
X162282250Y-68689000D01*
X162187000Y-68784250D01*
X161933000Y-68784250D01*
X161837750Y-68689000D01*
X160560000Y-68687157D01*
X160485311Y-68694513D01*
X160413492Y-68716299D01*
X160347304Y-68751678D01*
X160289289Y-68799289D01*
X160241678Y-68857304D01*
X160206299Y-68923492D01*
X160184513Y-68995311D01*
X160177157Y-69070000D01*
X146739927Y-69070000D01*
X152098179Y-63630000D01*
X195813887Y-63630000D01*
X195689234Y-63681633D01*
G04 #@! TA.AperFunction,Conductor*
D41*
G36*
X195689234Y-63681633D02*
G01*
X195118442Y-64063024D01*
X194633024Y-64548442D01*
X194251633Y-65119234D01*
X193988927Y-65753463D01*
X193855000Y-66426758D01*
X193855000Y-67113242D01*
X193988927Y-67786537D01*
X194251633Y-68420766D01*
X194633024Y-68991558D01*
X195118442Y-69476976D01*
X195689234Y-69858367D01*
X196323463Y-70121073D01*
X196996758Y-70255000D01*
X197683242Y-70255000D01*
X198356537Y-70121073D01*
X198990766Y-69858367D01*
X199561558Y-69476976D01*
X200046976Y-68991558D01*
X200428367Y-68420766D01*
X200480000Y-68296113D01*
X200480001Y-139243889D01*
X200428367Y-139119234D01*
X200046976Y-138548442D01*
X199561558Y-138063024D01*
X198990766Y-137681633D01*
X198356537Y-137418927D01*
X197683242Y-137285000D01*
X196996758Y-137285000D01*
X196323463Y-137418927D01*
X195689234Y-137681633D01*
X195118442Y-138063024D01*
X194633024Y-138548442D01*
X194251633Y-139119234D01*
X193988927Y-139753463D01*
X193855000Y-140426758D01*
X193855000Y-141113242D01*
X193988927Y-141786537D01*
X194251633Y-142420766D01*
X194633024Y-142991558D01*
X195118442Y-143476976D01*
X195689234Y-143858367D01*
X195813887Y-143910000D01*
X107466113Y-143910000D01*
X107590766Y-143858367D01*
X108161558Y-143476976D01*
X108646976Y-142991558D01*
X109028367Y-142420766D01*
X109291073Y-141786537D01*
X109318959Y-141646342D01*
X116643263Y-141646342D01*
X116729218Y-141819207D01*
X116941358Y-141914687D01*
X117168048Y-141966945D01*
X117400578Y-141973975D01*
X117630012Y-141935505D01*
X117847532Y-141853014D01*
X117910782Y-141819207D01*
X117996737Y-141646342D01*
X117320000Y-140969605D01*
X116643263Y-141646342D01*
X109318959Y-141646342D01*
X109425000Y-141113242D01*
X109425000Y-140870578D01*
X116136025Y-140870578D01*
X116174495Y-141100012D01*
X116256986Y-141317532D01*
X116290793Y-141380782D01*
X116463658Y-141466737D01*
X117140395Y-140790000D01*
X117499605Y-140790000D01*
X118176342Y-141466737D01*
X118349207Y-141380782D01*
X118444687Y-141168642D01*
X118496945Y-140941952D01*
X118503975Y-140709422D01*
X118483952Y-140590000D01*
X131897157Y-140590000D01*
X131904513Y-140664689D01*
X131926299Y-140736508D01*
X131961678Y-140802696D01*
X132009289Y-140860711D01*
X132067304Y-140908322D01*
X132133492Y-140943701D01*
X132205311Y-140965487D01*
X132280000Y-140972843D01*
X132907750Y-140971000D01*
X133003000Y-140875750D01*
X133003000Y-139867000D01*
X131994250Y-139867000D01*
X131899000Y-139962250D01*
X131897157Y-140590000D01*
X118483952Y-140590000D01*
X118465505Y-140479988D01*
X118383014Y-140262468D01*
X118349207Y-140199218D01*
X118176342Y-140113263D01*
X117499605Y-140790000D01*
X117140395Y-140790000D01*
X116463658Y-140113263D01*
X116290793Y-140199218D01*
X116195313Y-140411358D01*
X116143055Y-140638048D01*
X116136025Y-140870578D01*
X109425000Y-140870578D01*
X109425000Y-140426758D01*
X109326917Y-139933658D01*
X116643263Y-139933658D01*
X117320000Y-140610395D01*
X117996737Y-139933658D01*
X117921576Y-139782500D01*
X123632157Y-139782500D01*
X123639513Y-139857189D01*
X123661299Y-139929008D01*
X123696678Y-139995196D01*
X123744289Y-140053211D01*
X123802304Y-140100822D01*
X123868492Y-140136201D01*
X123940311Y-140157987D01*
X124015000Y-140165343D01*
X124517750Y-140163500D01*
X124613000Y-140068250D01*
X124613000Y-139322000D01*
X124867000Y-139322000D01*
X124867000Y-140068250D01*
X124962250Y-140163500D01*
X125465000Y-140165343D01*
X125539689Y-140157987D01*
X125611508Y-140136201D01*
X125677696Y-140100822D01*
X125735711Y-140053211D01*
X125783322Y-139995196D01*
X125818701Y-139929008D01*
X125840487Y-139857189D01*
X125847843Y-139782500D01*
X125846000Y-139417250D01*
X125750750Y-139322000D01*
X124867000Y-139322000D01*
X124613000Y-139322000D01*
X123729250Y-139322000D01*
X123634000Y-139417250D01*
X123632157Y-139782500D01*
X117921576Y-139782500D01*
X117910782Y-139760793D01*
X117698642Y-139665313D01*
X117471952Y-139613055D01*
X117239422Y-139606025D01*
X117009988Y-139644495D01*
X116792468Y-139726986D01*
X116729218Y-139760793D01*
X116643263Y-139933658D01*
X109326917Y-139933658D01*
X109291073Y-139753463D01*
X109028367Y-139119234D01*
X108646976Y-138548442D01*
X108161558Y-138063024D01*
X107590766Y-137681633D01*
X106956537Y-137418927D01*
X106283242Y-137285000D01*
X105596758Y-137285000D01*
X104923463Y-137418927D01*
X104289234Y-137681633D01*
X103718442Y-138063024D01*
X103233024Y-138548442D01*
X102851633Y-139119234D01*
X102800000Y-139243887D01*
X102800000Y-134697000D01*
X114430950Y-134697000D01*
X115881928Y-136147979D01*
X115881928Y-136590000D01*
X115894188Y-136714482D01*
X115930498Y-136834180D01*
X115989463Y-136944494D01*
X116068815Y-137041185D01*
X116165506Y-137120537D01*
X116275820Y-137179502D01*
X116395518Y-137215812D01*
X116520000Y-137228072D01*
X118120000Y-137228072D01*
X118244482Y-137215812D01*
X118364180Y-137179502D01*
X118474494Y-137120537D01*
X118548259Y-137060000D01*
X122883950Y-137060000D01*
X123387359Y-137563410D01*
X123393992Y-137630754D01*
X123444528Y-137797350D01*
X123526595Y-137950886D01*
X123637038Y-138085462D01*
X123771614Y-138195905D01*
X123875786Y-138251586D01*
X123868492Y-138253799D01*
X123802304Y-138289178D01*
X123744289Y-138336789D01*
X123696678Y-138394804D01*
X123661299Y-138460992D01*
X123639513Y-138532811D01*
X123632157Y-138607500D01*
X123634000Y-138972750D01*
X123729250Y-139068000D01*
X124613000Y-139068000D01*
X124613000Y-139048000D01*
X124867000Y-139048000D01*
X124867000Y-139068000D01*
X125750750Y-139068000D01*
X125846000Y-138972750D01*
X125846417Y-138890000D01*
X131897157Y-138890000D01*
X131899000Y-139517750D01*
X131994250Y-139613000D01*
X133003000Y-139613000D01*
X133003000Y-138604250D01*
X133257000Y-138604250D01*
X133257000Y-139613000D01*
X133277000Y-139613000D01*
X133277000Y-139867000D01*
X133257000Y-139867000D01*
X133257000Y-140875750D01*
X133352250Y-140971000D01*
X133980000Y-140972843D01*
X134054689Y-140965487D01*
X134126508Y-140943701D01*
X134192696Y-140908322D01*
X134250711Y-140860711D01*
X134298322Y-140802696D01*
X134333701Y-140736508D01*
X134355487Y-140664689D01*
X134362843Y-140590000D01*
X134362450Y-140456042D01*
X134516525Y-140686632D01*
X134723368Y-140893475D01*
X134966589Y-141055990D01*
X135236842Y-141167932D01*
X135523740Y-141225000D01*
X135816260Y-141225000D01*
X136103158Y-141167932D01*
X136373411Y-141055990D01*
X136616632Y-140893475D01*
X136823475Y-140686632D01*
X136940000Y-140512240D01*
X137056525Y-140686632D01*
X137263368Y-140893475D01*
X137506589Y-141055990D01*
X137776842Y-141167932D01*
X138063740Y-141225000D01*
X138356260Y-141225000D01*
X138643158Y-141167932D01*
X138913411Y-141055990D01*
X139156632Y-140893475D01*
X139363475Y-140686632D01*
X139480000Y-140512240D01*
X139596525Y-140686632D01*
X139803368Y-140893475D01*
X140046589Y-141055990D01*
X140316842Y-141167932D01*
X140603740Y-141225000D01*
X140896260Y-141225000D01*
X141183158Y-141167932D01*
X141453411Y-141055990D01*
X141696632Y-140893475D01*
X141903475Y-140686632D01*
X141968042Y-140590000D01*
X155297157Y-140590000D01*
X155304513Y-140664689D01*
X155326299Y-140736508D01*
X155361678Y-140802696D01*
X155409289Y-140860711D01*
X155467304Y-140908322D01*
X155533492Y-140943701D01*
X155605311Y-140965487D01*
X155680000Y-140972843D01*
X156307750Y-140971000D01*
X156403000Y-140875750D01*
X156403000Y-139867000D01*
X155394250Y-139867000D01*
X155299000Y-139962250D01*
X155297157Y-140590000D01*
X141968042Y-140590000D01*
X142065990Y-140443411D01*
X142177932Y-140173158D01*
X142235000Y-139886260D01*
X142235000Y-139593740D01*
X142177932Y-139306842D01*
X142065990Y-139036589D01*
X141968043Y-138890000D01*
X155297157Y-138890000D01*
X155299000Y-139517750D01*
X155394250Y-139613000D01*
X156403000Y-139613000D01*
X156403000Y-138604250D01*
X156307750Y-138509000D01*
X155680000Y-138507157D01*
X155605311Y-138514513D01*
X155533492Y-138536299D01*
X155467304Y-138571678D01*
X155409289Y-138619289D01*
X155361678Y-138677304D01*
X155326299Y-138743492D01*
X155304513Y-138815311D01*
X155297157Y-138890000D01*
X141968043Y-138890000D01*
X141903475Y-138793368D01*
X141885000Y-138774893D01*
X141885000Y-136265752D01*
X141890491Y-136210000D01*
X141868577Y-135987501D01*
X141803676Y-135773553D01*
X141759016Y-135690000D01*
X141698284Y-135576377D01*
X141556449Y-135403551D01*
X141513140Y-135368008D01*
X141468072Y-135322940D01*
X141468072Y-135014999D01*
X141451008Y-134841745D01*
X141400472Y-134675149D01*
X141318405Y-134521613D01*
X141315000Y-134517464D01*
X141315000Y-134195751D01*
X141320491Y-134140000D01*
X141298577Y-133917501D01*
X141233676Y-133703553D01*
X141203448Y-133647000D01*
X141128284Y-133506377D01*
X140986449Y-133333551D01*
X140943140Y-133298008D01*
X140068072Y-132422941D01*
X140068072Y-132114999D01*
X140051008Y-131941745D01*
X140050398Y-131939734D01*
X141080132Y-130910001D01*
X141106260Y-130910001D01*
X141393158Y-130852933D01*
X141663411Y-130740991D01*
X141906632Y-130578476D01*
X142044107Y-130441001D01*
X148794161Y-130441001D01*
X156861837Y-138508678D01*
X156752250Y-138509000D01*
X156657000Y-138604250D01*
X156657000Y-139613000D01*
X156677000Y-139613000D01*
X156677000Y-139867000D01*
X156657000Y-139867000D01*
X156657000Y-140875750D01*
X156752250Y-140971000D01*
X157380000Y-140972843D01*
X157454689Y-140965487D01*
X157526508Y-140943701D01*
X157592696Y-140908322D01*
X157650711Y-140860711D01*
X157698322Y-140802696D01*
X157733701Y-140736508D01*
X157755487Y-140664689D01*
X157762843Y-140590000D01*
X157762450Y-140456042D01*
X157916525Y-140686632D01*
X158123368Y-140893475D01*
X158366589Y-141055990D01*
X158636842Y-141167932D01*
X158923740Y-141225000D01*
X159216260Y-141225000D01*
X159503158Y-141167932D01*
X159773411Y-141055990D01*
X160016632Y-140893475D01*
X160223475Y-140686632D01*
X160340000Y-140512240D01*
X160456525Y-140686632D01*
X160663368Y-140893475D01*
X160906589Y-141055990D01*
X161176842Y-141167932D01*
X161463740Y-141225000D01*
X161756260Y-141225000D01*
X162043158Y-141167932D01*
X162313411Y-141055990D01*
X162556632Y-140893475D01*
X162763475Y-140686632D01*
X162880000Y-140512240D01*
X162996525Y-140686632D01*
X163203368Y-140893475D01*
X163446589Y-141055990D01*
X163716842Y-141167932D01*
X164003740Y-141225000D01*
X164296260Y-141225000D01*
X164583158Y-141167932D01*
X164853411Y-141055990D01*
X165096632Y-140893475D01*
X165303475Y-140686632D01*
X165420000Y-140512240D01*
X165536525Y-140686632D01*
X165743368Y-140893475D01*
X165986589Y-141055990D01*
X166256842Y-141167932D01*
X166543740Y-141225000D01*
X166836260Y-141225000D01*
X167123158Y-141167932D01*
X167393411Y-141055990D01*
X167636632Y-140893475D01*
X167843475Y-140686632D01*
X167960000Y-140512240D01*
X168076525Y-140686632D01*
X168283368Y-140893475D01*
X168526589Y-141055990D01*
X168796842Y-141167932D01*
X169083740Y-141225000D01*
X169376260Y-141225000D01*
X169663158Y-141167932D01*
X169933411Y-141055990D01*
X170176632Y-140893475D01*
X170383475Y-140686632D01*
X170545990Y-140443411D01*
X170657932Y-140173158D01*
X170715000Y-139886260D01*
X170715000Y-139593740D01*
X170657932Y-139306842D01*
X170545990Y-139036589D01*
X170383475Y-138793368D01*
X170176632Y-138586525D01*
X169933411Y-138424010D01*
X169663158Y-138312068D01*
X169376260Y-138255000D01*
X169083740Y-138255000D01*
X169015758Y-138268522D01*
X161229000Y-130481765D01*
X161229000Y-121233872D01*
X163695000Y-121233872D01*
X163695000Y-121674128D01*
X163780890Y-122105925D01*
X163949369Y-122512669D01*
X164193962Y-122878729D01*
X164505271Y-123190038D01*
X164871331Y-123434631D01*
X165278075Y-123603110D01*
X165709872Y-123689000D01*
X166150128Y-123689000D01*
X166581925Y-123603110D01*
X166988669Y-123434631D01*
X167354729Y-123190038D01*
X167666038Y-122878729D01*
X167910631Y-122512669D01*
X168079110Y-122105925D01*
X168165000Y-121674128D01*
X168165000Y-121233872D01*
X168079110Y-120802075D01*
X167910631Y-120395331D01*
X167666038Y-120029271D01*
X167354729Y-119717962D01*
X166988669Y-119473369D01*
X166581925Y-119304890D01*
X166150128Y-119219000D01*
X165709872Y-119219000D01*
X165278075Y-119304890D01*
X164871331Y-119473369D01*
X164505271Y-119717962D01*
X164193962Y-120029271D01*
X163949369Y-120395331D01*
X163780890Y-120802075D01*
X163695000Y-121233872D01*
X161229000Y-121233872D01*
X161229000Y-117393668D01*
X161233301Y-117350000D01*
X161216136Y-117175725D01*
X161187683Y-117081928D01*
X161165303Y-117008149D01*
X161082753Y-116853709D01*
X160971659Y-116718341D01*
X160937742Y-116690506D01*
X158041339Y-113794104D01*
X158032933Y-113751843D01*
X157920991Y-113481590D01*
X157758476Y-113238369D01*
X157551633Y-113031526D01*
X157377241Y-112915001D01*
X157479463Y-112846698D01*
X162170501Y-117537736D01*
X162198341Y-117571659D01*
X162333709Y-117682753D01*
X162488149Y-117765303D01*
X162536603Y-117780001D01*
X162655724Y-117816136D01*
X162688924Y-117819406D01*
X162786333Y-117829000D01*
X162786339Y-117829000D01*
X162829999Y-117833300D01*
X162873659Y-117829000D01*
X168791765Y-117829000D01*
X171701000Y-120738236D01*
X171701001Y-130586330D01*
X171696700Y-130630000D01*
X171713864Y-130804274D01*
X171764698Y-130971852D01*
X171847248Y-131126291D01*
X171929652Y-131226700D01*
X171958342Y-131261659D01*
X171992259Y-131289494D01*
X172228996Y-131526232D01*
X172162774Y-131650125D01*
X172073572Y-131944187D01*
X172043452Y-132250000D01*
X172073572Y-132555813D01*
X172162774Y-132849875D01*
X172307631Y-133120883D01*
X172502576Y-133358424D01*
X172740117Y-133553369D01*
X173011125Y-133698226D01*
X173305187Y-133787428D01*
X173534364Y-133810000D01*
X174188764Y-133810000D01*
X174187236Y-135690000D01*
X173534364Y-135690000D01*
X173305187Y-135712572D01*
X173011125Y-135801774D01*
X172740117Y-135946631D01*
X172502576Y-136141576D01*
X172307631Y-136379117D01*
X172162774Y-136650125D01*
X172073572Y-136944187D01*
X172043452Y-137250000D01*
X172073572Y-137555813D01*
X172162774Y-137849875D01*
X172307631Y-138120883D01*
X172502576Y-138358424D01*
X172740117Y-138553369D01*
X173011125Y-138698226D01*
X173305187Y-138787428D01*
X173534364Y-138810000D01*
X174184699Y-138810000D01*
X174183000Y-140899897D01*
X174185420Y-140924675D01*
X174192628Y-140948505D01*
X174204346Y-140970472D01*
X174220124Y-140989730D01*
X174239357Y-141005539D01*
X174261304Y-141017293D01*
X174285122Y-141024540D01*
X174310000Y-141027000D01*
X186610000Y-141027000D01*
X186634776Y-141024560D01*
X186658601Y-141017333D01*
X186680557Y-141005597D01*
X186699803Y-140989803D01*
X186715597Y-140970557D01*
X186727333Y-140948601D01*
X186734560Y-140924776D01*
X186737000Y-140900000D01*
X186737000Y-138810000D01*
X187385636Y-138810000D01*
X187614813Y-138787428D01*
X187908875Y-138698226D01*
X188179883Y-138553369D01*
X188417424Y-138358424D01*
X188597501Y-138139000D01*
X190016340Y-138139000D01*
X190060000Y-138143300D01*
X190103660Y-138139000D01*
X190103667Y-138139000D01*
X190234274Y-138126136D01*
X190401851Y-138075303D01*
X190556291Y-137992753D01*
X190691659Y-137881659D01*
X190719499Y-137847736D01*
X191329164Y-137238072D01*
X191760001Y-137238072D01*
X191933255Y-137221008D01*
X192099851Y-137170472D01*
X192253387Y-137088405D01*
X192387962Y-136977962D01*
X192498405Y-136843387D01*
X192580472Y-136689851D01*
X192631008Y-136523255D01*
X192648072Y-136350001D01*
X192648072Y-135649999D01*
X192631008Y-135476745D01*
X192580472Y-135310149D01*
X192498405Y-135156613D01*
X192387962Y-135022038D01*
X192253387Y-134911595D01*
X192239765Y-134904314D01*
X192280711Y-134870711D01*
X192328322Y-134812696D01*
X192363701Y-134746508D01*
X192385487Y-134674689D01*
X192392843Y-134600000D01*
X192391000Y-134222250D01*
X192295750Y-134127000D01*
X191437000Y-134127000D01*
X191437000Y-134147000D01*
X191183000Y-134147000D01*
X191183000Y-134127000D01*
X190324250Y-134127000D01*
X190229000Y-134222250D01*
X190227157Y-134600000D01*
X190234513Y-134674689D01*
X190256299Y-134746508D01*
X190291678Y-134812696D01*
X190339289Y-134870711D01*
X190380235Y-134904314D01*
X190366613Y-134911595D01*
X190232038Y-135022038D01*
X190121595Y-135156613D01*
X190039528Y-135310149D01*
X189988992Y-135476745D01*
X189971928Y-135649999D01*
X189971928Y-136080837D01*
X189691765Y-136361000D01*
X188597501Y-136361000D01*
X188417424Y-136141576D01*
X188179883Y-135946631D01*
X187908875Y-135801774D01*
X187614813Y-135712572D01*
X187385636Y-135690000D01*
X186737000Y-135690000D01*
X186737000Y-133810000D01*
X187385636Y-133810000D01*
X187614813Y-133787428D01*
X187908875Y-133698226D01*
X188179883Y-133553369D01*
X188366763Y-133400000D01*
X190227157Y-133400000D01*
X190229000Y-133777750D01*
X190324250Y-133873000D01*
X191183000Y-133873000D01*
X191183000Y-133114250D01*
X191437000Y-133114250D01*
X191437000Y-133873000D01*
X192295750Y-133873000D01*
X192391000Y-133777750D01*
X192392843Y-133400000D01*
X192385487Y-133325311D01*
X192363701Y-133253492D01*
X192328322Y-133187304D01*
X192280711Y-133129289D01*
X192222696Y-133081678D01*
X192156508Y-133046299D01*
X192084689Y-133024513D01*
X192010000Y-133017157D01*
X191532250Y-133019000D01*
X191437000Y-133114250D01*
X191183000Y-133114250D01*
X191087750Y-133019000D01*
X190610000Y-133017157D01*
X190535311Y-133024513D01*
X190463492Y-133046299D01*
X190397304Y-133081678D01*
X190339289Y-133129289D01*
X190291678Y-133187304D01*
X190256299Y-133253492D01*
X190234513Y-133325311D01*
X190227157Y-133400000D01*
X188366763Y-133400000D01*
X188417424Y-133358424D01*
X188612369Y-133120883D01*
X188757226Y-132849875D01*
X188846428Y-132555813D01*
X188876548Y-132250000D01*
X188846428Y-131944187D01*
X188757226Y-131650125D01*
X188612369Y-131379117D01*
X188417424Y-131141576D01*
X188179883Y-130946631D01*
X187908875Y-130801774D01*
X187614813Y-130712572D01*
X187385636Y-130690000D01*
X186737000Y-130690000D01*
X186737000Y-128600000D01*
X186734560Y-128575224D01*
X186727333Y-128551399D01*
X186715597Y-128529443D01*
X186699803Y-128510197D01*
X186680557Y-128494403D01*
X186658601Y-128482667D01*
X186634776Y-128475440D01*
X186610000Y-128473000D01*
X174320000Y-128473000D01*
X174295224Y-128475440D01*
X174271399Y-128482667D01*
X174249443Y-128494403D01*
X174230197Y-128510197D01*
X174214403Y-128529443D01*
X174202667Y-128551399D01*
X174195440Y-128575224D01*
X174193000Y-128599897D01*
X174191301Y-130690000D01*
X173907235Y-130690000D01*
X173479000Y-130261765D01*
X173479000Y-121219872D01*
X184195000Y-121219872D01*
X184195000Y-121660128D01*
X184280890Y-122091925D01*
X184449369Y-122498669D01*
X184693962Y-122864729D01*
X185005271Y-123176038D01*
X185371331Y-123420631D01*
X185778075Y-123589110D01*
X186209872Y-123675000D01*
X186650128Y-123675000D01*
X187081925Y-123589110D01*
X187488669Y-123420631D01*
X187854729Y-123176038D01*
X188166038Y-122864729D01*
X188410631Y-122498669D01*
X188579110Y-122091925D01*
X188665000Y-121660128D01*
X188665000Y-121219872D01*
X188579110Y-120788075D01*
X188410631Y-120381331D01*
X188166038Y-120015271D01*
X187854729Y-119703962D01*
X187488669Y-119459369D01*
X187081925Y-119290890D01*
X186650128Y-119205000D01*
X186209872Y-119205000D01*
X185778075Y-119290890D01*
X185371331Y-119459369D01*
X185005271Y-119703962D01*
X184693962Y-120015271D01*
X184449369Y-120381331D01*
X184280890Y-120788075D01*
X184195000Y-121219872D01*
X173479000Y-121219872D01*
X173479000Y-120413668D01*
X173483301Y-120370000D01*
X173466136Y-120195725D01*
X173450716Y-120144892D01*
X173415303Y-120028149D01*
X173332753Y-119873709D01*
X173221659Y-119738341D01*
X173187743Y-119710507D01*
X169819499Y-116342264D01*
X169791659Y-116308341D01*
X169656291Y-116197247D01*
X169528610Y-116129000D01*
X180386340Y-116129000D01*
X180430000Y-116133300D01*
X180473660Y-116129000D01*
X180473667Y-116129000D01*
X180604274Y-116116136D01*
X180771851Y-116065303D01*
X180926291Y-115982753D01*
X181061659Y-115871659D01*
X181089499Y-115837736D01*
X192837743Y-104089493D01*
X192871659Y-104061659D01*
X192982753Y-103926291D01*
X193065303Y-103771851D01*
X193092210Y-103683149D01*
X193116136Y-103604276D01*
X193119406Y-103571076D01*
X193129000Y-103473667D01*
X193129000Y-103473661D01*
X193133300Y-103430001D01*
X193129000Y-103386341D01*
X193129000Y-92545436D01*
X193208505Y-92492312D01*
X193422312Y-92278505D01*
X193456165Y-92227839D01*
X193981766Y-92227839D01*
X194079840Y-92410933D01*
X194309065Y-92516427D01*
X194554466Y-92575174D01*
X194806614Y-92584916D01*
X195055816Y-92545280D01*
X195292498Y-92457788D01*
X195380160Y-92410933D01*
X195478234Y-92227839D01*
X194730000Y-91479605D01*
X193981766Y-92227839D01*
X193456165Y-92227839D01*
X193590299Y-92027095D01*
X193621604Y-91951519D01*
X193802161Y-92048234D01*
X194550395Y-91300000D01*
X194536253Y-91285858D01*
X194715858Y-91106253D01*
X194730000Y-91120395D01*
X194744143Y-91106253D01*
X194923748Y-91285858D01*
X194909605Y-91300000D01*
X195657839Y-92048234D01*
X195840933Y-91950160D01*
X195946427Y-91720935D01*
X196005174Y-91475534D01*
X196014916Y-91223386D01*
X195975280Y-90974184D01*
X195887788Y-90737502D01*
X195840933Y-90649840D01*
X195742286Y-90597000D01*
X197090000Y-90597000D01*
X197114776Y-90594560D01*
X197138601Y-90587333D01*
X197160557Y-90575597D01*
X197179803Y-90559803D01*
X197195597Y-90540557D01*
X197207333Y-90518601D01*
X197214560Y-90494776D01*
X197217000Y-90470000D01*
X197217000Y-86055000D01*
X197252098Y-86055000D01*
X197687759Y-85968342D01*
X198098143Y-85798355D01*
X198467479Y-85551573D01*
X198781573Y-85237479D01*
X199028355Y-84868143D01*
X199198342Y-84457759D01*
X199285000Y-84022098D01*
X199285000Y-83577902D01*
X199198342Y-83142241D01*
X199028355Y-82731857D01*
X198781573Y-82362521D01*
X198467479Y-82048427D01*
X198098143Y-81801645D01*
X197687759Y-81631658D01*
X197252098Y-81545000D01*
X197217000Y-81545000D01*
X197217000Y-78470000D01*
X197214560Y-78445224D01*
X197207333Y-78421399D01*
X197195597Y-78399443D01*
X197179803Y-78380197D01*
X197160557Y-78364403D01*
X197138601Y-78352667D01*
X197114776Y-78345440D01*
X197090000Y-78343000D01*
X187400000Y-78343000D01*
X187375224Y-78345440D01*
X187351399Y-78352667D01*
X187329443Y-78364403D01*
X187310197Y-78380197D01*
X187294403Y-78399443D01*
X187282667Y-78421399D01*
X187275440Y-78445224D01*
X187273000Y-78469894D01*
X187270437Y-81545000D01*
X187207902Y-81545000D01*
X186772241Y-81631658D01*
X186361857Y-81801645D01*
X185992521Y-82048427D01*
X185678427Y-82362521D01*
X185431645Y-82731857D01*
X185261658Y-83142241D01*
X185175000Y-83577902D01*
X185175000Y-84022098D01*
X185261658Y-84457759D01*
X185431645Y-84868143D01*
X185678427Y-85237479D01*
X185992521Y-85551573D01*
X186361857Y-85798355D01*
X186772241Y-85968342D01*
X187207902Y-86055000D01*
X187266679Y-86055000D01*
X187263000Y-90469894D01*
X187265420Y-90494673D01*
X187272627Y-90518503D01*
X187284345Y-90540469D01*
X187300123Y-90559728D01*
X187319355Y-90575538D01*
X187341301Y-90587292D01*
X187365120Y-90594539D01*
X187390000Y-90597000D01*
X188191928Y-90597000D01*
X188191928Y-92200000D01*
X188204188Y-92324482D01*
X188240498Y-92444180D01*
X188299463Y-92554494D01*
X188378815Y-92651185D01*
X188475506Y-92730537D01*
X188585820Y-92789502D01*
X188705518Y-92825812D01*
X188830000Y-92838072D01*
X190630000Y-92838072D01*
X190754482Y-92825812D01*
X190874180Y-92789502D01*
X190984494Y-92730537D01*
X191081185Y-92651185D01*
X191160537Y-92554494D01*
X191213880Y-92454697D01*
X191251495Y-92492312D01*
X191351001Y-92558800D01*
X191351000Y-103061764D01*
X180061765Y-114351000D01*
X175564982Y-114351000D01*
X175661659Y-114271659D01*
X175689498Y-114237737D01*
X176327741Y-113599495D01*
X176361659Y-113571659D01*
X176472753Y-113436291D01*
X176555303Y-113281851D01*
X176588344Y-113172929D01*
X176606136Y-113114276D01*
X176614286Y-113031526D01*
X176619000Y-112983667D01*
X176619000Y-112983661D01*
X176623300Y-112940001D01*
X176619000Y-112896341D01*
X176619000Y-112550000D01*
X177167157Y-112550000D01*
X177174513Y-112624689D01*
X177196299Y-112696508D01*
X177231678Y-112762696D01*
X177279289Y-112820711D01*
X177337304Y-112868322D01*
X177403492Y-112903701D01*
X177475311Y-112925487D01*
X177550000Y-112932843D01*
X178427750Y-112931000D01*
X178523000Y-112835750D01*
X178523000Y-112377000D01*
X178777000Y-112377000D01*
X178777000Y-112835750D01*
X178872250Y-112931000D01*
X179750000Y-112932843D01*
X179824689Y-112925487D01*
X179896508Y-112903701D01*
X179962696Y-112868322D01*
X180020711Y-112820711D01*
X180068322Y-112762696D01*
X180103701Y-112696508D01*
X180125487Y-112624689D01*
X180132843Y-112550000D01*
X180131000Y-112472250D01*
X180035750Y-112377000D01*
X178777000Y-112377000D01*
X178523000Y-112377000D01*
X177264250Y-112377000D01*
X177169000Y-112472250D01*
X177167157Y-112550000D01*
X176619000Y-112550000D01*
X176619000Y-111280000D01*
X177167157Y-111280000D01*
X177174513Y-111354689D01*
X177196299Y-111426508D01*
X177231678Y-111492696D01*
X177279289Y-111550711D01*
X177337304Y-111598322D01*
X177368506Y-111615000D01*
X177337304Y-111631678D01*
X177279289Y-111679289D01*
X177231678Y-111737304D01*
X177196299Y-111803492D01*
X177174513Y-111875311D01*
X177167157Y-111950000D01*
X177169000Y-112027750D01*
X177264250Y-112123000D01*
X178523000Y-112123000D01*
X178523000Y-111664250D01*
X178473750Y-111615000D01*
X178523000Y-111565750D01*
X178523000Y-111107000D01*
X178777000Y-111107000D01*
X178777000Y-111565750D01*
X178826250Y-111615000D01*
X178777000Y-111664250D01*
X178777000Y-112123000D01*
X180035750Y-112123000D01*
X180131000Y-112027750D01*
X180132843Y-111950000D01*
X180125487Y-111875311D01*
X180103701Y-111803492D01*
X180068322Y-111737304D01*
X180020711Y-111679289D01*
X179962696Y-111631678D01*
X179931494Y-111615000D01*
X179962696Y-111598322D01*
X180020711Y-111550711D01*
X180068322Y-111492696D01*
X180103701Y-111426508D01*
X180125487Y-111354689D01*
X180132843Y-111280000D01*
X180131000Y-111202250D01*
X180035750Y-111107000D01*
X178777000Y-111107000D01*
X178523000Y-111107000D01*
X177264250Y-111107000D01*
X177169000Y-111202250D01*
X177167157Y-111280000D01*
X176619000Y-111280000D01*
X176619000Y-109538659D01*
X176623300Y-109494999D01*
X176619000Y-109451334D01*
X176619000Y-109451333D01*
X176606136Y-109320726D01*
X176606136Y-109320724D01*
X176555302Y-109153147D01*
X176533447Y-109112260D01*
X176472753Y-108998709D01*
X176361659Y-108863341D01*
X176327737Y-108835502D01*
X175334499Y-107842264D01*
X175306659Y-107808341D01*
X175171291Y-107697247D01*
X175150358Y-107686058D01*
X175087829Y-107634742D01*
X174951582Y-107561916D01*
X174803745Y-107517071D01*
X174650000Y-107501928D01*
X172750000Y-107501928D01*
X172596255Y-107517071D01*
X172448418Y-107561916D01*
X172312171Y-107634742D01*
X172192749Y-107732749D01*
X172094742Y-107852171D01*
X172021916Y-107988418D01*
X171977071Y-108136255D01*
X171961928Y-108290000D01*
X171961928Y-108590000D01*
X171977071Y-108743745D01*
X172000506Y-108821000D01*
X168068236Y-108821000D01*
X165192236Y-105945000D01*
X174009657Y-105945000D01*
X174017013Y-106019689D01*
X174038799Y-106091508D01*
X174074178Y-106157696D01*
X174121789Y-106215711D01*
X174179804Y-106263322D01*
X174245992Y-106298701D01*
X174317811Y-106320487D01*
X174392500Y-106327843D01*
X174757750Y-106326000D01*
X174853000Y-106230750D01*
X174853000Y-105347000D01*
X174106750Y-105347000D01*
X174011500Y-105442250D01*
X174009657Y-105945000D01*
X165192236Y-105945000D01*
X163742236Y-104495000D01*
X174009657Y-104495000D01*
X174011500Y-104997750D01*
X174106750Y-105093000D01*
X174853000Y-105093000D01*
X174853000Y-104209250D01*
X174757750Y-104114000D01*
X174392500Y-104112157D01*
X174317811Y-104119513D01*
X174245992Y-104141299D01*
X174179804Y-104176678D01*
X174121789Y-104224289D01*
X174074178Y-104282304D01*
X174038799Y-104348492D01*
X174017013Y-104420311D01*
X174009657Y-104495000D01*
X163742236Y-104495000D01*
X158090001Y-98842766D01*
X158090001Y-98798741D01*
X158032933Y-98511843D01*
X157920991Y-98241590D01*
X157913162Y-98229872D01*
X163695000Y-98229872D01*
X163695000Y-98670128D01*
X163780890Y-99101925D01*
X163949369Y-99508669D01*
X164193962Y-99874729D01*
X164505271Y-100186038D01*
X164871331Y-100430631D01*
X165278075Y-100599110D01*
X165709872Y-100685000D01*
X166150128Y-100685000D01*
X166581925Y-100599110D01*
X166988669Y-100430631D01*
X167354729Y-100186038D01*
X167666038Y-99874729D01*
X167910631Y-99508669D01*
X168079110Y-99101925D01*
X168139166Y-98800000D01*
X171137157Y-98800000D01*
X171144513Y-98874689D01*
X171166299Y-98946508D01*
X171201678Y-99012696D01*
X171249289Y-99070711D01*
X171307304Y-99118322D01*
X171373492Y-99153701D01*
X171445311Y-99175487D01*
X171520000Y-99182843D01*
X172147750Y-99181000D01*
X172243000Y-99085750D01*
X172243000Y-98077000D01*
X171234250Y-98077000D01*
X171139000Y-98172250D01*
X171137157Y-98800000D01*
X168139166Y-98800000D01*
X168165000Y-98670128D01*
X168165000Y-98229872D01*
X168079110Y-97798075D01*
X167910631Y-97391331D01*
X167715971Y-97100000D01*
X171137157Y-97100000D01*
X171139000Y-97727750D01*
X171234250Y-97823000D01*
X172243000Y-97823000D01*
X172243000Y-96814250D01*
X172147750Y-96719000D01*
X171520000Y-96717157D01*
X171445311Y-96724513D01*
X171373492Y-96746299D01*
X171307304Y-96781678D01*
X171249289Y-96829289D01*
X171201678Y-96887304D01*
X171166299Y-96953492D01*
X171144513Y-97025311D01*
X171137157Y-97100000D01*
X167715971Y-97100000D01*
X167666038Y-97025271D01*
X167354729Y-96713962D01*
X166988669Y-96469369D01*
X166581925Y-96300890D01*
X166150128Y-96215000D01*
X165709872Y-96215000D01*
X165278075Y-96300890D01*
X164871331Y-96469369D01*
X164505271Y-96713962D01*
X164193962Y-97025271D01*
X163949369Y-97391331D01*
X163780890Y-97798075D01*
X163695000Y-98229872D01*
X157913162Y-98229872D01*
X157758476Y-97998369D01*
X157551633Y-97791526D01*
X157377241Y-97675001D01*
X157551633Y-97558476D01*
X157758476Y-97351633D01*
X157920991Y-97108412D01*
X158032933Y-96838159D01*
X158090001Y-96551261D01*
X158090001Y-96258741D01*
X158032933Y-95971843D01*
X157920991Y-95701590D01*
X157758476Y-95458369D01*
X157551633Y-95251526D01*
X157377241Y-95135001D01*
X157551633Y-95018476D01*
X157758476Y-94811633D01*
X157920991Y-94568412D01*
X158032933Y-94298159D01*
X158090001Y-94011261D01*
X158090001Y-93718741D01*
X158032933Y-93431843D01*
X157920991Y-93161590D01*
X157758476Y-92918369D01*
X157551633Y-92711526D01*
X157377241Y-92595001D01*
X157551633Y-92478476D01*
X157758476Y-92271633D01*
X157920991Y-92028412D01*
X158032933Y-91758159D01*
X158090001Y-91471261D01*
X158090001Y-91178741D01*
X158032933Y-90891843D01*
X157920991Y-90621590D01*
X157758476Y-90378369D01*
X157551633Y-90171526D01*
X157377241Y-90055001D01*
X157551633Y-89938476D01*
X157758476Y-89731633D01*
X157920991Y-89488412D01*
X158032933Y-89218159D01*
X158090001Y-88931261D01*
X158090001Y-88638741D01*
X158032933Y-88351843D01*
X157920991Y-88081590D01*
X157758476Y-87838369D01*
X157551633Y-87631526D01*
X157377241Y-87515001D01*
X157551633Y-87398476D01*
X157570108Y-87380001D01*
X165264870Y-87380001D01*
X172366856Y-94481988D01*
X172366861Y-94481992D01*
X173775000Y-95890132D01*
X173775001Y-96984892D01*
X173756525Y-97003368D01*
X173602450Y-97233958D01*
X173602843Y-97100000D01*
X173595487Y-97025311D01*
X173573701Y-96953492D01*
X173538322Y-96887304D01*
X173490711Y-96829289D01*
X173432696Y-96781678D01*
X173366508Y-96746299D01*
X173294689Y-96724513D01*
X173220000Y-96717157D01*
X172592250Y-96719000D01*
X172497000Y-96814250D01*
X172497000Y-97823000D01*
X172517000Y-97823000D01*
X172517000Y-98077000D01*
X172497000Y-98077000D01*
X172497000Y-99085750D01*
X172592250Y-99181000D01*
X173220000Y-99182843D01*
X173294689Y-99175487D01*
X173366508Y-99153701D01*
X173432696Y-99118322D01*
X173490711Y-99070711D01*
X173538322Y-99012696D01*
X173573701Y-98946508D01*
X173595487Y-98874689D01*
X173602843Y-98800000D01*
X173602450Y-98666042D01*
X173756525Y-98896632D01*
X173775001Y-98915108D01*
X173775000Y-101064248D01*
X173769509Y-101120000D01*
X173775000Y-101175751D01*
X173791423Y-101342498D01*
X173856324Y-101556446D01*
X173961716Y-101753623D01*
X174103551Y-101926449D01*
X174146865Y-101961996D01*
X175920001Y-103735133D01*
X175920000Y-104346246D01*
X175885822Y-104282304D01*
X175838211Y-104224289D01*
X175780196Y-104176678D01*
X175714008Y-104141299D01*
X175642189Y-104119513D01*
X175567500Y-104112157D01*
X175202250Y-104114000D01*
X175107000Y-104209250D01*
X175107000Y-105093000D01*
X175127000Y-105093000D01*
X175127000Y-105347000D01*
X175107000Y-105347000D01*
X175107000Y-106230750D01*
X175202250Y-106326000D01*
X175567500Y-106327843D01*
X175642189Y-106320487D01*
X175714008Y-106298701D01*
X175780196Y-106263322D01*
X175838211Y-106215711D01*
X175885822Y-106157696D01*
X175921201Y-106091508D01*
X175923414Y-106084214D01*
X175979095Y-106188386D01*
X176020001Y-106238230D01*
X176020001Y-106794163D01*
X176014994Y-106845000D01*
X176034977Y-107047895D01*
X176094160Y-107242993D01*
X176190266Y-107422797D01*
X176287197Y-107540907D01*
X176319605Y-107580396D01*
X176359092Y-107612802D01*
X176923079Y-108176789D01*
X176911928Y-108290000D01*
X176911928Y-108590000D01*
X176927071Y-108743745D01*
X176971916Y-108891582D01*
X177044742Y-109027829D01*
X177083454Y-109075000D01*
X177044742Y-109122171D01*
X176971916Y-109258418D01*
X176927071Y-109406255D01*
X176911928Y-109560000D01*
X176911928Y-109860000D01*
X176927071Y-110013745D01*
X176971916Y-110161582D01*
X177044742Y-110297829D01*
X177142749Y-110417251D01*
X177223159Y-110483242D01*
X177196299Y-110533492D01*
X177174513Y-110605311D01*
X177167157Y-110680000D01*
X177169000Y-110757750D01*
X177264250Y-110853000D01*
X178523000Y-110853000D01*
X178523000Y-110833000D01*
X178777000Y-110833000D01*
X178777000Y-110853000D01*
X180035750Y-110853000D01*
X180131000Y-110757750D01*
X180132843Y-110680000D01*
X180125487Y-110605311D01*
X180123573Y-110599000D01*
X180156340Y-110599000D01*
X180200000Y-110603300D01*
X180243660Y-110599000D01*
X180243667Y-110599000D01*
X180374274Y-110586136D01*
X180541851Y-110535303D01*
X180696291Y-110452753D01*
X180831659Y-110341659D01*
X180859499Y-110307736D01*
X183087743Y-108079493D01*
X183121659Y-108051659D01*
X183232753Y-107916291D01*
X183315303Y-107761851D01*
X183344002Y-107667242D01*
X183366136Y-107594275D01*
X183373740Y-107517071D01*
X183379000Y-107463667D01*
X183379000Y-107463661D01*
X183383300Y-107420001D01*
X183379000Y-107376341D01*
X183379000Y-98219872D01*
X184195000Y-98219872D01*
X184195000Y-98660128D01*
X184280890Y-99091925D01*
X184449369Y-99498669D01*
X184693962Y-99864729D01*
X185005271Y-100176038D01*
X185371331Y-100420631D01*
X185778075Y-100589110D01*
X186209872Y-100675000D01*
X186650128Y-100675000D01*
X187081925Y-100589110D01*
X187488669Y-100420631D01*
X187854729Y-100176038D01*
X188166038Y-99864729D01*
X188410631Y-99498669D01*
X188579110Y-99091925D01*
X188665000Y-98660128D01*
X188665000Y-98219872D01*
X188579110Y-97788075D01*
X188410631Y-97381331D01*
X188166038Y-97015271D01*
X187854729Y-96703962D01*
X187488669Y-96459369D01*
X187081925Y-96290890D01*
X186650128Y-96205000D01*
X186209872Y-96205000D01*
X185778075Y-96290890D01*
X185371331Y-96459369D01*
X185005271Y-96703962D01*
X184693962Y-97015271D01*
X184449369Y-97381331D01*
X184280890Y-97788075D01*
X184195000Y-98219872D01*
X183379000Y-98219872D01*
X183379000Y-73688235D01*
X184359163Y-72708072D01*
X186740000Y-72708072D01*
X186864482Y-72695812D01*
X186984180Y-72659502D01*
X187094494Y-72600537D01*
X187191185Y-72521185D01*
X187270537Y-72424494D01*
X187329502Y-72314180D01*
X187365812Y-72194482D01*
X187378072Y-72070000D01*
X187378072Y-71925773D01*
X189143833Y-71925773D01*
X189314283Y-72170316D01*
X189645814Y-72335772D01*
X190003253Y-72433371D01*
X190372865Y-72459361D01*
X190740445Y-72412744D01*
X191091868Y-72295311D01*
X191325717Y-72170316D01*
X191496167Y-71925773D01*
X190320000Y-70749605D01*
X189143833Y-71925773D01*
X187378072Y-71925773D01*
X187378072Y-70622865D01*
X188430639Y-70622865D01*
X188477256Y-70990445D01*
X188594689Y-71341868D01*
X188719684Y-71575717D01*
X188964227Y-71746167D01*
X190140395Y-70570000D01*
X190499605Y-70570000D01*
X191675773Y-71746167D01*
X191920316Y-71575717D01*
X192085772Y-71244186D01*
X192183371Y-70886747D01*
X192209361Y-70517135D01*
X192162744Y-70149555D01*
X192045311Y-69798132D01*
X191920316Y-69564283D01*
X191675773Y-69393833D01*
X190499605Y-70570000D01*
X190140395Y-70570000D01*
X188964227Y-69393833D01*
X188719684Y-69564283D01*
X188554228Y-69895814D01*
X188456629Y-70253253D01*
X188430639Y-70622865D01*
X187378072Y-70622865D01*
X187378072Y-69214227D01*
X189143833Y-69214227D01*
X190320000Y-70390395D01*
X191496167Y-69214227D01*
X191325717Y-68969684D01*
X190994186Y-68804228D01*
X190636747Y-68706629D01*
X190267135Y-68680639D01*
X189899555Y-68727256D01*
X189548132Y-68844689D01*
X189314283Y-68969684D01*
X189143833Y-69214227D01*
X187378072Y-69214227D01*
X187378072Y-69070000D01*
X187365812Y-68945518D01*
X187329502Y-68825820D01*
X187270537Y-68715506D01*
X187191185Y-68618815D01*
X187094494Y-68539463D01*
X186984180Y-68480498D01*
X186864482Y-68444188D01*
X186740000Y-68431928D01*
X183740000Y-68431928D01*
X183615518Y-68444188D01*
X183495820Y-68480498D01*
X183385506Y-68539463D01*
X183288815Y-68618815D01*
X183209463Y-68715506D01*
X183150498Y-68825820D01*
X183114188Y-68945518D01*
X183101928Y-69070000D01*
X183101928Y-71450837D01*
X181892259Y-72660506D01*
X181858342Y-72688341D01*
X181830507Y-72722258D01*
X181830505Y-72722260D01*
X181747248Y-72823709D01*
X181664698Y-72978148D01*
X181613864Y-73145726D01*
X181596700Y-73320000D01*
X181601001Y-73363670D01*
X181601000Y-90551833D01*
X181592962Y-90542038D01*
X181458387Y-90431595D01*
X181304851Y-90349528D01*
X181138255Y-90298992D01*
X180965001Y-90281928D01*
X179714999Y-90281928D01*
X179541745Y-90298992D01*
X179375149Y-90349528D01*
X179221613Y-90431595D01*
X179087038Y-90542038D01*
X178976595Y-90676613D01*
X178974250Y-90681000D01*
X178505750Y-90681000D01*
X178503405Y-90676613D01*
X178392962Y-90542038D01*
X178258387Y-90431595D01*
X178104851Y-90349528D01*
X177938255Y-90298992D01*
X177765001Y-90281928D01*
X176514999Y-90281928D01*
X176341745Y-90298992D01*
X176175149Y-90349528D01*
X176021613Y-90431595D01*
X175887038Y-90542038D01*
X175776595Y-90676613D01*
X175774250Y-90681000D01*
X175243659Y-90681000D01*
X175199999Y-90676700D01*
X175156339Y-90681000D01*
X175156333Y-90681000D01*
X175058924Y-90690594D01*
X175025724Y-90693864D01*
X174965081Y-90712260D01*
X174858149Y-90744697D01*
X174703709Y-90827247D01*
X174568341Y-90938341D01*
X174540506Y-90972258D01*
X173303948Y-92208816D01*
X166576997Y-85481866D01*
X166541450Y-85438552D01*
X166368624Y-85296717D01*
X166171448Y-85191325D01*
X165957500Y-85126424D01*
X165790753Y-85110001D01*
X165790752Y-85110001D01*
X165735001Y-85104510D01*
X165679250Y-85110001D01*
X157570108Y-85110001D01*
X157551633Y-85091526D01*
X157308412Y-84929011D01*
X157081101Y-84834856D01*
X157147950Y-84809800D01*
X157353053Y-84682648D01*
X157529409Y-84517925D01*
X157670240Y-84321962D01*
X157770135Y-84102289D01*
X157794490Y-84021981D01*
X157733628Y-83832001D01*
X156732001Y-83832001D01*
X156732001Y-83852001D01*
X156478001Y-83852001D01*
X156478001Y-83832001D01*
X155476374Y-83832001D01*
X155415512Y-84021981D01*
X155439867Y-84102289D01*
X155539762Y-84321962D01*
X155680593Y-84517925D01*
X155856949Y-84682648D01*
X156062052Y-84809800D01*
X156128901Y-84834856D01*
X155901590Y-84929011D01*
X155658369Y-85091526D01*
X155451526Y-85298369D01*
X155289011Y-85541590D01*
X155177069Y-85811843D01*
X155120001Y-86098741D01*
X155120001Y-86391261D01*
X155177069Y-86678159D01*
X155289011Y-86948412D01*
X155451526Y-87191633D01*
X155658369Y-87398476D01*
X155832761Y-87515001D01*
X155658369Y-87631526D01*
X155451526Y-87838369D01*
X155289011Y-88081590D01*
X155177069Y-88351843D01*
X155120001Y-88638741D01*
X155120001Y-88931261D01*
X155177069Y-89218159D01*
X155289011Y-89488412D01*
X155451526Y-89731633D01*
X155658369Y-89938476D01*
X155832761Y-90055001D01*
X155658369Y-90171526D01*
X155451526Y-90378369D01*
X155289011Y-90621590D01*
X155177069Y-90891843D01*
X155120001Y-91178741D01*
X155120001Y-91471261D01*
X155177069Y-91758159D01*
X155289011Y-92028412D01*
X155451526Y-92271633D01*
X155658369Y-92478476D01*
X155832761Y-92595001D01*
X155658369Y-92711526D01*
X155451526Y-92918369D01*
X155289011Y-93161590D01*
X155177069Y-93431843D01*
X155120001Y-93718741D01*
X155120001Y-94011261D01*
X155177069Y-94298159D01*
X155289011Y-94568412D01*
X155451526Y-94811633D01*
X155658369Y-95018476D01*
X155832761Y-95135001D01*
X155658369Y-95251526D01*
X155451526Y-95458369D01*
X155289011Y-95701590D01*
X155177069Y-95971843D01*
X155120001Y-96258741D01*
X155120001Y-96551261D01*
X155177069Y-96838159D01*
X155289011Y-97108412D01*
X155451526Y-97351633D01*
X155658369Y-97558476D01*
X155832761Y-97675001D01*
X155658369Y-97791526D01*
X155451526Y-97998369D01*
X155289011Y-98241590D01*
X155177069Y-98511843D01*
X155120001Y-98798741D01*
X155120001Y-99091261D01*
X155177069Y-99378159D01*
X155289011Y-99648412D01*
X155451526Y-99891633D01*
X155658369Y-100098476D01*
X155832761Y-100215001D01*
X155658369Y-100331526D01*
X155451526Y-100538369D01*
X155289011Y-100781590D01*
X155177069Y-101051843D01*
X155120001Y-101338741D01*
X155120001Y-101631261D01*
X155177069Y-101918159D01*
X155289011Y-102188412D01*
X155451526Y-102431633D01*
X155658369Y-102638476D01*
X155832761Y-102755001D01*
X155658369Y-102871526D01*
X155451526Y-103078369D01*
X155289011Y-103321590D01*
X155177069Y-103591843D01*
X155120001Y-103878741D01*
X155120001Y-104171261D01*
X155177069Y-104458159D01*
X155289011Y-104728412D01*
X155451526Y-104971633D01*
X155658369Y-105178476D01*
X155832761Y-105295001D01*
X155658369Y-105411526D01*
X155451526Y-105618369D01*
X155289011Y-105861590D01*
X155177069Y-106131843D01*
X155120001Y-106418741D01*
X155120001Y-106711261D01*
X155177069Y-106998159D01*
X155289011Y-107268412D01*
X155451526Y-107511633D01*
X155658369Y-107718476D01*
X155832761Y-107835001D01*
X155658369Y-107951526D01*
X155451526Y-108158369D01*
X155289011Y-108401590D01*
X155177069Y-108671843D01*
X155120001Y-108958741D01*
X155120001Y-109251261D01*
X155177069Y-109538159D01*
X155289011Y-109808412D01*
X155451526Y-110051633D01*
X155658369Y-110258476D01*
X155832761Y-110375001D01*
X155658369Y-110491526D01*
X155451526Y-110698369D01*
X155289011Y-110941590D01*
X155177069Y-111211843D01*
X155120001Y-111498741D01*
X155120001Y-111791261D01*
X155177069Y-112078159D01*
X155289011Y-112348412D01*
X155451526Y-112591633D01*
X155658369Y-112798476D01*
X155832761Y-112915001D01*
X155658369Y-113031526D01*
X155451526Y-113238369D01*
X155289011Y-113481590D01*
X155177069Y-113751843D01*
X155120001Y-114038741D01*
X155120001Y-114331261D01*
X155177069Y-114618159D01*
X155289011Y-114888412D01*
X155451526Y-115131633D01*
X155658369Y-115338476D01*
X155832761Y-115455001D01*
X155658369Y-115571526D01*
X155451526Y-115778369D01*
X155289011Y-116021590D01*
X155177069Y-116291843D01*
X155120001Y-116578741D01*
X155120001Y-116871261D01*
X155177069Y-117158159D01*
X155289011Y-117428412D01*
X155451526Y-117671633D01*
X155658369Y-117878476D01*
X155832761Y-117995001D01*
X155658369Y-118111526D01*
X155451526Y-118318369D01*
X155289011Y-118561590D01*
X155177069Y-118831843D01*
X155120001Y-119118741D01*
X155120001Y-119411261D01*
X155177069Y-119698159D01*
X155289011Y-119968412D01*
X155451526Y-120211633D01*
X155658369Y-120418476D01*
X155832761Y-120535001D01*
X155658369Y-120651526D01*
X155451526Y-120858369D01*
X155289011Y-121101590D01*
X155177069Y-121371843D01*
X155120001Y-121658741D01*
X155120001Y-121951261D01*
X155177069Y-122238159D01*
X155289011Y-122508412D01*
X155451526Y-122751633D01*
X155658369Y-122958476D01*
X155832761Y-123075001D01*
X155658369Y-123191526D01*
X155451526Y-123398369D01*
X155289011Y-123641590D01*
X155177069Y-123911843D01*
X155120001Y-124198741D01*
X155120001Y-124491261D01*
X155177069Y-124778159D01*
X155289011Y-125048412D01*
X155451526Y-125291633D01*
X155658369Y-125498476D01*
X155832761Y-125615001D01*
X155658369Y-125731526D01*
X155451526Y-125938369D01*
X155289011Y-126181590D01*
X155177069Y-126451843D01*
X155120001Y-126738741D01*
X155120001Y-127031261D01*
X155177069Y-127318159D01*
X155289011Y-127588412D01*
X155451526Y-127831633D01*
X155658369Y-128038476D01*
X155832761Y-128155001D01*
X155658369Y-128271526D01*
X155451526Y-128478369D01*
X155289011Y-128721590D01*
X155177069Y-128991843D01*
X155120001Y-129278741D01*
X155120001Y-129571261D01*
X155132790Y-129635554D01*
X148749000Y-123251765D01*
X148749000Y-115673659D01*
X148753300Y-115629999D01*
X148749000Y-115586339D01*
X148749000Y-115586333D01*
X148736136Y-115455726D01*
X148736136Y-115455724D01*
X148692172Y-115310793D01*
X148685303Y-115288149D01*
X148602753Y-115133709D01*
X148491659Y-114998341D01*
X148457742Y-114970506D01*
X142444758Y-108957523D01*
X142387932Y-108671843D01*
X142275990Y-108401590D01*
X142113475Y-108158369D01*
X141906632Y-107951526D01*
X141732240Y-107835001D01*
X141906632Y-107718476D01*
X142113475Y-107511633D01*
X142275990Y-107268412D01*
X142387932Y-106998159D01*
X142445000Y-106711261D01*
X142445000Y-106418741D01*
X142387932Y-106131843D01*
X142275990Y-105861590D01*
X142113475Y-105618369D01*
X141906632Y-105411526D01*
X141732240Y-105295001D01*
X141906632Y-105178476D01*
X142113475Y-104971633D01*
X142275990Y-104728412D01*
X142387932Y-104458159D01*
X142445000Y-104171261D01*
X142445000Y-103878741D01*
X142387932Y-103591843D01*
X142275990Y-103321590D01*
X142113475Y-103078369D01*
X141906632Y-102871526D01*
X141732240Y-102755001D01*
X141906632Y-102638476D01*
X142113475Y-102431633D01*
X142275990Y-102188412D01*
X142387932Y-101918159D01*
X142445000Y-101631261D01*
X142445000Y-101338741D01*
X142387932Y-101051843D01*
X142275990Y-100781590D01*
X142113475Y-100538369D01*
X141906632Y-100331526D01*
X141732240Y-100215001D01*
X141906632Y-100098476D01*
X142113475Y-99891633D01*
X142275990Y-99648412D01*
X142387932Y-99378159D01*
X142445000Y-99091261D01*
X142445000Y-98798741D01*
X142387932Y-98511843D01*
X142275990Y-98241590D01*
X142113475Y-97998369D01*
X141906632Y-97791526D01*
X141732240Y-97675001D01*
X141906632Y-97558476D01*
X142113475Y-97351633D01*
X142275990Y-97108412D01*
X142387932Y-96838159D01*
X142445000Y-96551261D01*
X142445000Y-96258741D01*
X142387932Y-95971843D01*
X142275990Y-95701590D01*
X142113475Y-95458369D01*
X141906632Y-95251526D01*
X141732240Y-95135001D01*
X141906632Y-95018476D01*
X142113475Y-94811633D01*
X142275990Y-94568412D01*
X142387932Y-94298159D01*
X142445000Y-94011261D01*
X142445000Y-93718741D01*
X142387932Y-93431843D01*
X142275990Y-93161590D01*
X142113475Y-92918369D01*
X141906632Y-92711526D01*
X141732240Y-92595001D01*
X141906632Y-92478476D01*
X142113475Y-92271633D01*
X142275990Y-92028412D01*
X142387932Y-91758159D01*
X142445000Y-91471261D01*
X142445000Y-91178741D01*
X142387932Y-90891843D01*
X142275990Y-90621590D01*
X142113475Y-90378369D01*
X141906632Y-90171526D01*
X141732240Y-90055001D01*
X141906632Y-89938476D01*
X142113475Y-89731633D01*
X142275990Y-89488412D01*
X142387932Y-89218159D01*
X142445000Y-88931261D01*
X142445000Y-88638741D01*
X142387932Y-88351843D01*
X142275990Y-88081590D01*
X142113475Y-87838369D01*
X141906632Y-87631526D01*
X141732240Y-87515001D01*
X141906632Y-87398476D01*
X142113475Y-87191633D01*
X142151983Y-87134001D01*
X149421339Y-87134001D01*
X149464999Y-87138301D01*
X149508659Y-87134001D01*
X149508666Y-87134001D01*
X149639273Y-87121137D01*
X149806850Y-87070304D01*
X149961290Y-86987754D01*
X150096658Y-86876660D01*
X150124498Y-86842737D01*
X152159164Y-84808072D01*
X152590001Y-84808072D01*
X152763255Y-84791008D01*
X152929851Y-84740472D01*
X153083387Y-84658405D01*
X153217962Y-84547962D01*
X153328405Y-84413387D01*
X153410472Y-84259851D01*
X153461008Y-84093255D01*
X153478072Y-83920001D01*
X153478072Y-83219999D01*
X153461008Y-83046745D01*
X153410472Y-82880149D01*
X153328405Y-82726613D01*
X153217962Y-82592038D01*
X153191109Y-82570000D01*
X153217962Y-82547962D01*
X153328405Y-82413387D01*
X153410472Y-82259851D01*
X153461008Y-82093255D01*
X153478072Y-81920001D01*
X153478072Y-81219999D01*
X153461008Y-81046745D01*
X153410472Y-80880149D01*
X153328405Y-80726613D01*
X153243761Y-80623474D01*
X153552234Y-80315001D01*
X155116929Y-80315001D01*
X155116929Y-82015001D01*
X155129189Y-82139483D01*
X155165499Y-82259181D01*
X155224464Y-82369495D01*
X155303816Y-82466186D01*
X155400507Y-82545538D01*
X155510821Y-82604503D01*
X155630519Y-82640813D01*
X155755001Y-82653073D01*
X155976768Y-82653073D01*
X155856949Y-82727354D01*
X155680593Y-82892077D01*
X155539762Y-83088040D01*
X155439867Y-83307713D01*
X155415512Y-83388021D01*
X155476374Y-83578001D01*
X156478001Y-83578001D01*
X156478001Y-83558001D01*
X156732001Y-83558001D01*
X156732001Y-83578001D01*
X157733628Y-83578001D01*
X157794490Y-83388021D01*
X157770135Y-83307713D01*
X157670240Y-83088040D01*
X157529409Y-82892077D01*
X157353053Y-82727354D01*
X157233234Y-82653073D01*
X157455001Y-82653073D01*
X157579483Y-82640813D01*
X157699181Y-82604503D01*
X157809495Y-82545538D01*
X157906186Y-82466186D01*
X157985538Y-82369495D01*
X158044503Y-82259181D01*
X158080813Y-82139483D01*
X158093073Y-82015001D01*
X158093073Y-80315001D01*
X158080813Y-80190519D01*
X158044503Y-80070821D01*
X157985538Y-79960507D01*
X157906186Y-79863816D01*
X157809495Y-79784464D01*
X157699181Y-79725499D01*
X157579483Y-79689189D01*
X157455001Y-79676929D01*
X155755001Y-79676929D01*
X155630519Y-79689189D01*
X155510821Y-79725499D01*
X155400507Y-79784464D01*
X155303816Y-79863816D01*
X155224464Y-79960507D01*
X155165499Y-80070821D01*
X155129189Y-80190519D01*
X155116929Y-80315001D01*
X153552234Y-80315001D01*
X157847737Y-76019498D01*
X157881659Y-75991659D01*
X157992753Y-75856291D01*
X158075303Y-75701851D01*
X158106751Y-75598180D01*
X158126136Y-75534276D01*
X158132900Y-75465595D01*
X158139000Y-75403667D01*
X158139000Y-75403661D01*
X158143300Y-75360001D01*
X158139000Y-75316341D01*
X158139000Y-72446032D01*
X158227526Y-72338162D01*
X158336169Y-72134906D01*
X158355857Y-72070000D01*
X160177157Y-72070000D01*
X160184513Y-72144689D01*
X160206299Y-72216508D01*
X160241678Y-72282696D01*
X160289289Y-72340711D01*
X160347304Y-72388322D01*
X160413492Y-72423701D01*
X160485311Y-72445487D01*
X160560000Y-72452843D01*
X161837750Y-72451000D01*
X161933000Y-72355750D01*
X161933000Y-70697000D01*
X162187000Y-70697000D01*
X162187000Y-72355750D01*
X162282250Y-72451000D01*
X163560000Y-72452843D01*
X163634689Y-72445487D01*
X163706508Y-72423701D01*
X163772696Y-72388322D01*
X163830711Y-72340711D01*
X163878322Y-72282696D01*
X163913701Y-72216508D01*
X163935487Y-72144689D01*
X163942843Y-72070000D01*
X163941000Y-70792250D01*
X163845750Y-70697000D01*
X162187000Y-70697000D01*
X161933000Y-70697000D01*
X160274250Y-70697000D01*
X160179000Y-70792250D01*
X160177157Y-72070000D01*
X158355857Y-72070000D01*
X158403071Y-71914359D01*
X158420000Y-71742476D01*
X158420000Y-70897523D01*
X158403071Y-70725640D01*
X158336169Y-70505094D01*
X158227526Y-70301838D01*
X158081318Y-70123682D01*
X157903161Y-69977474D01*
X157699905Y-69868831D01*
X157479359Y-69801929D01*
X157250000Y-69779339D01*
X157020640Y-69801929D01*
X156800094Y-69868831D01*
X156615000Y-69967766D01*
X156429905Y-69868831D01*
X156209359Y-69801929D01*
X155980000Y-69779339D01*
X155750640Y-69801929D01*
X155530094Y-69868831D01*
X155326838Y-69977474D01*
X155148682Y-70123682D01*
X155137322Y-70137524D01*
X155113307Y-70122818D01*
X154977346Y-70078883D01*
X154837000Y-70144135D01*
X154837000Y-70692441D01*
X154826929Y-70725641D01*
X154810000Y-70897524D01*
X154810000Y-71467000D01*
X154613072Y-71467000D01*
X154613072Y-70420000D01*
X154600812Y-70295518D01*
X154583000Y-70236800D01*
X154583000Y-70144135D01*
X154535848Y-70122212D01*
X154505537Y-70065506D01*
X154426185Y-69968815D01*
X154329494Y-69889463D01*
X154219180Y-69830498D01*
X154099482Y-69794188D01*
X153975000Y-69781928D01*
X152905000Y-69781928D01*
X152780518Y-69794188D01*
X152660820Y-69830498D01*
X152550506Y-69889463D01*
X152453815Y-69968815D01*
X152374463Y-70065506D01*
X152315498Y-70175820D01*
X152279188Y-70295518D01*
X152266928Y-70420000D01*
X152266928Y-70431000D01*
X152033659Y-70431000D01*
X151989999Y-70426700D01*
X151946339Y-70431000D01*
X151946333Y-70431000D01*
X151848924Y-70440594D01*
X151815724Y-70443864D01*
X151714058Y-70474704D01*
X151648149Y-70494697D01*
X151493709Y-70577247D01*
X151358341Y-70688341D01*
X151330501Y-70722264D01*
X145720837Y-76331928D01*
X145689999Y-76331928D01*
X145516745Y-76348992D01*
X145350149Y-76399528D01*
X145196613Y-76481595D01*
X145062038Y-76592038D01*
X144951595Y-76726613D01*
X144869528Y-76880149D01*
X144818992Y-77046745D01*
X144801928Y-77219999D01*
X144801928Y-77920001D01*
X144818992Y-78093255D01*
X144869528Y-78259851D01*
X144951595Y-78413387D01*
X145062038Y-78547962D01*
X145088891Y-78570000D01*
X145062038Y-78592038D01*
X144951595Y-78726613D01*
X144869528Y-78880149D01*
X144818992Y-79046745D01*
X144801928Y-79219999D01*
X144801928Y-79650836D01*
X144176764Y-80276001D01*
X142444231Y-80276001D01*
X142435812Y-80190519D01*
X142399502Y-80070821D01*
X142340537Y-79960507D01*
X142261185Y-79863816D01*
X142164494Y-79784464D01*
X142054180Y-79725499D01*
X141934482Y-79689189D01*
X141810000Y-79676929D01*
X140110000Y-79676929D01*
X139985518Y-79689189D01*
X139865820Y-79725499D01*
X139755506Y-79784464D01*
X139658815Y-79863816D01*
X139579463Y-79960507D01*
X139520498Y-80070821D01*
X139484188Y-80190519D01*
X139471928Y-80315001D01*
X139471928Y-82015001D01*
X139484188Y-82139483D01*
X139520498Y-82259181D01*
X139579463Y-82369495D01*
X139658815Y-82466186D01*
X139755506Y-82545538D01*
X139865820Y-82604503D01*
X139938380Y-82626514D01*
X139806525Y-82758369D01*
X139644010Y-83001590D01*
X139532068Y-83271843D01*
X139475000Y-83558741D01*
X139475000Y-83851261D01*
X139532068Y-84138159D01*
X139644010Y-84408412D01*
X139806525Y-84651633D01*
X140013368Y-84858476D01*
X140187760Y-84975001D01*
X140013368Y-85091526D01*
X139806525Y-85298369D01*
X139644010Y-85541590D01*
X139532068Y-85811843D01*
X139475000Y-86098741D01*
X139475000Y-86391261D01*
X139532068Y-86678159D01*
X139644010Y-86948412D01*
X139806525Y-87191633D01*
X140013368Y-87398476D01*
X140187760Y-87515001D01*
X140013368Y-87631526D01*
X139806525Y-87838369D01*
X139644010Y-88081590D01*
X139532068Y-88351843D01*
X139475000Y-88638741D01*
X139475000Y-88931261D01*
X139532068Y-89218159D01*
X139644010Y-89488412D01*
X139806525Y-89731633D01*
X140013368Y-89938476D01*
X140187760Y-90055001D01*
X140013368Y-90171526D01*
X139806525Y-90378369D01*
X139644010Y-90621590D01*
X139532068Y-90891843D01*
X139475000Y-91178741D01*
X139475000Y-91471261D01*
X139532068Y-91758159D01*
X139644010Y-92028412D01*
X139806525Y-92271633D01*
X140013368Y-92478476D01*
X140187760Y-92595001D01*
X140013368Y-92711526D01*
X139806525Y-92918369D01*
X139644010Y-93161590D01*
X139532068Y-93431843D01*
X139475000Y-93718741D01*
X139475000Y-94011261D01*
X139532068Y-94298159D01*
X139644010Y-94568412D01*
X139806525Y-94811633D01*
X140013368Y-95018476D01*
X140187760Y-95135001D01*
X140013368Y-95251526D01*
X139806525Y-95458369D01*
X139644010Y-95701590D01*
X139532068Y-95971843D01*
X139475000Y-96258741D01*
X139475000Y-96551261D01*
X139532068Y-96838159D01*
X139644010Y-97108412D01*
X139806525Y-97351633D01*
X140013368Y-97558476D01*
X140187760Y-97675001D01*
X140013368Y-97791526D01*
X139806525Y-97998369D01*
X139644010Y-98241590D01*
X139532068Y-98511843D01*
X139475000Y-98798741D01*
X139475000Y-99091261D01*
X139532068Y-99378159D01*
X139644010Y-99648412D01*
X139806525Y-99891633D01*
X140013368Y-100098476D01*
X140187760Y-100215001D01*
X140013368Y-100331526D01*
X139806525Y-100538369D01*
X139644010Y-100781590D01*
X139532068Y-101051843D01*
X139475000Y-101338741D01*
X139475000Y-101631261D01*
X139532068Y-101918159D01*
X139644010Y-102188412D01*
X139806525Y-102431633D01*
X140013368Y-102638476D01*
X140187760Y-102755001D01*
X140013368Y-102871526D01*
X139806525Y-103078369D01*
X139644010Y-103321590D01*
X139532068Y-103591843D01*
X139475000Y-103878741D01*
X139475000Y-104171261D01*
X139532068Y-104458159D01*
X139644010Y-104728412D01*
X139806525Y-104971633D01*
X140013368Y-105178476D01*
X140187760Y-105295001D01*
X140013368Y-105411526D01*
X139806525Y-105618369D01*
X139644010Y-105861590D01*
X139532068Y-106131843D01*
X139475000Y-106418741D01*
X139475000Y-106711261D01*
X139532068Y-106998159D01*
X139644010Y-107268412D01*
X139806525Y-107511633D01*
X140013368Y-107718476D01*
X140187760Y-107835001D01*
X140013368Y-107951526D01*
X139806525Y-108158369D01*
X139644010Y-108401590D01*
X139532068Y-108671843D01*
X139475000Y-108958741D01*
X139475000Y-109251261D01*
X139532068Y-109538159D01*
X139644010Y-109808412D01*
X139806525Y-110051633D01*
X140013368Y-110258476D01*
X140187760Y-110375001D01*
X140013368Y-110491526D01*
X139806525Y-110698369D01*
X139644010Y-110941590D01*
X139532068Y-111211843D01*
X139475000Y-111498741D01*
X139475000Y-111791261D01*
X139532068Y-112078159D01*
X139644010Y-112348412D01*
X139806525Y-112591633D01*
X140013368Y-112798476D01*
X140187760Y-112915001D01*
X140013368Y-113031526D01*
X139806525Y-113238369D01*
X139768017Y-113296001D01*
X139128659Y-113296001D01*
X139084999Y-113291701D01*
X139041339Y-113296001D01*
X139041332Y-113296001D01*
X138927324Y-113307230D01*
X138910724Y-113308865D01*
X138837757Y-113330999D01*
X138743148Y-113359698D01*
X138588708Y-113442248D01*
X138453340Y-113553342D01*
X138425505Y-113587259D01*
X135082259Y-116930506D01*
X135048342Y-116958341D01*
X135020507Y-116992258D01*
X135020505Y-116992260D01*
X134937248Y-117093709D01*
X134854698Y-117248148D01*
X134803864Y-117415726D01*
X134786700Y-117590000D01*
X134791001Y-117633670D01*
X134791000Y-131374250D01*
X134786613Y-131376595D01*
X134652038Y-131487038D01*
X134541595Y-131621613D01*
X134459528Y-131775149D01*
X134408992Y-131941745D01*
X134391928Y-132114999D01*
X134391928Y-133365001D01*
X134408992Y-133538255D01*
X134459528Y-133704851D01*
X134541595Y-133858387D01*
X134652038Y-133992962D01*
X134781001Y-134098799D01*
X134781000Y-138548016D01*
X134723368Y-138586525D01*
X134516525Y-138793368D01*
X134362450Y-139023958D01*
X134362843Y-138890000D01*
X134355487Y-138815311D01*
X134333701Y-138743492D01*
X134298322Y-138677304D01*
X134250711Y-138619289D01*
X134192696Y-138571678D01*
X134126508Y-138536299D01*
X134054689Y-138514513D01*
X133980000Y-138507157D01*
X133352250Y-138509000D01*
X133257000Y-138604250D01*
X133003000Y-138604250D01*
X132907750Y-138509000D01*
X132280000Y-138507157D01*
X132205311Y-138514513D01*
X132133492Y-138536299D01*
X132067304Y-138571678D01*
X132009289Y-138619289D01*
X131961678Y-138677304D01*
X131926299Y-138743492D01*
X131904513Y-138815311D01*
X131897157Y-138890000D01*
X125846417Y-138890000D01*
X125847843Y-138607500D01*
X125840487Y-138532811D01*
X125818701Y-138460992D01*
X125783322Y-138394804D01*
X125735711Y-138336789D01*
X125677696Y-138289178D01*
X125611508Y-138253799D01*
X125604214Y-138251586D01*
X125708386Y-138195905D01*
X125842962Y-138085462D01*
X125953405Y-137950886D01*
X126035472Y-137797350D01*
X126086008Y-137630754D01*
X126103072Y-137457500D01*
X126103072Y-136782500D01*
X126086008Y-136609246D01*
X126035472Y-136442650D01*
X126010000Y-136394995D01*
X126010000Y-132676050D01*
X127707979Y-130978072D01*
X128250000Y-130978072D01*
X128374482Y-130965812D01*
X128494180Y-130929502D01*
X128604494Y-130870537D01*
X128701185Y-130791185D01*
X128780537Y-130694494D01*
X128839502Y-130584180D01*
X128861513Y-130511620D01*
X128993368Y-130643475D01*
X129236589Y-130805990D01*
X129506842Y-130917932D01*
X129793740Y-130975000D01*
X130086260Y-130975000D01*
X130373158Y-130917932D01*
X130643411Y-130805990D01*
X130886632Y-130643475D01*
X131093475Y-130436632D01*
X131255990Y-130193411D01*
X131367932Y-129923158D01*
X131425000Y-129636260D01*
X131425000Y-129343740D01*
X131367932Y-129056842D01*
X131255990Y-128786589D01*
X131093475Y-128543368D01*
X130886632Y-128336525D01*
X130643411Y-128174010D01*
X130373158Y-128062068D01*
X130086260Y-128005000D01*
X129793740Y-128005000D01*
X129506842Y-128062068D01*
X129236589Y-128174010D01*
X128993368Y-128336525D01*
X128861513Y-128468380D01*
X128839502Y-128395820D01*
X128780537Y-128285506D01*
X128701185Y-128188815D01*
X128604494Y-128109463D01*
X128494180Y-128050498D01*
X128374482Y-128014188D01*
X128250000Y-128001928D01*
X126550000Y-128001928D01*
X126425518Y-128014188D01*
X126305820Y-128050498D01*
X126195506Y-128109463D01*
X126098815Y-128188815D01*
X126019463Y-128285506D01*
X125960498Y-128395820D01*
X125924188Y-128515518D01*
X125911928Y-128640000D01*
X125911928Y-129182021D01*
X123886086Y-131207864D01*
X123837631Y-131247630D01*
X123678926Y-131441012D01*
X123600321Y-131588072D01*
X123560998Y-131661641D01*
X123488377Y-131901037D01*
X123463857Y-132150000D01*
X123470001Y-132212383D01*
X123470001Y-134519766D01*
X123410000Y-134513857D01*
X123347627Y-134520000D01*
X119267000Y-134520000D01*
X119267000Y-132100000D01*
X119997157Y-132100000D01*
X120004513Y-132174689D01*
X120026299Y-132246508D01*
X120061678Y-132312696D01*
X120109289Y-132370711D01*
X120167304Y-132418322D01*
X120233492Y-132453701D01*
X120305311Y-132475487D01*
X120380000Y-132482843D01*
X121157750Y-132481000D01*
X121253000Y-132385750D01*
X121253000Y-131477000D01*
X121507000Y-131477000D01*
X121507000Y-132385750D01*
X121602250Y-132481000D01*
X122380000Y-132482843D01*
X122454689Y-132475487D01*
X122526508Y-132453701D01*
X122592696Y-132418322D01*
X122650711Y-132370711D01*
X122698322Y-132312696D01*
X122733701Y-132246508D01*
X122755487Y-132174689D01*
X122762843Y-132100000D01*
X122761000Y-131572250D01*
X122665750Y-131477000D01*
X121507000Y-131477000D01*
X121253000Y-131477000D01*
X120094250Y-131477000D01*
X119999000Y-131572250D01*
X119997157Y-132100000D01*
X119267000Y-132100000D01*
X119267000Y-130447000D01*
X120029769Y-130447000D01*
X120026299Y-130453492D01*
X120004513Y-130525311D01*
X119997157Y-130600000D01*
X119999000Y-131127750D01*
X120094250Y-131223000D01*
X121253000Y-131223000D01*
X121253000Y-131203000D01*
X121507000Y-131203000D01*
X121507000Y-131223000D01*
X122665750Y-131223000D01*
X122761000Y-131127750D01*
X122762843Y-130600000D01*
X122755487Y-130525311D01*
X122733701Y-130453492D01*
X122698322Y-130387304D01*
X122676969Y-130361285D01*
X122734494Y-130330537D01*
X122831185Y-130251185D01*
X122910537Y-130154494D01*
X122969502Y-130044180D01*
X123005812Y-129924482D01*
X123018072Y-129800000D01*
X123018072Y-128300000D01*
X123005812Y-128175518D01*
X122969502Y-128055820D01*
X122950356Y-128020000D01*
X125707627Y-128020000D01*
X125770000Y-128026143D01*
X125832373Y-128020000D01*
X125832380Y-128020000D01*
X126018963Y-128001623D01*
X126258359Y-127929003D01*
X126478988Y-127811075D01*
X126672370Y-127652370D01*
X126712141Y-127603909D01*
X130693914Y-123622137D01*
X130742370Y-123582370D01*
X130901075Y-123388988D01*
X131019003Y-123168359D01*
X131082055Y-122960505D01*
X131091623Y-122928964D01*
X131096571Y-122878729D01*
X131110000Y-122742380D01*
X131110000Y-122742374D01*
X131116143Y-122680001D01*
X131110000Y-122617628D01*
X131110000Y-122568259D01*
X131170537Y-122494494D01*
X131229502Y-122384180D01*
X131265812Y-122264482D01*
X131278072Y-122140000D01*
X131278072Y-120540000D01*
X131265812Y-120415518D01*
X131229502Y-120295820D01*
X131170537Y-120185506D01*
X131091185Y-120088815D01*
X130994494Y-120009463D01*
X130884180Y-119950498D01*
X130764482Y-119914188D01*
X130640000Y-119901928D01*
X129040000Y-119901928D01*
X128915518Y-119914188D01*
X128797462Y-119950000D01*
X120735701Y-119950000D01*
X120690537Y-119865506D01*
X120611185Y-119768815D01*
X120514494Y-119689463D01*
X120404180Y-119630498D01*
X120284482Y-119594188D01*
X120160000Y-119581928D01*
X118160000Y-119581928D01*
X118035518Y-119594188D01*
X117915820Y-119630498D01*
X117805506Y-119689463D01*
X117728616Y-119752565D01*
X115910000Y-117933950D01*
X115910000Y-117219267D01*
X118340338Y-117219267D01*
X118450510Y-117412596D01*
X118696806Y-117528095D01*
X118960903Y-117593324D01*
X119232651Y-117605778D01*
X119501607Y-117564977D01*
X119757435Y-117472490D01*
X119869490Y-117412596D01*
X119979662Y-117219267D01*
X119956737Y-117196342D01*
X129163263Y-117196342D01*
X129249218Y-117369207D01*
X129461358Y-117464687D01*
X129688048Y-117516945D01*
X129920578Y-117523975D01*
X130150012Y-117485505D01*
X130367532Y-117403014D01*
X130430782Y-117369207D01*
X130516737Y-117196342D01*
X129840000Y-116519605D01*
X129163263Y-117196342D01*
X119956737Y-117196342D01*
X119160000Y-116399605D01*
X118340338Y-117219267D01*
X115910000Y-117219267D01*
X115910000Y-116292651D01*
X117774222Y-116292651D01*
X117815023Y-116561607D01*
X117907510Y-116817435D01*
X117967404Y-116929490D01*
X118160733Y-117039662D01*
X118980395Y-116220000D01*
X119339605Y-116220000D01*
X120159267Y-117039662D01*
X120352596Y-116929490D01*
X120468095Y-116683194D01*
X120532958Y-116420578D01*
X128656025Y-116420578D01*
X128694495Y-116650012D01*
X128776986Y-116867532D01*
X128810793Y-116930782D01*
X128983658Y-117016737D01*
X129660395Y-116340000D01*
X130019605Y-116340000D01*
X130696342Y-117016737D01*
X130869207Y-116930782D01*
X130964687Y-116718642D01*
X131016945Y-116491952D01*
X131023975Y-116259422D01*
X130985505Y-116029988D01*
X130903014Y-115812468D01*
X130869207Y-115749218D01*
X130696342Y-115663263D01*
X130019605Y-116340000D01*
X129660395Y-116340000D01*
X128983658Y-115663263D01*
X128810793Y-115749218D01*
X128715313Y-115961358D01*
X128663055Y-116188048D01*
X128656025Y-116420578D01*
X120532958Y-116420578D01*
X120533324Y-116419097D01*
X120545778Y-116147349D01*
X120504977Y-115878393D01*
X120412490Y-115622565D01*
X120352596Y-115510510D01*
X120305477Y-115483658D01*
X129163263Y-115483658D01*
X129840000Y-116160395D01*
X130516737Y-115483658D01*
X130430782Y-115310793D01*
X130218642Y-115215313D01*
X129991952Y-115163055D01*
X129759422Y-115156025D01*
X129529988Y-115194495D01*
X129312468Y-115276986D01*
X129249218Y-115310793D01*
X129163263Y-115483658D01*
X120305477Y-115483658D01*
X120159267Y-115400338D01*
X119339605Y-116220000D01*
X118980395Y-116220000D01*
X118160733Y-115400338D01*
X117967404Y-115510510D01*
X117851905Y-115756806D01*
X117786676Y-116020903D01*
X117774222Y-116292651D01*
X115910000Y-116292651D01*
X115910000Y-115220733D01*
X118340338Y-115220733D01*
X119160000Y-116040395D01*
X119979662Y-115220733D01*
X119869490Y-115027404D01*
X119623194Y-114911905D01*
X119359097Y-114846676D01*
X119087349Y-114834222D01*
X118818393Y-114875023D01*
X118562565Y-114967510D01*
X118450510Y-115027404D01*
X118340338Y-115220733D01*
X115910000Y-115220733D01*
X115910000Y-111346050D01*
X115921050Y-111335000D01*
X116085807Y-111335000D01*
X116430665Y-111266404D01*
X116755515Y-111131847D01*
X117047871Y-110936500D01*
X117296500Y-110687871D01*
X117317588Y-110656310D01*
X130383295Y-110656310D01*
X130511578Y-110864999D01*
X130783463Y-110995496D01*
X131075583Y-111070444D01*
X131376711Y-111086961D01*
X131675275Y-111044414D01*
X131959802Y-110944438D01*
X132108422Y-110864999D01*
X132236705Y-110656310D01*
X131310000Y-109729605D01*
X130383295Y-110656310D01*
X117317588Y-110656310D01*
X117491847Y-110395515D01*
X117626404Y-110070665D01*
X117695000Y-109725807D01*
X117695000Y-109616711D01*
X129773039Y-109616711D01*
X129815586Y-109915275D01*
X129915562Y-110199802D01*
X129995001Y-110348422D01*
X130203690Y-110476705D01*
X131130395Y-109550000D01*
X131489605Y-109550000D01*
X132416310Y-110476705D01*
X132624999Y-110348422D01*
X132755496Y-110076537D01*
X132830444Y-109784417D01*
X132846961Y-109483289D01*
X132804414Y-109184725D01*
X132704438Y-108900198D01*
X132624999Y-108751578D01*
X132416310Y-108623295D01*
X131489605Y-109550000D01*
X131130395Y-109550000D01*
X130203690Y-108623295D01*
X129995001Y-108751578D01*
X129864504Y-109023463D01*
X129789556Y-109315583D01*
X129773039Y-109616711D01*
X117695000Y-109616711D01*
X117695000Y-109374193D01*
X117626404Y-109029335D01*
X117491847Y-108704485D01*
X117317589Y-108443690D01*
X130383295Y-108443690D01*
X131310000Y-109370395D01*
X132236705Y-108443690D01*
X132108422Y-108235001D01*
X131836537Y-108104504D01*
X131544417Y-108029556D01*
X131243289Y-108013039D01*
X130944725Y-108055586D01*
X130660198Y-108155562D01*
X130511578Y-108235001D01*
X130383295Y-108443690D01*
X117317589Y-108443690D01*
X117296500Y-108412129D01*
X117047871Y-108163500D01*
X116755515Y-107968153D01*
X116430665Y-107833596D01*
X116085807Y-107765000D01*
X115734193Y-107765000D01*
X115389335Y-107833596D01*
X115064485Y-107968153D01*
X114772129Y-108163500D01*
X114523500Y-108412129D01*
X114328153Y-108704485D01*
X114193596Y-109029335D01*
X114125000Y-109374193D01*
X114125000Y-109538950D01*
X113786091Y-109877859D01*
X113737630Y-109917630D01*
X113578925Y-110111013D01*
X113460997Y-110331642D01*
X113388377Y-110571038D01*
X113370000Y-110757621D01*
X113370000Y-110757627D01*
X113363857Y-110820000D01*
X113370000Y-110882373D01*
X113370001Y-117554000D01*
X111603218Y-117554000D01*
X111579502Y-117475820D01*
X111520537Y-117365506D01*
X111441185Y-117268815D01*
X111344494Y-117189463D01*
X111234180Y-117130498D01*
X111114482Y-117094188D01*
X110990000Y-117081928D01*
X109290000Y-117081928D01*
X109165518Y-117094188D01*
X109045820Y-117130498D01*
X108935506Y-117189463D01*
X108838815Y-117268815D01*
X108759463Y-117365506D01*
X108700498Y-117475820D01*
X108664188Y-117595518D01*
X108651928Y-117720000D01*
X108651928Y-119420000D01*
X108664188Y-119544482D01*
X108700498Y-119664180D01*
X108759463Y-119774494D01*
X108838815Y-119871185D01*
X108935506Y-119950537D01*
X109045820Y-120009502D01*
X109165518Y-120045812D01*
X109290000Y-120058072D01*
X110990000Y-120058072D01*
X111114482Y-120045812D01*
X111234180Y-120009502D01*
X111344494Y-119950537D01*
X111441185Y-119871185D01*
X111520537Y-119774494D01*
X111579502Y-119664180D01*
X111603218Y-119586000D01*
X113969950Y-119586000D01*
X116457863Y-122073914D01*
X116497630Y-122122370D01*
X116691012Y-122281075D01*
X116911641Y-122399003D01*
X117078416Y-122449594D01*
X117151036Y-122471623D01*
X117176755Y-122474156D01*
X117337620Y-122490000D01*
X117337626Y-122490000D01*
X117399999Y-122496143D01*
X117462372Y-122490000D01*
X117584299Y-122490000D01*
X117629463Y-122574494D01*
X117708815Y-122671185D01*
X117805506Y-122750537D01*
X117915820Y-122809502D01*
X118035518Y-122845812D01*
X118160000Y-122858072D01*
X120160000Y-122858072D01*
X120284482Y-122845812D01*
X120404180Y-122809502D01*
X120514494Y-122750537D01*
X120611185Y-122671185D01*
X120690537Y-122574494D01*
X120735701Y-122490000D01*
X128233949Y-122490000D01*
X125243950Y-125480000D01*
X122747333Y-125480000D01*
X122734494Y-125469463D01*
X122624180Y-125410498D01*
X122504482Y-125374188D01*
X122380000Y-125361928D01*
X120380000Y-125361928D01*
X120255518Y-125374188D01*
X120135820Y-125410498D01*
X120025506Y-125469463D01*
X119928815Y-125548815D01*
X119849463Y-125645506D01*
X119790498Y-125755820D01*
X119754188Y-125875518D01*
X119741928Y-126000000D01*
X119741928Y-127500000D01*
X119754188Y-127624482D01*
X119762839Y-127653000D01*
X119267000Y-127653000D01*
X119267000Y-123570000D01*
X119264560Y-123545224D01*
X119257333Y-123521399D01*
X119245597Y-123499443D01*
X119229803Y-123480197D01*
X119210557Y-123464403D01*
X119188601Y-123452667D01*
X119164776Y-123445440D01*
X119140000Y-123443000D01*
X102800000Y-123443000D01*
X102800000Y-100696634D01*
X138150071Y-100677000D01*
X138174846Y-100674546D01*
X138198666Y-100667306D01*
X138220616Y-100655557D01*
X138239852Y-100639753D01*
X138255636Y-100620499D01*
X138267360Y-100598536D01*
X138274573Y-100574707D01*
X138277000Y-100550000D01*
X138277000Y-77662043D01*
X146739927Y-69070000D01*
X160177157Y-69070000D01*
X160179000Y-70347750D01*
X160274250Y-70443000D01*
X161933000Y-70443000D01*
X161933000Y-68784250D01*
X162187000Y-68784250D01*
X162187000Y-70443000D01*
X163845750Y-70443000D01*
X163929029Y-70359721D01*
X165005000Y-70359721D01*
X165005000Y-70780279D01*
X165087047Y-71192756D01*
X165247988Y-71581302D01*
X165481637Y-71930983D01*
X165779017Y-72228363D01*
X166128698Y-72462012D01*
X166517244Y-72622953D01*
X166929721Y-72705000D01*
X167350279Y-72705000D01*
X167762756Y-72622953D01*
X168151302Y-72462012D01*
X168500983Y-72228363D01*
X168659346Y-72070000D01*
X171777157Y-72070000D01*
X171784513Y-72144689D01*
X171806299Y-72216508D01*
X171841678Y-72282696D01*
X171889289Y-72340711D01*
X171947304Y-72388322D01*
X172013492Y-72423701D01*
X172085311Y-72445487D01*
X172160000Y-72452843D01*
X173437750Y-72451000D01*
X173533000Y-72355750D01*
X173533000Y-70697000D01*
X173787000Y-70697000D01*
X173787000Y-72355750D01*
X173882250Y-72451000D01*
X175160000Y-72452843D01*
X175234689Y-72445487D01*
X175306508Y-72423701D01*
X175372696Y-72388322D01*
X175430711Y-72340711D01*
X175478322Y-72282696D01*
X175513701Y-72216508D01*
X175535487Y-72144689D01*
X175542843Y-72070000D01*
X175541000Y-70792250D01*
X175445750Y-70697000D01*
X173787000Y-70697000D01*
X173533000Y-70697000D01*
X171874250Y-70697000D01*
X171779000Y-70792250D01*
X171777157Y-72070000D01*
X168659346Y-72070000D01*
X168798363Y-71930983D01*
X169032012Y-71581302D01*
X169192953Y-71192756D01*
X169275000Y-70780279D01*
X169275000Y-70359721D01*
X169192953Y-69947244D01*
X169032012Y-69558698D01*
X168798363Y-69209017D01*
X168659346Y-69070000D01*
X171777157Y-69070000D01*
X171779000Y-70347750D01*
X171874250Y-70443000D01*
X173533000Y-70443000D01*
X173533000Y-68784250D01*
X173787000Y-68784250D01*
X173787000Y-70443000D01*
X175445750Y-70443000D01*
X175529029Y-70359721D01*
X176605000Y-70359721D01*
X176605000Y-70780279D01*
X176687047Y-71192756D01*
X176847988Y-71581302D01*
X177081637Y-71930983D01*
X177379017Y-72228363D01*
X177728698Y-72462012D01*
X178117244Y-72622953D01*
X178529721Y-72705000D01*
X178950279Y-72705000D01*
X179362756Y-72622953D01*
X179751302Y-72462012D01*
X180100983Y-72228363D01*
X180398363Y-71930983D01*
X180632012Y-71581302D01*
X180792953Y-71192756D01*
X180875000Y-70780279D01*
X180875000Y-70359721D01*
X180792953Y-69947244D01*
X180632012Y-69558698D01*
X180398363Y-69209017D01*
X180100983Y-68911637D01*
X179751302Y-68677988D01*
X179362756Y-68517047D01*
X178950279Y-68435000D01*
X178529721Y-68435000D01*
X178117244Y-68517047D01*
X177728698Y-68677988D01*
X177379017Y-68911637D01*
X177081637Y-69209017D01*
X176847988Y-69558698D01*
X176687047Y-69947244D01*
X176605000Y-70359721D01*
X175529029Y-70359721D01*
X175541000Y-70347750D01*
X175542843Y-69070000D01*
X175535487Y-68995311D01*
X175513701Y-68923492D01*
X175478322Y-68857304D01*
X175430711Y-68799289D01*
X175372696Y-68751678D01*
X175306508Y-68716299D01*
X175234689Y-68694513D01*
X175160000Y-68687157D01*
X173882250Y-68689000D01*
X173787000Y-68784250D01*
X173533000Y-68784250D01*
X173437750Y-68689000D01*
X172160000Y-68687157D01*
X172085311Y-68694513D01*
X172013492Y-68716299D01*
X171947304Y-68751678D01*
X171889289Y-68799289D01*
X171841678Y-68857304D01*
X171806299Y-68923492D01*
X171784513Y-68995311D01*
X171777157Y-69070000D01*
X168659346Y-69070000D01*
X168500983Y-68911637D01*
X168151302Y-68677988D01*
X167762756Y-68517047D01*
X167350279Y-68435000D01*
X166929721Y-68435000D01*
X166517244Y-68517047D01*
X166128698Y-68677988D01*
X165779017Y-68911637D01*
X165481637Y-69209017D01*
X165247988Y-69558698D01*
X165087047Y-69947244D01*
X165005000Y-70359721D01*
X163929029Y-70359721D01*
X163941000Y-70347750D01*
X163942843Y-69070000D01*
X163935487Y-68995311D01*
X163913701Y-68923492D01*
X163878322Y-68857304D01*
X163830711Y-68799289D01*
X163772696Y-68751678D01*
X163706508Y-68716299D01*
X163634689Y-68694513D01*
X163560000Y-68687157D01*
X162282250Y-68689000D01*
X162187000Y-68784250D01*
X161933000Y-68784250D01*
X161837750Y-68689000D01*
X160560000Y-68687157D01*
X160485311Y-68694513D01*
X160413492Y-68716299D01*
X160347304Y-68751678D01*
X160289289Y-68799289D01*
X160241678Y-68857304D01*
X160206299Y-68923492D01*
X160184513Y-68995311D01*
X160177157Y-69070000D01*
X146739927Y-69070000D01*
X152098179Y-63630000D01*
X195813887Y-63630000D01*
X195689234Y-63681633D01*
G37*
G04 #@! TD.AperFunction*
D40*
X144861001Y-116468237D02*
X144861000Y-123836340D01*
X144856700Y-123880000D01*
X144861000Y-123923660D01*
X144861000Y-123923666D01*
X144873864Y-124054273D01*
X144924697Y-124221850D01*
X145007247Y-124376290D01*
X145118341Y-124511659D01*
X145152264Y-124539499D01*
X149021766Y-128409001D01*
X142044107Y-128409001D01*
X141906632Y-128271526D01*
X141663411Y-128109011D01*
X141436100Y-128014856D01*
X141502949Y-127989800D01*
X141708052Y-127862648D01*
X141884408Y-127697925D01*
X142025239Y-127501962D01*
X142125134Y-127282289D01*
X142149489Y-127201981D01*
X142088627Y-127012001D01*
X141087000Y-127012001D01*
X141087000Y-127032001D01*
X140833000Y-127032001D01*
X140833000Y-127012001D01*
X139831373Y-127012001D01*
X139770511Y-127201981D01*
X139794866Y-127282289D01*
X139894761Y-127501962D01*
X140035592Y-127697925D01*
X140211948Y-127862648D01*
X140417051Y-127989800D01*
X140483900Y-128014856D01*
X140256589Y-128109011D01*
X140013368Y-128271526D01*
X139806525Y-128478369D01*
X139644010Y-128721590D01*
X139532068Y-128991843D01*
X139475000Y-129278741D01*
X139475000Y-129304869D01*
X138119000Y-130660870D01*
X138119000Y-119208235D01*
X139713234Y-117614001D01*
X139768017Y-117614001D01*
X139806525Y-117671633D01*
X140013368Y-117878476D01*
X140187760Y-117995001D01*
X140013368Y-118111526D01*
X139806525Y-118318369D01*
X139644010Y-118561590D01*
X139532068Y-118831843D01*
X139475000Y-119118741D01*
X139475000Y-119411261D01*
X139532068Y-119698159D01*
X139644010Y-119968412D01*
X139806525Y-120211633D01*
X140013368Y-120418476D01*
X140187760Y-120535001D01*
X140013368Y-120651526D01*
X139806525Y-120858369D01*
X139644010Y-121101590D01*
X139532068Y-121371843D01*
X139475000Y-121658741D01*
X139475000Y-121951261D01*
X139532068Y-122238159D01*
X139644010Y-122508412D01*
X139806525Y-122751633D01*
X140013368Y-122958476D01*
X140187760Y-123075001D01*
X140013368Y-123191526D01*
X139806525Y-123398369D01*
X139644010Y-123641590D01*
X139532068Y-123911843D01*
X139475000Y-124198741D01*
X139475000Y-124491261D01*
X139532068Y-124778159D01*
X139644010Y-125048412D01*
X139806525Y-125291633D01*
X140013368Y-125498476D01*
X140256589Y-125660991D01*
X140483900Y-125755146D01*
X140417051Y-125780202D01*
X140211948Y-125907354D01*
X140035592Y-126072077D01*
X139894761Y-126268040D01*
X139794866Y-126487713D01*
X139770511Y-126568021D01*
X139831373Y-126758001D01*
X140833000Y-126758001D01*
X140833000Y-126738001D01*
X141087000Y-126738001D01*
X141087000Y-126758001D01*
X142088627Y-126758001D01*
X142149489Y-126568021D01*
X142125134Y-126487713D01*
X142025239Y-126268040D01*
X141884408Y-126072077D01*
X141708052Y-125907354D01*
X141502949Y-125780202D01*
X141436100Y-125755146D01*
X141663411Y-125660991D01*
X141906632Y-125498476D01*
X142113475Y-125291633D01*
X142275990Y-125048412D01*
X142387932Y-124778159D01*
X142445000Y-124491261D01*
X142445000Y-124198741D01*
X142387932Y-123911843D01*
X142275990Y-123641590D01*
X142113475Y-123398369D01*
X141906632Y-123191526D01*
X141732240Y-123075001D01*
X141906632Y-122958476D01*
X142113475Y-122751633D01*
X142275990Y-122508412D01*
X142387932Y-122238159D01*
X142445000Y-121951261D01*
X142445000Y-121658741D01*
X142387932Y-121371843D01*
X142275990Y-121101590D01*
X142113475Y-120858369D01*
X141906632Y-120651526D01*
X141732240Y-120535001D01*
X141906632Y-120418476D01*
X142113475Y-120211633D01*
X142275990Y-119968412D01*
X142387932Y-119698159D01*
X142445000Y-119411261D01*
X142445000Y-119118741D01*
X142387932Y-118831843D01*
X142275990Y-118561590D01*
X142113475Y-118318369D01*
X141906632Y-118111526D01*
X141732240Y-117995001D01*
X141906632Y-117878476D01*
X142113475Y-117671633D01*
X142275990Y-117428412D01*
X142387932Y-117158159D01*
X142445000Y-116871261D01*
X142445000Y-116578741D01*
X142387932Y-116291843D01*
X142275990Y-116021590D01*
X142113475Y-115778369D01*
X141906632Y-115571526D01*
X141732240Y-115455001D01*
X141906632Y-115338476D01*
X142113475Y-115131633D01*
X142275990Y-114888412D01*
X142387932Y-114618159D01*
X142445000Y-114331261D01*
X142445000Y-114052235D01*
X144861001Y-116468237D01*
G04 #@! TA.AperFunction,Conductor*
D41*
G36*
X144861001Y-116468237D02*
G01*
X144861000Y-123836340D01*
X144856700Y-123880000D01*
X144861000Y-123923660D01*
X144861000Y-123923666D01*
X144873864Y-124054273D01*
X144924697Y-124221850D01*
X145007247Y-124376290D01*
X145118341Y-124511659D01*
X145152264Y-124539499D01*
X149021766Y-128409001D01*
X142044107Y-128409001D01*
X141906632Y-128271526D01*
X141663411Y-128109011D01*
X141436100Y-128014856D01*
X141502949Y-127989800D01*
X141708052Y-127862648D01*
X141884408Y-127697925D01*
X142025239Y-127501962D01*
X142125134Y-127282289D01*
X142149489Y-127201981D01*
X142088627Y-127012001D01*
X141087000Y-127012001D01*
X141087000Y-127032001D01*
X140833000Y-127032001D01*
X140833000Y-127012001D01*
X139831373Y-127012001D01*
X139770511Y-127201981D01*
X139794866Y-127282289D01*
X139894761Y-127501962D01*
X140035592Y-127697925D01*
X140211948Y-127862648D01*
X140417051Y-127989800D01*
X140483900Y-128014856D01*
X140256589Y-128109011D01*
X140013368Y-128271526D01*
X139806525Y-128478369D01*
X139644010Y-128721590D01*
X139532068Y-128991843D01*
X139475000Y-129278741D01*
X139475000Y-129304869D01*
X138119000Y-130660870D01*
X138119000Y-119208235D01*
X139713234Y-117614001D01*
X139768017Y-117614001D01*
X139806525Y-117671633D01*
X140013368Y-117878476D01*
X140187760Y-117995001D01*
X140013368Y-118111526D01*
X139806525Y-118318369D01*
X139644010Y-118561590D01*
X139532068Y-118831843D01*
X139475000Y-119118741D01*
X139475000Y-119411261D01*
X139532068Y-119698159D01*
X139644010Y-119968412D01*
X139806525Y-120211633D01*
X140013368Y-120418476D01*
X140187760Y-120535001D01*
X140013368Y-120651526D01*
X139806525Y-120858369D01*
X139644010Y-121101590D01*
X139532068Y-121371843D01*
X139475000Y-121658741D01*
X139475000Y-121951261D01*
X139532068Y-122238159D01*
X139644010Y-122508412D01*
X139806525Y-122751633D01*
X140013368Y-122958476D01*
X140187760Y-123075001D01*
X140013368Y-123191526D01*
X139806525Y-123398369D01*
X139644010Y-123641590D01*
X139532068Y-123911843D01*
X139475000Y-124198741D01*
X139475000Y-124491261D01*
X139532068Y-124778159D01*
X139644010Y-125048412D01*
X139806525Y-125291633D01*
X140013368Y-125498476D01*
X140256589Y-125660991D01*
X140483900Y-125755146D01*
X140417051Y-125780202D01*
X140211948Y-125907354D01*
X140035592Y-126072077D01*
X139894761Y-126268040D01*
X139794866Y-126487713D01*
X139770511Y-126568021D01*
X139831373Y-126758001D01*
X140833000Y-126758001D01*
X140833000Y-126738001D01*
X141087000Y-126738001D01*
X141087000Y-126758001D01*
X142088627Y-126758001D01*
X142149489Y-126568021D01*
X142125134Y-126487713D01*
X142025239Y-126268040D01*
X141884408Y-126072077D01*
X141708052Y-125907354D01*
X141502949Y-125780202D01*
X141436100Y-125755146D01*
X141663411Y-125660991D01*
X141906632Y-125498476D01*
X142113475Y-125291633D01*
X142275990Y-125048412D01*
X142387932Y-124778159D01*
X142445000Y-124491261D01*
X142445000Y-124198741D01*
X142387932Y-123911843D01*
X142275990Y-123641590D01*
X142113475Y-123398369D01*
X141906632Y-123191526D01*
X141732240Y-123075001D01*
X141906632Y-122958476D01*
X142113475Y-122751633D01*
X142275990Y-122508412D01*
X142387932Y-122238159D01*
X142445000Y-121951261D01*
X142445000Y-121658741D01*
X142387932Y-121371843D01*
X142275990Y-121101590D01*
X142113475Y-120858369D01*
X141906632Y-120651526D01*
X141732240Y-120535001D01*
X141906632Y-120418476D01*
X142113475Y-120211633D01*
X142275990Y-119968412D01*
X142387932Y-119698159D01*
X142445000Y-119411261D01*
X142445000Y-119118741D01*
X142387932Y-118831843D01*
X142275990Y-118561590D01*
X142113475Y-118318369D01*
X141906632Y-118111526D01*
X141732240Y-117995001D01*
X141906632Y-117878476D01*
X142113475Y-117671633D01*
X142275990Y-117428412D01*
X142387932Y-117158159D01*
X142445000Y-116871261D01*
X142445000Y-116578741D01*
X142387932Y-116291843D01*
X142275990Y-116021590D01*
X142113475Y-115778369D01*
X141906632Y-115571526D01*
X141732240Y-115455001D01*
X141906632Y-115338476D01*
X142113475Y-115131633D01*
X142275990Y-114888412D01*
X142387932Y-114618159D01*
X142445000Y-114331261D01*
X142445000Y-114052235D01*
X144861001Y-116468237D01*
G37*
G04 #@! TD.AperFunction*
M02*
