G04 #@! TF.GenerationSoftware,KiCad,Pcbnew,(5.1.7)-1*
G04 #@! TF.CreationDate,2021-01-09T20:06:41-03:00*
G04 #@! TF.ProjectId,PCB_CONTROLADORA_SOLDAGEM,5043425f-434f-44e5-9452-4f4c41444f52,rev?*
G04 #@! TF.SameCoordinates,Original*
G04 #@! TF.FileFunction,Soldermask,Top*
G04 #@! TF.FilePolarity,Negative*
%FSLAX46Y46*%
G04 Gerber Fmt 4.6, Leading zero omitted, Abs format (unit mm)*
G04 Created by KiCad (PCBNEW (5.1.7)-1) date 2021-01-09 20:06:41*
%MOMM*%
%LPD*%
G01*
G04 APERTURE LIST*
%ADD10R,2.700000X2.700000*%
%ADD11C,2.700000*%
%ADD12C,3.200000*%
%ADD13R,3.000000X3.000000*%
%ADD14C,3.000000*%
%ADD15O,1.700000X1.700000*%
%ADD16R,1.700000X1.700000*%
%ADD17O,3.048000X1.850000*%
%ADD18R,1.600000X1.600000*%
%ADD19C,1.600000*%
%ADD20C,2.300000*%
%ADD21R,2.000000X2.300000*%
%ADD22C,1.800000*%
%ADD23R,2.000000X3.800000*%
%ADD24R,2.000000X1.500000*%
%ADD25C,2.000000*%
%ADD26R,2.000000X2.000000*%
%ADD27R,1.070000X1.800000*%
%ADD28O,1.070000X1.800000*%
%ADD29R,1.800000X1.800000*%
%ADD30C,3.240000*%
%ADD31C,5.700000*%
G04 APERTURE END LIST*
D10*
X107140000Y-75840000D03*
D11*
X107140000Y-80920000D03*
D12*
X165930000Y-98450000D03*
X186430000Y-98440000D03*
X165930000Y-121454000D03*
X186430000Y-121440000D03*
D13*
X185240000Y-70570000D03*
D14*
X190320000Y-70570000D03*
X167140000Y-70570000D03*
D13*
X162060000Y-70570000D03*
D15*
X140960000Y-129425001D03*
X140960000Y-126885001D03*
X140960000Y-124345001D03*
X140960000Y-121805001D03*
X140960000Y-119265001D03*
X140960000Y-116725001D03*
X140960000Y-114185001D03*
X140960000Y-111645001D03*
X140960000Y-109105001D03*
X140960000Y-106565001D03*
X140960000Y-104025001D03*
X140960000Y-101485001D03*
X140960000Y-98945001D03*
X140960000Y-96405001D03*
X140960000Y-93865001D03*
X140960000Y-91325001D03*
X140960000Y-88785001D03*
X140960000Y-86245001D03*
X140960000Y-83705001D03*
D16*
X140960000Y-81165001D03*
X156605001Y-81165001D03*
D15*
X156605001Y-83705001D03*
X156605001Y-86245001D03*
X156605001Y-88785001D03*
X156605001Y-91325001D03*
X156605001Y-93865001D03*
X156605001Y-96405001D03*
X156605001Y-98945001D03*
X156605001Y-101485001D03*
X156605001Y-104025001D03*
X156605001Y-106565001D03*
X156605001Y-109105001D03*
X156605001Y-111645001D03*
X156605001Y-114185001D03*
X156605001Y-116725001D03*
X156605001Y-119265001D03*
X156605001Y-121805001D03*
X156605001Y-124345001D03*
X156605001Y-126885001D03*
X156605001Y-129425001D03*
G36*
G01*
X190859999Y-133400000D02*
X191760001Y-133400000D01*
G75*
G02*
X192010000Y-133649999I0J-249999D01*
G01*
X192010000Y-134350001D01*
G75*
G02*
X191760001Y-134600000I-249999J0D01*
G01*
X190859999Y-134600000D01*
G75*
G02*
X190610000Y-134350001I0J249999D01*
G01*
X190610000Y-133649999D01*
G75*
G02*
X190859999Y-133400000I249999J0D01*
G01*
G37*
G36*
G01*
X190859999Y-135400000D02*
X191760001Y-135400000D01*
G75*
G02*
X192010000Y-135649999I0J-249999D01*
G01*
X192010000Y-136350001D01*
G75*
G02*
X191760001Y-136600000I-249999J0D01*
G01*
X190859999Y-136600000D01*
G75*
G02*
X190610000Y-136350001I0J249999D01*
G01*
X190610000Y-135649999D01*
G75*
G02*
X190859999Y-135400000I249999J0D01*
G01*
G37*
D17*
X186710000Y-132250000D03*
X186710000Y-137250000D03*
X174210000Y-132250000D03*
X174210000Y-137250000D03*
G36*
G01*
X179750000Y-112100000D02*
X179750000Y-112400000D01*
G75*
G02*
X179600000Y-112550000I-150000J0D01*
G01*
X177700000Y-112550000D01*
G75*
G02*
X177550000Y-112400000I0J150000D01*
G01*
X177550000Y-112100000D01*
G75*
G02*
X177700000Y-111950000I150000J0D01*
G01*
X179600000Y-111950000D01*
G75*
G02*
X179750000Y-112100000I0J-150000D01*
G01*
G37*
G36*
G01*
X179750000Y-110830000D02*
X179750000Y-111130000D01*
G75*
G02*
X179600000Y-111280000I-150000J0D01*
G01*
X177700000Y-111280000D01*
G75*
G02*
X177550000Y-111130000I0J150000D01*
G01*
X177550000Y-110830000D01*
G75*
G02*
X177700000Y-110680000I150000J0D01*
G01*
X179600000Y-110680000D01*
G75*
G02*
X179750000Y-110830000I0J-150000D01*
G01*
G37*
G36*
G01*
X179750000Y-109560000D02*
X179750000Y-109860000D01*
G75*
G02*
X179600000Y-110010000I-150000J0D01*
G01*
X177700000Y-110010000D01*
G75*
G02*
X177550000Y-109860000I0J150000D01*
G01*
X177550000Y-109560000D01*
G75*
G02*
X177700000Y-109410000I150000J0D01*
G01*
X179600000Y-109410000D01*
G75*
G02*
X179750000Y-109560000I0J-150000D01*
G01*
G37*
G36*
G01*
X179750000Y-108290000D02*
X179750000Y-108590000D01*
G75*
G02*
X179600000Y-108740000I-150000J0D01*
G01*
X177700000Y-108740000D01*
G75*
G02*
X177550000Y-108590000I0J150000D01*
G01*
X177550000Y-108290000D01*
G75*
G02*
X177700000Y-108140000I150000J0D01*
G01*
X179600000Y-108140000D01*
G75*
G02*
X179750000Y-108290000I0J-150000D01*
G01*
G37*
G36*
G01*
X174800000Y-108290000D02*
X174800000Y-108590000D01*
G75*
G02*
X174650000Y-108740000I-150000J0D01*
G01*
X172750000Y-108740000D01*
G75*
G02*
X172600000Y-108590000I0J150000D01*
G01*
X172600000Y-108290000D01*
G75*
G02*
X172750000Y-108140000I150000J0D01*
G01*
X174650000Y-108140000D01*
G75*
G02*
X174800000Y-108290000I0J-150000D01*
G01*
G37*
G36*
G01*
X174800000Y-109560000D02*
X174800000Y-109860000D01*
G75*
G02*
X174650000Y-110010000I-150000J0D01*
G01*
X172750000Y-110010000D01*
G75*
G02*
X172600000Y-109860000I0J150000D01*
G01*
X172600000Y-109560000D01*
G75*
G02*
X172750000Y-109410000I150000J0D01*
G01*
X174650000Y-109410000D01*
G75*
G02*
X174800000Y-109560000I0J-150000D01*
G01*
G37*
G36*
G01*
X174800000Y-110830000D02*
X174800000Y-111130000D01*
G75*
G02*
X174650000Y-111280000I-150000J0D01*
G01*
X172750000Y-111280000D01*
G75*
G02*
X172600000Y-111130000I0J150000D01*
G01*
X172600000Y-110830000D01*
G75*
G02*
X172750000Y-110680000I150000J0D01*
G01*
X174650000Y-110680000D01*
G75*
G02*
X174800000Y-110830000I0J-150000D01*
G01*
G37*
G36*
G01*
X174800000Y-112100000D02*
X174800000Y-112400000D01*
G75*
G02*
X174650000Y-112550000I-150000J0D01*
G01*
X172750000Y-112550000D01*
G75*
G02*
X172600000Y-112400000I0J150000D01*
G01*
X172600000Y-112100000D01*
G75*
G02*
X172750000Y-111950000I150000J0D01*
G01*
X174650000Y-111950000D01*
G75*
G02*
X174800000Y-112100000I0J-150000D01*
G01*
G37*
D16*
X172370000Y-97950000D03*
D15*
X174910000Y-97950000D03*
X177450000Y-97950000D03*
X179990000Y-97950000D03*
D16*
X133130000Y-139740000D03*
D15*
X135670000Y-139740000D03*
X138210000Y-139740000D03*
X140750000Y-139740000D03*
D13*
X173660000Y-70570000D03*
D14*
X178740000Y-70570000D03*
G36*
G01*
X174392500Y-105695000D02*
X174392500Y-104745000D01*
G75*
G02*
X174642500Y-104495000I250000J0D01*
G01*
X175317500Y-104495000D01*
G75*
G02*
X175567500Y-104745000I0J-250000D01*
G01*
X175567500Y-105695000D01*
G75*
G02*
X175317500Y-105945000I-250000J0D01*
G01*
X174642500Y-105945000D01*
G75*
G02*
X174392500Y-105695000I0J250000D01*
G01*
G37*
G36*
G01*
X176467500Y-105695000D02*
X176467500Y-104745000D01*
G75*
G02*
X176717500Y-104495000I250000J0D01*
G01*
X177392500Y-104495000D01*
G75*
G02*
X177642500Y-104745000I0J-250000D01*
G01*
X177642500Y-105695000D01*
G75*
G02*
X177392500Y-105945000I-250000J0D01*
G01*
X176717500Y-105945000D01*
G75*
G02*
X176467500Y-105695000I0J250000D01*
G01*
G37*
G36*
G01*
X139530000Y-136265001D02*
X139530000Y-135014999D01*
G75*
G02*
X139779999Y-134765000I249999J0D01*
G01*
X140580001Y-134765000D01*
G75*
G02*
X140830000Y-135014999I0J-249999D01*
G01*
X140830000Y-136265001D01*
G75*
G02*
X140580001Y-136515000I-249999J0D01*
G01*
X139779999Y-136515000D01*
G75*
G02*
X139530000Y-136265001I0J249999D01*
G01*
G37*
G36*
G01*
X136430000Y-136265001D02*
X136430000Y-135014999D01*
G75*
G02*
X136679999Y-134765000I249999J0D01*
G01*
X137480001Y-134765000D01*
G75*
G02*
X137730000Y-135014999I0J-249999D01*
G01*
X137730000Y-136265001D01*
G75*
G02*
X137480001Y-136515000I-249999J0D01*
G01*
X136679999Y-136515000D01*
G75*
G02*
X136430000Y-136265001I0J249999D01*
G01*
G37*
G36*
G01*
X139430000Y-132114999D02*
X139430000Y-133365001D01*
G75*
G02*
X139180001Y-133615000I-249999J0D01*
G01*
X138379999Y-133615000D01*
G75*
G02*
X138130000Y-133365001I0J249999D01*
G01*
X138130000Y-132114999D01*
G75*
G02*
X138379999Y-131865000I249999J0D01*
G01*
X139180001Y-131865000D01*
G75*
G02*
X139430000Y-132114999I0J-249999D01*
G01*
G37*
G36*
G01*
X136330000Y-132114999D02*
X136330000Y-133365001D01*
G75*
G02*
X136080001Y-133615000I-249999J0D01*
G01*
X135279999Y-133615000D01*
G75*
G02*
X135030000Y-133365001I0J249999D01*
G01*
X135030000Y-132114999D01*
G75*
G02*
X135279999Y-131865000I249999J0D01*
G01*
X136080001Y-131865000D01*
G75*
G02*
X136330000Y-132114999I0J-249999D01*
G01*
G37*
D18*
X129840000Y-121340000D03*
D19*
X129840000Y-116340000D03*
D18*
X117320000Y-135790000D03*
D19*
X117320000Y-140790000D03*
G36*
G01*
X124265000Y-136532500D02*
X125215000Y-136532500D01*
G75*
G02*
X125465000Y-136782500I0J-250000D01*
G01*
X125465000Y-137457500D01*
G75*
G02*
X125215000Y-137707500I-250000J0D01*
G01*
X124265000Y-137707500D01*
G75*
G02*
X124015000Y-137457500I0J250000D01*
G01*
X124015000Y-136782500D01*
G75*
G02*
X124265000Y-136532500I250000J0D01*
G01*
G37*
G36*
G01*
X124265000Y-138607500D02*
X125215000Y-138607500D01*
G75*
G02*
X125465000Y-138857500I0J-250000D01*
G01*
X125465000Y-139532500D01*
G75*
G02*
X125215000Y-139782500I-250000J0D01*
G01*
X124265000Y-139782500D01*
G75*
G02*
X124015000Y-139532500I0J250000D01*
G01*
X124015000Y-138857500D01*
G75*
G02*
X124265000Y-138607500I250000J0D01*
G01*
G37*
D16*
X127400000Y-129490000D03*
D15*
X129940000Y-129490000D03*
D20*
X131310000Y-109550000D03*
D21*
X126110000Y-80150000D03*
D20*
X121110000Y-80150000D03*
X115910000Y-109550000D03*
D22*
X127070000Y-74560000D03*
X119570000Y-73160000D03*
D23*
X115080000Y-129050000D03*
D24*
X121380000Y-129050000D03*
X121380000Y-126750000D03*
X121380000Y-131350000D03*
D25*
X129120000Y-67150000D03*
X117720000Y-67150000D03*
X119160000Y-116220000D03*
D26*
X119160000Y-121220000D03*
D27*
X153440000Y-71320000D03*
D28*
X154710000Y-71320000D03*
X155980000Y-71320000D03*
X157250000Y-71320000D03*
G36*
G01*
X145689999Y-76970000D02*
X146590001Y-76970000D01*
G75*
G02*
X146840000Y-77219999I0J-249999D01*
G01*
X146840000Y-77920001D01*
G75*
G02*
X146590001Y-78170000I-249999J0D01*
G01*
X145689999Y-78170000D01*
G75*
G02*
X145440000Y-77920001I0J249999D01*
G01*
X145440000Y-77219999D01*
G75*
G02*
X145689999Y-76970000I249999J0D01*
G01*
G37*
G36*
G01*
X145689999Y-78970000D02*
X146590001Y-78970000D01*
G75*
G02*
X146840000Y-79219999I0J-249999D01*
G01*
X146840000Y-79920001D01*
G75*
G02*
X146590001Y-80170000I-249999J0D01*
G01*
X145689999Y-80170000D01*
G75*
G02*
X145440000Y-79920001I0J249999D01*
G01*
X145440000Y-79219999D01*
G75*
G02*
X145689999Y-78970000I249999J0D01*
G01*
G37*
G36*
G01*
X149590001Y-80170000D02*
X148689999Y-80170000D01*
G75*
G02*
X148440000Y-79920001I0J249999D01*
G01*
X148440000Y-79219999D01*
G75*
G02*
X148689999Y-78970000I249999J0D01*
G01*
X149590001Y-78970000D01*
G75*
G02*
X149840000Y-79219999I0J-249999D01*
G01*
X149840000Y-79920001D01*
G75*
G02*
X149590001Y-80170000I-249999J0D01*
G01*
G37*
G36*
G01*
X149590001Y-82170000D02*
X148689999Y-82170000D01*
G75*
G02*
X148440000Y-81920001I0J249999D01*
G01*
X148440000Y-81219999D01*
G75*
G02*
X148689999Y-80970000I249999J0D01*
G01*
X149590001Y-80970000D01*
G75*
G02*
X149840000Y-81219999I0J-249999D01*
G01*
X149840000Y-81920001D01*
G75*
G02*
X149590001Y-82170000I-249999J0D01*
G01*
G37*
G36*
G01*
X152590001Y-84170000D02*
X151689999Y-84170000D01*
G75*
G02*
X151440000Y-83920001I0J249999D01*
G01*
X151440000Y-83219999D01*
G75*
G02*
X151689999Y-82970000I249999J0D01*
G01*
X152590001Y-82970000D01*
G75*
G02*
X152840000Y-83219999I0J-249999D01*
G01*
X152840000Y-83920001D01*
G75*
G02*
X152590001Y-84170000I-249999J0D01*
G01*
G37*
G36*
G01*
X152590001Y-82170000D02*
X151689999Y-82170000D01*
G75*
G02*
X151440000Y-81920001I0J249999D01*
G01*
X151440000Y-81219999D01*
G75*
G02*
X151689999Y-80970000I249999J0D01*
G01*
X152590001Y-80970000D01*
G75*
G02*
X152840000Y-81219999I0J-249999D01*
G01*
X152840000Y-81920001D01*
G75*
G02*
X152590001Y-82170000I-249999J0D01*
G01*
G37*
G36*
G01*
X176514999Y-94020000D02*
X177765001Y-94020000D01*
G75*
G02*
X178015000Y-94269999I0J-249999D01*
G01*
X178015000Y-95070001D01*
G75*
G02*
X177765001Y-95320000I-249999J0D01*
G01*
X176514999Y-95320000D01*
G75*
G02*
X176265000Y-95070001I0J249999D01*
G01*
X176265000Y-94269999D01*
G75*
G02*
X176514999Y-94020000I249999J0D01*
G01*
G37*
G36*
G01*
X176514999Y-90920000D02*
X177765001Y-90920000D01*
G75*
G02*
X178015000Y-91169999I0J-249999D01*
G01*
X178015000Y-91970001D01*
G75*
G02*
X177765001Y-92220000I-249999J0D01*
G01*
X176514999Y-92220000D01*
G75*
G02*
X176265000Y-91970001I0J249999D01*
G01*
X176265000Y-91169999D01*
G75*
G02*
X176514999Y-90920000I249999J0D01*
G01*
G37*
G36*
G01*
X179714999Y-90920000D02*
X180965001Y-90920000D01*
G75*
G02*
X181215000Y-91169999I0J-249999D01*
G01*
X181215000Y-91970001D01*
G75*
G02*
X180965001Y-92220000I-249999J0D01*
G01*
X179714999Y-92220000D01*
G75*
G02*
X179465000Y-91970001I0J249999D01*
G01*
X179465000Y-91169999D01*
G75*
G02*
X179714999Y-90920000I249999J0D01*
G01*
G37*
G36*
G01*
X179714999Y-94020000D02*
X180965001Y-94020000D01*
G75*
G02*
X181215000Y-94269999I0J-249999D01*
G01*
X181215000Y-95070001D01*
G75*
G02*
X180965001Y-95320000I-249999J0D01*
G01*
X179714999Y-95320000D01*
G75*
G02*
X179465000Y-95070001I0J249999D01*
G01*
X179465000Y-94269999D01*
G75*
G02*
X179714999Y-94020000I249999J0D01*
G01*
G37*
D29*
X189730000Y-91300000D03*
D22*
X192230000Y-91300000D03*
X194730000Y-91300000D03*
D30*
X197030000Y-83800000D03*
X187430000Y-83800000D03*
D16*
X156530000Y-139740000D03*
D15*
X159070000Y-139740000D03*
X161610000Y-139740000D03*
X164150000Y-139740000D03*
X166690000Y-139740000D03*
X169230000Y-139740000D03*
D16*
X110140000Y-118570000D03*
D31*
X197340000Y-66770000D03*
X105940000Y-140770000D03*
X197340000Y-140770000D03*
X105940000Y-66770000D03*
M02*
