M48
; DRILL file {KiCad (5.1.7)-1} date 01/09/21 20:06:44
; FORMAT={-:-/ absolute / inch / decimal}
; #@! TF.CreationDate,2021-01-09T20:06:44-03:00
; #@! TF.GenerationSoftware,Kicad,Pcbnew,(5.1.7)-1
; #@! TF.FileFunction,Plated,1,2,PTH
FMAT,2
INCH
T1C0.0200
T2C0.0315
T3C0.0354
T4C0.0394
T5C0.0512
T6C0.0598
T7C0.0709
T8C0.1260
%
G90
G05
T1
X4.1157Y-4.9673
X4.1157Y-5.0421
X4.1157Y-5.1169
X4.1157Y-5.1917
X4.1394Y-4.1169
X4.1394Y-4.235
X4.1394Y-4.3531
X4.1394Y-4.4713
X4.1394Y-4.5894
X4.1394Y-4.7075
X4.1394Y-4.7862
X4.1984Y-4.9673
X4.1984Y-5.0421
X4.1984Y-5.1169
X4.1984Y-5.1917
X4.2575Y-4.1169
X4.2575Y-4.235
X4.2575Y-4.3531
X4.2575Y-4.4713
X4.2575Y-4.55
X4.2575Y-4.7862
X4.2772Y-4.9673
X4.2772Y-5.0421
X4.2772Y-5.1169
X4.2772Y-5.1917
X4.3598Y-4.9673
X4.3598Y-5.0421
X4.3598Y-5.1169
X4.3598Y-5.1917
X4.3756Y-4.1169
X4.3756Y-4.235
X4.3756Y-4.3531
X4.3756Y-4.4713
X4.3756Y-4.55
X4.415Y-5.3768
X4.415Y-5.4555
X4.415Y-5.5736
X4.4425Y-4.9673
X4.4425Y-5.0421
X4.4425Y-5.1169
X4.4425Y-5.1917
X4.4937Y-4.1169
X4.5331Y-5.5736
X4.6118Y-4.1169
X4.6906Y-4.4713
X4.6906Y-5.4555
X4.6906Y-5.5736
X4.7354Y-5.2587
X4.8087Y-4.235
X4.8087Y-4.3531
X4.8087Y-4.4713
X4.8087Y-5.2587
X4.8087Y-5.4555
X4.8087Y-5.5736
X4.9268Y-4.235
X4.9268Y-4.3531
X4.9268Y-4.4713
X4.9268Y-4.5894
X4.9268Y-5.6406
X5.0449Y-4.235
X5.0449Y-4.4713
X5.0449Y-5.2193
X5.0449Y-5.3374
X5.0449Y-5.4555
X5.0449Y-5.5736
X5.163Y-4.4713
X5.163Y-4.9437
X5.163Y-5.2193
X5.163Y-5.3374
X5.2811Y-4.235
X5.2811Y-4.4713
X5.2811Y-4.5894
X5.2811Y-4.7075
X5.2811Y-4.8256
X5.2811Y-4.9437
X5.2811Y-5.3374
X5.3992Y-4.235
X5.3992Y-4.3531
X5.3992Y-4.4713
X5.478Y-4.9831
X5.5882Y-3.0106
X5.6606Y-5.0094
X5.6748Y-2.9752
X5.6748Y-5.3374
X5.6748Y-5.4555
X5.6748Y-5.5736
X5.7535Y-2.8965
X5.7929Y-3.5657
X5.7929Y-3.6839
X5.7929Y-3.802
X5.7929Y-3.9201
X5.7929Y-4.0382
X5.7929Y-4.1563
X5.7929Y-4.2744
X5.7929Y-5.3374
X5.7929Y-5.4555
X5.7929Y-5.5736
X5.8323Y-2.8177
X5.9012Y-2.7272
X5.911Y-3.5657
X5.911Y-3.6839
X5.911Y-3.802
X5.911Y-3.9201
X5.911Y-4.0382
X5.911Y-4.1563
X5.911Y-4.2744
X5.911Y-4.3925
X5.911Y-4.5106
X5.911Y-4.6287
X5.911Y-4.7469
X5.911Y-5.3374
X5.911Y-5.4555
X5.911Y-5.5736
X5.9504Y-2.6209
X6.0276Y-4.2744
X6.0276Y-4.3925
X6.0276Y-4.5106
X6.0276Y-4.6287
X6.0276Y-4.7469
X6.0276Y-4.8819
X6.0291Y-3.6839
X6.0291Y-3.802
X6.0291Y-3.9201
X6.0291Y-4.0382
X6.0291Y-4.1563
X6.0291Y-5.4555
X6.0685Y-2.5421
X6.0685Y-2.6209
X6.1866Y-2.5421
X6.1866Y-2.6209
X6.2614Y-3.0421
X6.2654Y-3.8413
X6.2772Y-2.5559
X6.3441Y-2.9752
X6.3441Y-3.0933
X6.3441Y-3.2114
X6.3441Y-3.2902
X6.3823Y-2.6559
X6.4622Y-2.9752
X6.4622Y-3.0933
X6.4622Y-3.2114
X6.4622Y-3.2902
X6.5016Y-3.6445
X6.5016Y-5.1012
X6.5409Y-3.5657
X6.5409Y-4.0776
X6.5409Y-4.1563
X6.5803Y-3.7232
X6.6197Y-3.6445
X6.6591Y-3.9988
X6.6591Y-4.0776
X6.6591Y-4.1563
X6.6591Y-4.235
X6.6719Y-4.9289
X6.6906Y-3.9319
X6.6906Y-4.7469
X6.6984Y-2.9752
X6.6984Y-3.0933
X6.6984Y-3.7232
X6.7437Y-2.5618
X6.7772Y-2.9752
X6.7772Y-3.0933
X6.7772Y-3.3295
X6.7772Y-3.4476
X6.7772Y-3.9988
X6.7772Y-4.0776
X6.7772Y-4.1563
X6.8346Y-3.5571
X6.835Y-2.661
X6.8953Y-2.9752
X6.8953Y-3.2114
X6.8953Y-3.3295
X6.8953Y-3.4476
X6.8953Y-4.6287
X6.8953Y-4.7469
X7.037Y-4.4831
X7.0528Y-3.0933
X7.0528Y-3.2114
X7.0528Y-3.3295
X7.0528Y-3.4476
X7.1315Y-4.4083
X7.1866Y-4.3453
X7.1909Y-2.5579
X7.2102Y-4.55
X7.2102Y-4.7469
X7.2417Y-4.0185
X7.2496Y-4.2823
X7.2732Y-4.1012
X7.2732Y-4.1957
X7.289Y-3.0933
X7.289Y-3.2114
X7.3283Y-2.9752
X7.3677Y-4.1012
X7.3677Y-4.1957
X7.3677Y-4.3925
X7.3677Y-4.55
X7.4071Y-5.5736
X7.4465Y-4.0461
X7.4858Y-2.9752
X7.5209Y-2.6705
X7.5252Y-4.2744
X7.5252Y-4.3925
X7.5252Y-4.55
X7.5252Y-5.0618
X7.5252Y-5.1799
X7.5252Y-5.4555
X7.5252Y-5.5736
X7.5965Y-2.5587
X7.6433Y-2.8571
X7.6433Y-2.9752
X7.6433Y-4.7469
X7.6433Y-4.9043
X7.6433Y-5.0618
X7.6433Y-5.1799
X7.6433Y-5.298
X7.6827Y-3.7232
X7.6827Y-3.8413
X7.6827Y-3.9594
X7.6827Y-4.0776
X7.6827Y-4.235
X7.6827Y-4.3925
X7.6827Y-4.55
X7.8008Y-2.8571
X7.8008Y-2.9752
X7.8008Y-3.7232
X7.8008Y-3.8413
X7.8008Y-3.9594
X7.8008Y-4.0776
X7.8008Y-4.235
X7.8008Y-4.3925
X7.8008Y-4.55
X7.8008Y-4.7469
X7.8008Y-4.9043
X7.8008Y-5.0618
X7.8402Y-3.4476
X7.8402Y-3.5657
T2
X4.6189Y-5.3461
X4.6189Y-5.5429
X4.7075Y-2.8803
X5.0028Y-2.9354
X5.1118Y-4.5803
X5.1118Y-4.7772
T3
X6.0409Y-2.8079
X6.0909Y-2.8079
X6.1409Y-2.8079
X6.1909Y-2.8079
T4
X4.5634Y-4.313
X4.7681Y-3.1555
X4.965Y-3.1555
X5.1697Y-4.313
X5.2413Y-5.5016
X5.3413Y-5.5016
X5.4413Y-5.5016
X5.5413Y-5.5016
X5.5496Y-3.1955
X5.5496Y-3.2955
X5.5496Y-3.3955
X5.5496Y-3.4955
X5.5496Y-3.5955
X5.5496Y-3.6955
X5.5496Y-3.7955
X5.5496Y-3.8955
X5.5496Y-3.9955
X5.5496Y-4.0955
X5.5496Y-4.1955
X5.5496Y-4.2955
X5.5496Y-4.3955
X5.5496Y-4.4955
X5.5496Y-4.5955
X5.5496Y-4.6955
X5.5496Y-4.7955
X5.5496Y-4.8955
X5.5496Y-4.9955
X5.5496Y-5.0955
X5.0157Y-5.098
X5.1157Y-5.098
X6.1656Y-3.1955
X6.1656Y-3.2955
X6.1656Y-3.3955
X6.1656Y-3.4955
X6.1656Y-3.5955
X6.1656Y-3.6955
X6.1656Y-3.7955
X6.1656Y-3.8955
X6.1656Y-3.9955
X6.1656Y-4.0955
X6.1656Y-4.1955
X6.1656Y-4.2955
X6.1656Y-4.3955
X6.1656Y-4.4955
X6.1656Y-4.5955
X6.1656Y-4.6955
X6.1656Y-4.7955
X6.1656Y-4.8955
X6.1656Y-4.9955
X6.1656Y-5.0955
X4.6346Y-2.6437
X5.0835Y-2.6437
X7.4697Y-3.5945
X7.5681Y-3.5945
X7.6665Y-3.5945
X4.3362Y-4.6681
X4.6913Y-4.5756
X4.6913Y-4.7724
X6.1626Y-5.5016
X6.2626Y-5.5016
X6.3626Y-5.5016
X6.4626Y-5.5016
X6.5626Y-5.5016
X6.6626Y-5.5016
X6.7862Y-3.8563
X6.8862Y-3.8563
X6.9862Y-3.8563
X7.0862Y-3.8563
T5
X6.8587Y-5.2067
X6.8587Y-5.4035
X7.3508Y-5.2067
X7.3508Y-5.4035
T6
X4.2181Y-2.9858
X4.2181Y-3.1858
X6.837Y-2.7783
X7.037Y-2.7783
X7.2929Y-2.7783
X7.4929Y-2.7783
X6.3803Y-2.7783
X6.5803Y-2.7783
T7
X7.3791Y-3.2992
X7.7571Y-3.2992
T8
X7.7693Y-2.6287
X7.7693Y-5.5421
X4.1709Y-5.5421
X4.1709Y-2.6287
T0
M30
